<ttFont>
    <TTGlyph name="A" xMin="17" yMin="0" xMax="482" yMax="655">
      <contour>
        <pt x="17" y="0" on="1"/>
        <pt x="205" y="655" on="1"/>
        <pt x="301" y="655" on="1"/>
        <pt x="482" y="0" on="1"/>
        <pt x="423" y="0" on="1"/>
        <pt x="382" y="151" on="1"/>
        <pt x="117" y="151" on="1"/>
        <pt x="75" y="0" on="1"/>
      </contour>
      <contour>
        <pt x="369" y="201" on="1"/>
        <pt x="261" y="605" on="1"/>
        <pt x="244" y="605" on="1"/>
        <pt x="131" y="201" on="1"/>
      </contour>
    </TTGlyph>
    <TTGlyph name="AE" xMin="16" yMin="0" xMax="481" yMax="655">
      <contour>
        <pt x="16" y="0" on="1"/>
        <pt x="206" y="655" on="1"/>
        <pt x="478" y="655" on="1"/>
        <pt x="478" y="607" on="1"/>
        <pt x="314" y="607" on="1"/>
        <pt x="314" y="357" on="1"/>
        <pt x="451" y="357" on="1"/>
        <pt x="451" y="309" on="1"/>
        <pt x="314" y="309" on="1"/>
        <pt x="314" y="48" on="1"/>
        <pt x="481" y="48" on="1"/>
        <pt x="481" y="0" on="1"/>
        <pt x="259" y="0" on="1"/>
        <pt x="259" y="151" on="1"/>
        <pt x="116" y="151" on="1"/>
        <pt x="74" y="0" on="1"/>
      </contour>
      <contour>
        <pt x="259" y="201" on="1"/>
        <pt x="259" y="608" on="1"/>
        <pt x="248" y="608" on="1"/>
        <pt x="130" y="201" on="1"/>
      </contour>
    </TTGlyph>
    <TTGlyph name="AEacute" xMin="16" yMin="0" xMax="481" yMax="882">
      <contour>
        <pt x="481" y="0" on="1"/>
        <pt x="259" y="0" on="1"/>
        <pt x="259" y="151" on="1"/>
        <pt x="116" y="151" on="1"/>
        <pt x="74" y="0" on="1"/>
        <pt x="16" y="0" on="1"/>
        <pt x="206" y="655" on="1"/>
        <pt x="478" y="655" on="1"/>
        <pt x="478" y="607" on="1"/>
        <pt x="314" y="607" on="1"/>
        <pt x="314" y="357" on="1"/>
        <pt x="451" y="357" on="1"/>
        <pt x="451" y="309" on="1"/>
        <pt x="314" y="309" on="1"/>
        <pt x="314" y="48" on="1"/>
        <pt x="481" y="48" on="1"/>
      </contour>
      <contour>
        <pt x="174" y="794" on="1"/>
        <pt x="378" y="882" on="1"/>
        <pt x="397" y="836" on="1"/>
        <pt x="191" y="752" on="1"/>
      </contour>
      <contour>
        <pt x="130" y="201" on="1"/>
        <pt x="259" y="201" on="1"/>
        <pt x="259" y="608" on="1"/>
        <pt x="248" y="608" on="1"/>
      </contour>
    </TTGlyph>
    <TTGlyph name="Aacute" xMin="17" yMin="0" xMax="482" yMax="882">
      <contour>
        <pt x="164" y="794" on="1"/>
        <pt x="368" y="882" on="1"/>
        <pt x="387" y="836" on="1"/>
        <pt x="181" y="752" on="1"/>
      </contour>
      <contour>
        <pt x="17" y="0" on="1"/>
        <pt x="205" y="655" on="1"/>
        <pt x="301" y="655" on="1"/>
        <pt x="482" y="0" on="1"/>
        <pt x="423" y="0" on="1"/>
        <pt x="382" y="151" on="1"/>
        <pt x="117" y="151" on="1"/>
        <pt x="75" y="0" on="1"/>
      </contour>
      <contour>
        <pt x="369" y="201" on="1"/>
        <pt x="261" y="605" on="1"/>
        <pt x="244" y="605" on="1"/>
        <pt x="131" y="201" on="1"/>
      </contour>
    </TTGlyph>
    <TTGlyph name="Abreve" xMin="17" yMin="0" xMax="482" yMax="875">
      <contour>
        <pt x="372" y="754" on="0"/>
        <pt x="128" y="754" on="0"/>
        <pt x="114" y="875" on="1"/>
        <pt x="160" y="875" on="1"/>
        <pt x="166" y="834" on="0"/>
        <pt x="207" y="796" on="0"/>
        <pt x="293" y="796" on="0"/>
        <pt x="333" y="833" on="0"/>
        <pt x="339" y="875" on="1"/>
        <pt x="386" y="875" on="1"/>
      </contour>
      <contour>
        <pt x="17" y="0" on="1"/>
        <pt x="205" y="655" on="1"/>
        <pt x="301" y="655" on="1"/>
        <pt x="482" y="0" on="1"/>
        <pt x="423" y="0" on="1"/>
        <pt x="382" y="151" on="1"/>
        <pt x="117" y="151" on="1"/>
        <pt x="75" y="0" on="1"/>
      </contour>
      <contour>
        <pt x="369" y="201" on="1"/>
        <pt x="261" y="605" on="1"/>
        <pt x="244" y="605" on="1"/>
        <pt x="131" y="201" on="1"/>
      </contour>
    </TTGlyph>
    <TTGlyph name="Acircumflex" xMin="17" yMin="0" xMax="482" yMax="882">
      <contour>
        <pt x="107" y="752" on="1"/>
        <pt x="233" y="882" on="1"/>
        <pt x="273" y="882" on="1"/>
        <pt x="399" y="752" on="1"/>
        <pt x="341" y="752" on="1"/>
        <pt x="253" y="842" on="1"/>
        <pt x="165" y="752" on="1"/>
      </contour>
      <contour>
        <pt x="17" y="0" on="1"/>
        <pt x="205" y="655" on="1"/>
        <pt x="301" y="655" on="1"/>
        <pt x="482" y="0" on="1"/>
        <pt x="423" y="0" on="1"/>
        <pt x="382" y="151" on="1"/>
        <pt x="117" y="151" on="1"/>
        <pt x="75" y="0" on="1"/>
      </contour>
      <contour>
        <pt x="369" y="201" on="1"/>
        <pt x="261" y="605" on="1"/>
        <pt x="244" y="605" on="1"/>
        <pt x="131" y="201" on="1"/>
      </contour>
    </TTGlyph>
    <TTGlyph name="Adieresis" xMin="17" yMin="0" xMax="482" yMax="849">
      <contour>
        <pt x="117" y="797" on="0"/>
        <pt x="117" y="827" on="0"/>
        <pt x="137" y="849" on="0"/>
        <pt x="169" y="849" on="0"/>
        <pt x="189" y="827" on="0"/>
        <pt x="189" y="797" on="0"/>
        <pt x="169" y="775" on="0"/>
        <pt x="137" y="775" on="0"/>
      </contour>
      <contour>
        <pt x="310" y="797" on="0"/>
        <pt x="310" y="827" on="0"/>
        <pt x="320" y="838" on="1"/>
        <pt x="330" y="849" on="0"/>
        <pt x="362" y="849" on="0"/>
        <pt x="383" y="827" on="0"/>
        <pt x="383" y="797" on="0"/>
        <pt x="362" y="775" on="0"/>
        <pt x="330" y="775" on="0"/>
      </contour>
      <contour>
        <pt x="17" y="0" on="1"/>
        <pt x="205" y="655" on="1"/>
        <pt x="301" y="655" on="1"/>
        <pt x="482" y="0" on="1"/>
        <pt x="423" y="0" on="1"/>
        <pt x="382" y="151" on="1"/>
        <pt x="117" y="151" on="1"/>
        <pt x="75" y="0" on="1"/>
      </contour>
      <contour>
        <pt x="369" y="201" on="1"/>
        <pt x="261" y="605" on="1"/>
        <pt x="244" y="605" on="1"/>
        <pt x="131" y="201" on="1"/>
      </contour>
    </TTGlyph>
    <TTGlyph name="Agrave" xMin="17" yMin="0" xMax="482" yMax="883">
      <contour>
        <pt x="148" y="883" on="1"/>
        <pt x="352" y="795" on="1"/>
        <pt x="335" y="753" on="1"/>
        <pt x="129" y="837" on="1"/>
      </contour>
      <contour>
        <pt x="17" y="0" on="1"/>
        <pt x="205" y="655" on="1"/>
        <pt x="301" y="655" on="1"/>
        <pt x="482" y="0" on="1"/>
        <pt x="423" y="0" on="1"/>
        <pt x="382" y="151" on="1"/>
        <pt x="117" y="151" on="1"/>
        <pt x="75" y="0" on="1"/>
      </contour>
      <contour>
        <pt x="369" y="201" on="1"/>
        <pt x="261" y="605" on="1"/>
        <pt x="244" y="605" on="1"/>
        <pt x="131" y="201" on="1"/>
      </contour>
    </TTGlyph>
    <TTGlyph name="Amacron" xMin="17" yMin="0" xMax="482" yMax="834">
      <contour>
        <pt x="104" y="834" on="1"/>
        <pt x="397" y="834" on="1"/>
        <pt x="397" y="789" on="1"/>
        <pt x="104" y="789" on="1"/>
      </contour>
      <contour>
        <pt x="17" y="0" on="1"/>
        <pt x="205" y="655" on="1"/>
        <pt x="301" y="655" on="1"/>
        <pt x="482" y="0" on="1"/>
        <pt x="423" y="0" on="1"/>
        <pt x="382" y="151" on="1"/>
        <pt x="117" y="151" on="1"/>
        <pt x="75" y="0" on="1"/>
      </contour>
      <contour>
        <pt x="369" y="201" on="1"/>
        <pt x="261" y="605" on="1"/>
        <pt x="244" y="605" on="1"/>
        <pt x="131" y="201" on="1"/>
      </contour>
    </TTGlyph>
    <TTGlyph name="Aogonek" xMin="17" yMin="-249" xMax="482" yMax="655">
      <contour>
        <pt x="472" y="-239" on="1"/>
        <pt x="430" y="-249" on="0"/>
        <pt x="351" y="-248" on="0"/>
        <pt x="298" y="-190" on="0"/>
        <pt x="298" y="-96" on="0"/>
        <pt x="368" y="-18" on="0"/>
        <pt x="451" y="33" on="1"/>
        <pt x="481" y="0" on="1"/>
        <pt x="407" y="-48" on="0"/>
        <pt x="350" y="-112" on="0"/>
        <pt x="350" y="-141" on="1"/>
        <pt x="350" y="-203" on="0"/>
        <pt x="408" y="-203" on="1"/>
        <pt x="439" y="-203" on="0"/>
        <pt x="466" y="-197" on="1"/>
      </contour>
      <contour>
        <pt x="17" y="0" on="1"/>
        <pt x="205" y="655" on="1"/>
        <pt x="301" y="655" on="1"/>
        <pt x="482" y="0" on="1"/>
        <pt x="423" y="0" on="1"/>
        <pt x="382" y="151" on="1"/>
        <pt x="117" y="151" on="1"/>
        <pt x="75" y="0" on="1"/>
      </contour>
      <contour>
        <pt x="369" y="201" on="1"/>
        <pt x="261" y="605" on="1"/>
        <pt x="244" y="605" on="1"/>
        <pt x="131" y="201" on="1"/>
      </contour>
    </TTGlyph>
    <TTGlyph name="Aring" xMin="17" yMin="0" xMax="482" yMax="914">
      <contour>
        <pt x="297" y="914" on="0"/>
        <pt x="354" y="863" on="0"/>
        <pt x="354" y="774" on="0"/>
        <pt x="297" y="723" on="0"/>
        <pt x="202" y="723" on="0"/>
        <pt x="145" y="774" on="0"/>
        <pt x="145" y="863" on="0"/>
        <pt x="202" y="914" on="0"/>
      </contour>
      <contour>
        <pt x="187" y="818" on="1"/>
        <pt x="187" y="791" on="0"/>
        <pt x="220" y="761" on="0"/>
        <pt x="278" y="761" on="0"/>
        <pt x="311" y="791" on="0"/>
        <pt x="311" y="818" on="1"/>
        <pt x="311" y="875" on="0"/>
        <pt x="187" y="875" on="0"/>
      </contour>
      <contour>
        <pt x="17" y="0" on="1"/>
        <pt x="205" y="655" on="1"/>
        <pt x="301" y="655" on="1"/>
        <pt x="482" y="0" on="1"/>
        <pt x="423" y="0" on="1"/>
        <pt x="382" y="151" on="1"/>
        <pt x="117" y="151" on="1"/>
        <pt x="75" y="0" on="1"/>
      </contour>
      <contour>
        <pt x="369" y="201" on="1"/>
        <pt x="261" y="605" on="1"/>
        <pt x="244" y="605" on="1"/>
        <pt x="131" y="201" on="1"/>
      </contour>
    </TTGlyph>
    <TTGlyph name="Aringacute" xMin="17" yMin="0" xMax="482" yMax="921">
      <contour>
        <pt x="322" y="730" on="1"/>
        <pt x="378" y="921" on="1"/>
        <pt x="437" y="906" on="1"/>
        <pt x="363" y="717" on="1"/>
      </contour>
      <contour>
        <pt x="227" y="914" on="0"/>
        <pt x="284" y="863" on="0"/>
        <pt x="284" y="774" on="0"/>
        <pt x="227" y="723" on="0"/>
        <pt x="132" y="723" on="0"/>
        <pt x="75" y="774" on="0"/>
        <pt x="75" y="863" on="0"/>
        <pt x="132" y="914" on="0"/>
      </contour>
      <contour>
        <pt x="117" y="818" on="1"/>
        <pt x="117" y="791" on="0"/>
        <pt x="150" y="761" on="0"/>
        <pt x="208" y="761" on="0"/>
        <pt x="241" y="791" on="0"/>
        <pt x="241" y="818" on="1"/>
        <pt x="241" y="875" on="0"/>
        <pt x="117" y="875" on="0"/>
      </contour>
      <contour>
        <pt x="17" y="0" on="1"/>
        <pt x="205" y="655" on="1"/>
        <pt x="301" y="655" on="1"/>
        <pt x="482" y="0" on="1"/>
        <pt x="423" y="0" on="1"/>
        <pt x="382" y="151" on="1"/>
        <pt x="117" y="151" on="1"/>
        <pt x="75" y="0" on="1"/>
      </contour>
      <contour>
        <pt x="369" y="201" on="1"/>
        <pt x="261" y="605" on="1"/>
        <pt x="244" y="605" on="1"/>
        <pt x="131" y="201" on="1"/>
      </contour>
    </TTGlyph>
    <TTGlyph name="Atilde" xMin="17" yMin="0" xMax="482" yMax="872">
      <contour>
        <pt x="379" y="859" on="1"/>
        <pt x="404" y="826" on="1"/>
        <pt x="354" y="771" on="0"/>
        <pt x="286" y="771" on="0"/>
        <pt x="248" y="798" on="1"/>
        <pt x="210" y="825" on="0"/>
        <pt x="166" y="825" on="0"/>
        <pt x="123" y="784" on="1"/>
        <pt x="95" y="818" on="1"/>
        <pt x="152" y="872" on="0"/>
        <pt x="224" y="872" on="0"/>
        <pt x="300" y="819" on="0"/>
        <pt x="336" y="819" on="0"/>
      </contour>
      <contour>
        <pt x="17" y="0" on="1"/>
        <pt x="205" y="655" on="1"/>
        <pt x="301" y="655" on="1"/>
        <pt x="482" y="0" on="1"/>
        <pt x="423" y="0" on="1"/>
        <pt x="382" y="151" on="1"/>
        <pt x="117" y="151" on="1"/>
        <pt x="75" y="0" on="1"/>
      </contour>
      <contour>
        <pt x="369" y="201" on="1"/>
        <pt x="261" y="605" on="1"/>
        <pt x="244" y="605" on="1"/>
        <pt x="131" y="201" on="1"/>
      </contour>
    </TTGlyph>
    <TTGlyph name="B" xMin="67" yMin="0" xMax="456" yMax="655">
      <contour>
        <pt x="67" y="0" on="1"/>
        <pt x="67" y="655" on="1"/>
        <pt x="221" y="655" on="1"/>
        <pt x="331" y="655" on="0"/>
        <pt x="438" y="576" on="0"/>
        <pt x="438" y="485" on="1"/>
        <pt x="438" y="371" on="0"/>
        <pt x="327" y="337" on="1"/>
        <pt x="393" y="322" on="0"/>
        <pt x="456" y="252" on="0"/>
        <pt x="456" y="185" on="1"/>
        <pt x="456" y="79" on="0"/>
        <pt x="336" y="0" on="0"/>
        <pt x="212" y="0" on="1"/>
      </contour>
      <contour>
        <pt x="398" y="185" on="1"/>
        <pt x="398" y="307" on="0"/>
        <pt x="232" y="307" on="1"/>
        <pt x="122" y="307" on="1"/>
        <pt x="122" y="49" on="1"/>
        <pt x="212" y="49" on="1"/>
        <pt x="305" y="49" on="0"/>
        <pt x="398" y="108" on="0"/>
      </contour>
      <contour>
        <pt x="328" y="588" on="1"/>
        <pt x="285" y="606" on="0"/>
        <pt x="221" y="606" on="1"/>
        <pt x="122" y="606" on="1"/>
        <pt x="122" y="356" on="1"/>
        <pt x="229" y="356" on="1"/>
        <pt x="292" y="356" on="0"/>
        <pt x="380" y="413" on="0"/>
        <pt x="382" y="565" on="0"/>
      </contour>
    </TTGlyph>
    <TTGlyph name="C" xMin="55" yMin="-10" xMax="445" yMax="665">
      <contour>
        <pt x="167" y="-10" on="0"/>
        <pt x="55" y="150" on="0"/>
        <pt x="55" y="504" on="0"/>
        <pt x="163" y="665" on="0"/>
        <pt x="282" y="665" on="1"/>
        <pt x="360" y="665" on="0"/>
        <pt x="439" y="640" on="1"/>
        <pt x="439" y="508" on="1"/>
        <pt x="384" y="508" on="1"/>
        <pt x="384" y="597" on="1"/>
        <pt x="340" y="613" on="0"/>
        <pt x="282" y="613" on="1"/>
        <pt x="192" y="613" on="0"/>
        <pt x="114" y="479" on="0"/>
        <pt x="114" y="179" on="0"/>
        <pt x="198" y="43" on="0"/>
        <pt x="282" y="43" on="1"/>
        <pt x="345" y="43" on="0"/>
        <pt x="432" y="70" on="1"/>
        <pt x="445" y="18" on="1"/>
        <pt x="363" y="-10" on="0"/>
        <pt x="281" y="-10" on="1"/>
      </contour>
    </TTGlyph>
    <TTGlyph name="C.calt" xMin="55" yMin="-9" xMax="439" yMax="665">
      <contour>
        <pt x="426" y="68" on="1"/>
        <pt x="439" y="17" on="1"/>
        <pt x="351" y="-9" on="0"/>
        <pt x="281" y="-9" on="1"/>
        <pt x="166" y="-9" on="0"/>
        <pt x="55" y="150" on="0"/>
        <pt x="55" y="504" on="0"/>
        <pt x="163" y="665" on="0"/>
        <pt x="282" y="665" on="1"/>
        <pt x="355" y="665" on="0"/>
        <pt x="434" y="634" on="1"/>
        <pt x="418" y="584" on="1"/>
        <pt x="346" y="614" on="0"/>
        <pt x="282" y="614" on="1"/>
        <pt x="193" y="614" on="0"/>
        <pt x="114" y="479" on="0"/>
        <pt x="114" y="179" on="0"/>
        <pt x="198" y="43" on="0"/>
        <pt x="282" y="43" on="1"/>
        <pt x="338" y="43" on="0"/>
      </contour>
    </TTGlyph>
    <TTGlyph name="C.calt.sc" xMin="83" yMin="-7" xMax="416" yMax="505">
      <contour>
        <pt x="403" y="65" on="1"/>
        <pt x="416" y="14" on="1"/>
        <pt x="338" y="-7" on="0"/>
        <pt x="277" y="-7" on="1"/>
        <pt x="177" y="-7" on="0"/>
        <pt x="83" y="115" on="0"/>
        <pt x="83" y="381" on="0"/>
        <pt x="177" y="505" on="0"/>
        <pt x="277" y="505" on="1"/>
        <pt x="340" y="505" on="0"/>
        <pt x="405" y="481" on="1"/>
        <pt x="389" y="434" on="1"/>
        <pt x="334" y="456" on="0"/>
        <pt x="206" y="456" on="0"/>
        <pt x="140" y="360" on="0"/>
        <pt x="140" y="140" on="0"/>
        <pt x="174" y="92" on="1"/>
        <pt x="210" y="44" on="0"/>
        <pt x="330" y="44" on="0"/>
      </contour>
    </TTGlyph>
    <TTGlyph name="Cacute" xMin="55" yMin="-10" xMax="445" yMax="882">
      <contour>
        <pt x="164" y="794" on="1"/>
        <pt x="368" y="882" on="1"/>
        <pt x="387" y="836" on="1"/>
        <pt x="181" y="752" on="1"/>
      </contour>
      <contour>
        <pt x="167" y="-10" on="0"/>
        <pt x="55" y="150" on="0"/>
        <pt x="55" y="504" on="0"/>
        <pt x="163" y="665" on="0"/>
        <pt x="282" y="665" on="1"/>
        <pt x="360" y="665" on="0"/>
        <pt x="439" y="640" on="1"/>
        <pt x="439" y="508" on="1"/>
        <pt x="384" y="508" on="1"/>
        <pt x="384" y="597" on="1"/>
        <pt x="340" y="613" on="0"/>
        <pt x="282" y="613" on="1"/>
        <pt x="192" y="613" on="0"/>
        <pt x="114" y="479" on="0"/>
        <pt x="114" y="179" on="0"/>
        <pt x="198" y="43" on="0"/>
        <pt x="282" y="43" on="1"/>
        <pt x="345" y="43" on="0"/>
        <pt x="432" y="70" on="1"/>
        <pt x="445" y="18" on="1"/>
        <pt x="363" y="-10" on="0"/>
        <pt x="281" y="-10" on="1"/>
      </contour>
    </TTGlyph>
    <TTGlyph name="Ccaron" xMin="55" yMin="-10" xMax="445" yMax="882">
      <contour>
        <pt x="414" y="882" on="1"/>
        <pt x="288" y="752" on="1"/>
        <pt x="248" y="752" on="1"/>
        <pt x="122" y="882" on="1"/>
        <pt x="181" y="882" on="1"/>
        <pt x="268" y="793" on="1"/>
        <pt x="355" y="882" on="1"/>
      </contour>
      <contour>
        <pt x="167" y="-10" on="0"/>
        <pt x="55" y="150" on="0"/>
        <pt x="55" y="504" on="0"/>
        <pt x="163" y="665" on="0"/>
        <pt x="282" y="665" on="1"/>
        <pt x="360" y="665" on="0"/>
        <pt x="439" y="640" on="1"/>
        <pt x="439" y="508" on="1"/>
        <pt x="384" y="508" on="1"/>
        <pt x="384" y="597" on="1"/>
        <pt x="340" y="613" on="0"/>
        <pt x="282" y="613" on="1"/>
        <pt x="192" y="613" on="0"/>
        <pt x="114" y="479" on="0"/>
        <pt x="114" y="179" on="0"/>
        <pt x="198" y="43" on="0"/>
        <pt x="282" y="43" on="1"/>
        <pt x="345" y="43" on="0"/>
        <pt x="432" y="70" on="1"/>
        <pt x="445" y="18" on="1"/>
        <pt x="363" y="-10" on="0"/>
        <pt x="281" y="-10" on="1"/>
      </contour>
    </TTGlyph>
    <TTGlyph name="Ccedilla" xMin="55" yMin="-242" xMax="445" yMax="665">
      <contour>
        <pt x="307" y="-57" on="0"/>
        <pt x="358" y="-104" on="0"/>
        <pt x="358" y="-193" on="0"/>
        <pt x="307" y="-242" on="0"/>
        <pt x="265" y="-242" on="1"/>
        <pt x="242" y="-242" on="0"/>
        <pt x="202" y="-235" on="1"/>
        <pt x="207" y="-192" on="1"/>
        <pt x="227" y="-197" on="0"/>
        <pt x="254" y="-197" on="1"/>
        <pt x="307" y="-197" on="0"/>
        <pt x="307" y="-148" on="1"/>
        <pt x="307" y="-101" on="0"/>
        <pt x="254" y="-101" on="1"/>
        <pt x="236" y="-101" on="0"/>
        <pt x="211" y="-106" on="1"/>
        <pt x="205" y="-65" on="1"/>
        <pt x="237" y="-57" on="0"/>
      </contour>
      <contour>
        <pt x="167" y="-10" on="0"/>
        <pt x="55" y="150" on="0"/>
        <pt x="55" y="504" on="0"/>
        <pt x="163" y="665" on="0"/>
        <pt x="282" y="665" on="1"/>
        <pt x="360" y="665" on="0"/>
        <pt x="439" y="640" on="1"/>
        <pt x="439" y="508" on="1"/>
        <pt x="384" y="508" on="1"/>
        <pt x="384" y="597" on="1"/>
        <pt x="340" y="613" on="0"/>
        <pt x="282" y="613" on="1"/>
        <pt x="192" y="613" on="0"/>
        <pt x="114" y="479" on="0"/>
        <pt x="114" y="179" on="0"/>
        <pt x="198" y="43" on="0"/>
        <pt x="282" y="43" on="1"/>
        <pt x="345" y="43" on="0"/>
        <pt x="432" y="70" on="1"/>
        <pt x="445" y="18" on="1"/>
        <pt x="363" y="-10" on="0"/>
        <pt x="281" y="-10" on="1"/>
      </contour>
    </TTGlyph>
    <TTGlyph name="Ccircumflex" xMin="55" yMin="-10" xMax="445" yMax="882">
      <contour>
        <pt x="122" y="752" on="1"/>
        <pt x="248" y="882" on="1"/>
        <pt x="288" y="882" on="1"/>
        <pt x="414" y="752" on="1"/>
        <pt x="356" y="752" on="1"/>
        <pt x="268" y="842" on="1"/>
        <pt x="180" y="752" on="1"/>
      </contour>
      <contour>
        <pt x="167" y="-10" on="0"/>
        <pt x="55" y="150" on="0"/>
        <pt x="55" y="504" on="0"/>
        <pt x="163" y="665" on="0"/>
        <pt x="282" y="665" on="1"/>
        <pt x="360" y="665" on="0"/>
        <pt x="439" y="640" on="1"/>
        <pt x="439" y="508" on="1"/>
        <pt x="384" y="508" on="1"/>
        <pt x="384" y="597" on="1"/>
        <pt x="340" y="613" on="0"/>
        <pt x="282" y="613" on="1"/>
        <pt x="192" y="613" on="0"/>
        <pt x="114" y="479" on="0"/>
        <pt x="114" y="179" on="0"/>
        <pt x="198" y="43" on="0"/>
        <pt x="282" y="43" on="1"/>
        <pt x="345" y="43" on="0"/>
        <pt x="432" y="70" on="1"/>
        <pt x="445" y="18" on="1"/>
        <pt x="363" y="-10" on="0"/>
        <pt x="281" y="-10" on="1"/>
      </contour>
    </TTGlyph>
    <TTGlyph name="Cdotaccent" xMin="55" yMin="-10" xMax="445" yMax="849">
      <contour>
        <pt x="243" y="797" on="0"/>
        <pt x="243" y="827" on="0"/>
        <pt x="264" y="849" on="0"/>
        <pt x="295" y="849" on="0"/>
        <pt x="316" y="827" on="0"/>
        <pt x="316" y="797" on="0"/>
        <pt x="295" y="775" on="0"/>
        <pt x="264" y="775" on="0"/>
      </contour>
      <contour>
        <pt x="167" y="-10" on="0"/>
        <pt x="55" y="150" on="0"/>
        <pt x="55" y="504" on="0"/>
        <pt x="163" y="665" on="0"/>
        <pt x="282" y="665" on="1"/>
        <pt x="360" y="665" on="0"/>
        <pt x="439" y="640" on="1"/>
        <pt x="439" y="508" on="1"/>
        <pt x="384" y="508" on="1"/>
        <pt x="384" y="597" on="1"/>
        <pt x="340" y="613" on="0"/>
        <pt x="282" y="613" on="1"/>
        <pt x="192" y="613" on="0"/>
        <pt x="114" y="479" on="0"/>
        <pt x="114" y="179" on="0"/>
        <pt x="198" y="43" on="0"/>
        <pt x="282" y="43" on="1"/>
        <pt x="345" y="43" on="0"/>
        <pt x="432" y="70" on="1"/>
        <pt x="445" y="18" on="1"/>
        <pt x="363" y="-10" on="0"/>
        <pt x="281" y="-10" on="1"/>
      </contour>
    </TTGlyph>
    <TTGlyph name="D" xMin="60" yMin="0" xMax="458" yMax="655">
      <contour>
        <pt x="60" y="0" on="1"/>
        <pt x="60" y="655" on="1"/>
        <pt x="194" y="655" on="1"/>
        <pt x="268" y="655" on="0"/>
        <pt x="363" y="626" on="0"/>
        <pt x="429" y="552" on="0"/>
        <pt x="458" y="425" on="0"/>
        <pt x="458" y="230" on="0"/>
        <pt x="426" y="101" on="0"/>
        <pt x="356" y="29" on="0"/>
        <pt x="262" y="0" on="0"/>
        <pt x="192" y="0" on="1"/>
      </contour>
      <contour>
        <pt x="354" y="94" on="0"/>
        <pt x="399" y="215" on="0"/>
        <pt x="399" y="440" on="0"/>
        <pt x="355" y="561" on="0"/>
        <pt x="271" y="605" on="0"/>
        <pt x="194" y="605" on="1"/>
        <pt x="115" y="605" on="1"/>
        <pt x="115" y="50" on="1"/>
        <pt x="192" y="50" on="1"/>
        <pt x="269" y="50" on="0"/>
      </contour>
    </TTGlyph>
    <TTGlyph name="Dcaron" xMin="60" yMin="0" xMax="458" yMax="882">
      <contour>
        <pt x="374" y="882" on="1"/>
        <pt x="248" y="752" on="1"/>
        <pt x="208" y="752" on="1"/>
        <pt x="82" y="882" on="1"/>
        <pt x="141" y="882" on="1"/>
        <pt x="228" y="793" on="1"/>
        <pt x="315" y="882" on="1"/>
      </contour>
      <contour>
        <pt x="60" y="0" on="1"/>
        <pt x="60" y="655" on="1"/>
        <pt x="194" y="655" on="1"/>
        <pt x="268" y="655" on="0"/>
        <pt x="363" y="626" on="0"/>
        <pt x="429" y="552" on="0"/>
        <pt x="458" y="425" on="0"/>
        <pt x="458" y="230" on="0"/>
        <pt x="426" y="101" on="0"/>
        <pt x="356" y="29" on="0"/>
        <pt x="262" y="0" on="0"/>
        <pt x="192" y="0" on="1"/>
      </contour>
      <contour>
        <pt x="354" y="94" on="0"/>
        <pt x="399" y="215" on="0"/>
        <pt x="399" y="440" on="0"/>
        <pt x="355" y="561" on="0"/>
        <pt x="271" y="605" on="0"/>
        <pt x="194" y="605" on="1"/>
        <pt x="115" y="605" on="1"/>
        <pt x="115" y="50" on="1"/>
        <pt x="192" y="50" on="1"/>
        <pt x="269" y="50" on="0"/>
      </contour>
    </TTGlyph>
    <TTGlyph name="Dcroat" xMin="0" yMin="0" xMax="463" yMax="655">
      <contour>
        <pt x="65" y="0" on="1"/>
        <pt x="65" y="309" on="1"/>
        <pt x="0" y="309" on="1"/>
        <pt x="0" y="356" on="1"/>
        <pt x="65" y="356" on="1"/>
        <pt x="65" y="655" on="1"/>
        <pt x="199" y="655" on="1"/>
        <pt x="273" y="655" on="0"/>
        <pt x="368" y="626" on="0"/>
        <pt x="434" y="552" on="0"/>
        <pt x="463" y="425" on="0"/>
        <pt x="463" y="230" on="0"/>
        <pt x="431" y="101" on="0"/>
        <pt x="361" y="29" on="0"/>
        <pt x="267" y="0" on="0"/>
        <pt x="197" y="0" on="1"/>
      </contour>
      <contour>
        <pt x="199" y="605" on="1"/>
        <pt x="120" y="605" on="1"/>
        <pt x="120" y="356" on="1"/>
        <pt x="255" y="356" on="1"/>
        <pt x="255" y="309" on="1"/>
        <pt x="120" y="309" on="1"/>
        <pt x="120" y="50" on="1"/>
        <pt x="197" y="50" on="1"/>
        <pt x="274" y="50" on="0"/>
        <pt x="316" y="72" on="1"/>
        <pt x="404" y="117" on="0"/>
        <pt x="404" y="327" on="1"/>
        <pt x="404" y="538" on="0"/>
        <pt x="318" y="583" on="1"/>
        <pt x="276" y="605" on="0"/>
      </contour>
    </TTGlyph>
    <TTGlyph name="Delta" xMin="16" yMin="0" xMax="481" yMax="654">
      <contour>
        <pt x="481" y="0" on="1"/>
        <pt x="16" y="0" on="1"/>
        <pt x="206" y="654" on="1"/>
        <pt x="302" y="654" on="1"/>
      </contour>
      <contour>
        <pt x="88" y="50" on="1"/>
        <pt x="409" y="50" on="1"/>
        <pt x="260" y="608" on="1"/>
        <pt x="247" y="608" on="1"/>
      </contour>
    </TTGlyph>
    <TTGlyph name="Delta.alt" xMin="54" yMin="0" xMax="449" yMax="655">
      <contour>
        <pt x="58" y="0" on="1"/>
        <pt x="54" y="44" on="1"/>
        <pt x="201" y="655" on="1"/>
        <pt x="301" y="655" on="1"/>
        <pt x="449" y="41" on="1"/>
        <pt x="446" y="0" on="1"/>
      </contour>
      <contour>
        <pt x="242" y="605" on="1"/>
        <pt x="113" y="51" on="1"/>
        <pt x="387" y="51" on="1"/>
        <pt x="258" y="605" on="1"/>
      </contour>
    </TTGlyph>
    <TTGlyph name="E" xMin="82" yMin="0" xMax="426" yMax="655">
      <contour>
        <pt x="82" y="0" on="1"/>
        <pt x="82" y="655" on="1"/>
        <pt x="423" y="655" on="1"/>
        <pt x="423" y="606" on="1"/>
        <pt x="137" y="606" on="1"/>
        <pt x="137" y="358" on="1"/>
        <pt x="396" y="358" on="1"/>
        <pt x="396" y="309" on="1"/>
        <pt x="137" y="309" on="1"/>
        <pt x="137" y="49" on="1"/>
        <pt x="426" y="49" on="1"/>
        <pt x="426" y="0" on="1"/>
      </contour>
    </TTGlyph>
    <TTGlyph name="Eacute" xMin="82" yMin="0" xMax="426" yMax="882">
      <contour>
        <pt x="148" y="794" on="1"/>
        <pt x="352" y="882" on="1"/>
        <pt x="371" y="836" on="1"/>
        <pt x="165" y="752" on="1"/>
      </contour>
      <contour>
        <pt x="82" y="0" on="1"/>
        <pt x="82" y="655" on="1"/>
        <pt x="423" y="655" on="1"/>
        <pt x="423" y="606" on="1"/>
        <pt x="137" y="606" on="1"/>
        <pt x="137" y="358" on="1"/>
        <pt x="396" y="358" on="1"/>
        <pt x="396" y="309" on="1"/>
        <pt x="137" y="309" on="1"/>
        <pt x="137" y="49" on="1"/>
        <pt x="426" y="49" on="1"/>
        <pt x="426" y="0" on="1"/>
      </contour>
    </TTGlyph>
    <TTGlyph name="Ebreve" xMin="82" yMin="0" xMax="426" yMax="875">
      <contour>
        <pt x="372" y="754" on="0"/>
        <pt x="128" y="754" on="0"/>
        <pt x="114" y="875" on="1"/>
        <pt x="160" y="875" on="1"/>
        <pt x="166" y="834" on="0"/>
        <pt x="207" y="796" on="0"/>
        <pt x="293" y="796" on="0"/>
        <pt x="333" y="833" on="0"/>
        <pt x="339" y="875" on="1"/>
        <pt x="386" y="875" on="1"/>
      </contour>
      <contour>
        <pt x="82" y="0" on="1"/>
        <pt x="82" y="655" on="1"/>
        <pt x="423" y="655" on="1"/>
        <pt x="423" y="606" on="1"/>
        <pt x="137" y="606" on="1"/>
        <pt x="137" y="358" on="1"/>
        <pt x="396" y="358" on="1"/>
        <pt x="396" y="309" on="1"/>
        <pt x="137" y="309" on="1"/>
        <pt x="137" y="49" on="1"/>
        <pt x="426" y="49" on="1"/>
        <pt x="426" y="0" on="1"/>
      </contour>
    </TTGlyph>
    <TTGlyph name="Ecaron" xMin="82" yMin="0" xMax="426" yMax="882">
      <contour>
        <pt x="399" y="882" on="1"/>
        <pt x="273" y="752" on="1"/>
        <pt x="233" y="752" on="1"/>
        <pt x="107" y="882" on="1"/>
        <pt x="166" y="882" on="1"/>
        <pt x="253" y="793" on="1"/>
        <pt x="340" y="882" on="1"/>
      </contour>
      <contour>
        <pt x="82" y="0" on="1"/>
        <pt x="82" y="655" on="1"/>
        <pt x="423" y="655" on="1"/>
        <pt x="423" y="606" on="1"/>
        <pt x="137" y="606" on="1"/>
        <pt x="137" y="358" on="1"/>
        <pt x="396" y="358" on="1"/>
        <pt x="396" y="309" on="1"/>
        <pt x="137" y="309" on="1"/>
        <pt x="137" y="49" on="1"/>
        <pt x="426" y="49" on="1"/>
        <pt x="426" y="0" on="1"/>
      </contour>
    </TTGlyph>
    <TTGlyph name="Ecircumflex" xMin="82" yMin="0" xMax="426" yMax="882">
      <contour>
        <pt x="107" y="752" on="1"/>
        <pt x="233" y="882" on="1"/>
        <pt x="273" y="882" on="1"/>
        <pt x="399" y="752" on="1"/>
        <pt x="341" y="752" on="1"/>
        <pt x="253" y="842" on="1"/>
        <pt x="165" y="752" on="1"/>
      </contour>
      <contour>
        <pt x="82" y="0" on="1"/>
        <pt x="82" y="655" on="1"/>
        <pt x="423" y="655" on="1"/>
        <pt x="423" y="606" on="1"/>
        <pt x="137" y="606" on="1"/>
        <pt x="137" y="358" on="1"/>
        <pt x="396" y="358" on="1"/>
        <pt x="396" y="309" on="1"/>
        <pt x="137" y="309" on="1"/>
        <pt x="137" y="49" on="1"/>
        <pt x="426" y="49" on="1"/>
        <pt x="426" y="0" on="1"/>
      </contour>
    </TTGlyph>
    <TTGlyph name="Edieresis" xMin="82" yMin="0" xMax="426" yMax="849">
      <contour>
        <pt x="117" y="797" on="0"/>
        <pt x="117" y="827" on="0"/>
        <pt x="137" y="849" on="0"/>
        <pt x="169" y="849" on="0"/>
        <pt x="189" y="827" on="0"/>
        <pt x="189" y="797" on="0"/>
        <pt x="169" y="775" on="0"/>
        <pt x="137" y="775" on="0"/>
      </contour>
      <contour>
        <pt x="310" y="797" on="0"/>
        <pt x="310" y="827" on="0"/>
        <pt x="320" y="838" on="1"/>
        <pt x="330" y="849" on="0"/>
        <pt x="362" y="849" on="0"/>
        <pt x="383" y="827" on="0"/>
        <pt x="383" y="797" on="0"/>
        <pt x="362" y="775" on="0"/>
        <pt x="330" y="775" on="0"/>
      </contour>
      <contour>
        <pt x="82" y="0" on="1"/>
        <pt x="82" y="655" on="1"/>
        <pt x="423" y="655" on="1"/>
        <pt x="423" y="606" on="1"/>
        <pt x="137" y="606" on="1"/>
        <pt x="137" y="358" on="1"/>
        <pt x="396" y="358" on="1"/>
        <pt x="396" y="309" on="1"/>
        <pt x="137" y="309" on="1"/>
        <pt x="137" y="49" on="1"/>
        <pt x="426" y="49" on="1"/>
        <pt x="426" y="0" on="1"/>
      </contour>
    </TTGlyph>
    <TTGlyph name="Edotaccent" xMin="82" yMin="0" xMax="426" yMax="849">
      <contour>
        <pt x="213" y="797" on="0"/>
        <pt x="213" y="827" on="0"/>
        <pt x="234" y="849" on="0"/>
        <pt x="266" y="849" on="0"/>
        <pt x="286" y="827" on="0"/>
        <pt x="286" y="797" on="0"/>
        <pt x="276" y="786" on="1"/>
        <pt x="266" y="775" on="0"/>
        <pt x="234" y="775" on="0"/>
      </contour>
      <contour>
        <pt x="82" y="0" on="1"/>
        <pt x="82" y="655" on="1"/>
        <pt x="423" y="655" on="1"/>
        <pt x="423" y="606" on="1"/>
        <pt x="137" y="606" on="1"/>
        <pt x="137" y="358" on="1"/>
        <pt x="396" y="358" on="1"/>
        <pt x="396" y="309" on="1"/>
        <pt x="137" y="309" on="1"/>
        <pt x="137" y="49" on="1"/>
        <pt x="426" y="49" on="1"/>
        <pt x="426" y="0" on="1"/>
      </contour>
    </TTGlyph>
    <TTGlyph name="Egrave" xMin="82" yMin="0" xMax="426" yMax="883">
      <contour>
        <pt x="157" y="883" on="1"/>
        <pt x="361" y="795" on="1"/>
        <pt x="344" y="753" on="1"/>
        <pt x="138" y="837" on="1"/>
      </contour>
      <contour>
        <pt x="82" y="0" on="1"/>
        <pt x="82" y="655" on="1"/>
        <pt x="423" y="655" on="1"/>
        <pt x="423" y="606" on="1"/>
        <pt x="137" y="606" on="1"/>
        <pt x="137" y="358" on="1"/>
        <pt x="396" y="358" on="1"/>
        <pt x="396" y="309" on="1"/>
        <pt x="137" y="309" on="1"/>
        <pt x="137" y="49" on="1"/>
        <pt x="426" y="49" on="1"/>
        <pt x="426" y="0" on="1"/>
      </contour>
    </TTGlyph>
    <TTGlyph name="Emacron" xMin="82" yMin="0" xMax="426" yMax="834">
      <contour>
        <pt x="104" y="834" on="1"/>
        <pt x="397" y="834" on="1"/>
        <pt x="397" y="789" on="1"/>
        <pt x="104" y="789" on="1"/>
      </contour>
      <contour>
        <pt x="82" y="0" on="1"/>
        <pt x="82" y="655" on="1"/>
        <pt x="423" y="655" on="1"/>
        <pt x="423" y="606" on="1"/>
        <pt x="137" y="606" on="1"/>
        <pt x="137" y="358" on="1"/>
        <pt x="396" y="358" on="1"/>
        <pt x="396" y="309" on="1"/>
        <pt x="137" y="309" on="1"/>
        <pt x="137" y="49" on="1"/>
        <pt x="426" y="49" on="1"/>
        <pt x="426" y="0" on="1"/>
      </contour>
    </TTGlyph>
    <TTGlyph name="Eng" xMin="51" yMin="-188" xMax="449" yMax="655">
      <contour>
        <pt x="449" y="655" on="1"/>
        <pt x="449" y="-10" on="1"/>
        <pt x="449" y="-60" on="0"/>
        <pt x="425" y="-123" on="0"/>
        <pt x="365" y="-161" on="0"/>
        <pt x="294" y="-180" on="0"/>
        <pt x="233" y="-188" on="1"/>
        <pt x="227" y="-136" on="1"/>
        <pt x="326" y="-122" on="0"/>
        <pt x="394" y="-75" on="0"/>
        <pt x="394" y="-10" on="1"/>
        <pt x="394" y="103" on="1"/>
        <pt x="106" y="557" on="1"/>
        <pt x="106" y="0" on="1"/>
        <pt x="51" y="0" on="1"/>
        <pt x="51" y="655" on="1"/>
        <pt x="105" y="655" on="1"/>
        <pt x="394" y="196" on="1"/>
        <pt x="394" y="655" on="1"/>
      </contour>
    </TTGlyph>
    <TTGlyph name="Eogonek" xMin="82" yMin="-246" xMax="426" yMax="655">
      <contour>
        <pt x="417" y="-236" on="1"/>
        <pt x="367" y="-246" on="0"/>
        <pt x="296" y="-245" on="0"/>
        <pt x="243" y="-187" on="0"/>
        <pt x="243" y="-142" on="1"/>
        <pt x="243" y="-69" on="0"/>
        <pt x="327" y="-15" on="1"/>
        <pt x="396" y="40" on="1"/>
        <pt x="426" y="0" on="1"/>
        <pt x="360" y="-45" on="1"/>
        <pt x="328" y="-69" on="0"/>
        <pt x="292" y="-112" on="0"/>
        <pt x="292" y="-167" on="0"/>
        <pt x="323" y="-202" on="0"/>
        <pt x="384" y="-202" on="0"/>
        <pt x="411" y="-196" on="1"/>
      </contour>
      <contour>
        <pt x="82" y="0" on="1"/>
        <pt x="82" y="655" on="1"/>
        <pt x="423" y="655" on="1"/>
        <pt x="423" y="606" on="1"/>
        <pt x="137" y="606" on="1"/>
        <pt x="137" y="358" on="1"/>
        <pt x="396" y="358" on="1"/>
        <pt x="396" y="309" on="1"/>
        <pt x="137" y="309" on="1"/>
        <pt x="137" y="49" on="1"/>
        <pt x="426" y="49" on="1"/>
        <pt x="426" y="0" on="1"/>
      </contour>
    </TTGlyph>
    <TTGlyph name="Eth" xMin="26" yMin="0" xMax="458" yMax="655">
      <contour>
        <pt x="80" y="0" on="1"/>
        <pt x="80" y="303" on="1"/>
        <pt x="26" y="303" on="1"/>
        <pt x="26" y="357" on="1"/>
        <pt x="80" y="357" on="1"/>
        <pt x="80" y="655" on="1"/>
        <pt x="194" y="655" on="1"/>
        <pt x="268" y="655" on="0"/>
        <pt x="363" y="626" on="0"/>
        <pt x="429" y="552" on="0"/>
        <pt x="458" y="425" on="0"/>
        <pt x="458" y="230" on="0"/>
        <pt x="426" y="101" on="0"/>
        <pt x="356" y="29" on="0"/>
        <pt x="262" y="0" on="0"/>
        <pt x="192" y="0" on="1"/>
      </contour>
      <contour>
        <pt x="354" y="94" on="0"/>
        <pt x="399" y="215" on="0"/>
        <pt x="399" y="440" on="0"/>
        <pt x="355" y="561" on="0"/>
        <pt x="271" y="605" on="0"/>
        <pt x="194" y="605" on="1"/>
        <pt x="135" y="605" on="1"/>
        <pt x="135" y="357" on="1"/>
        <pt x="253" y="357" on="1"/>
        <pt x="253" y="303" on="1"/>
        <pt x="135" y="303" on="1"/>
        <pt x="135" y="50" on="1"/>
        <pt x="192" y="50" on="1"/>
        <pt x="269" y="50" on="0"/>
      </contour>
    </TTGlyph>
    <TTGlyph name="Euro" xMin="15" yMin="-9" xMax="449" yMax="643">
      <contour>
        <pt x="15" y="404" on="1"/>
        <pt x="63" y="404" on="1"/>
        <pt x="75" y="527" on="0"/>
        <pt x="129" y="585" on="1"/>
        <pt x="182" y="643" on="0"/>
        <pt x="370" y="643" on="0"/>
        <pt x="443" y="618" on="1"/>
        <pt x="428" y="567" on="1"/>
        <pt x="350" y="591" on="0"/>
        <pt x="210" y="591" on="0"/>
        <pt x="132" y="501" on="0"/>
        <pt x="122" y="404" on="1"/>
        <pt x="364" y="404" on="1"/>
        <pt x="364" y="360" on="1"/>
        <pt x="119" y="360" on="1"/>
        <pt x="118" y="346" on="0"/>
        <pt x="118" y="318" on="1"/>
        <pt x="118" y="285" on="1"/>
        <pt x="364" y="285" on="1"/>
        <pt x="364" y="241" on="1"/>
        <pt x="121" y="241" on="1"/>
        <pt x="132" y="136" on="0"/>
        <pt x="215" y="43" on="0"/>
        <pt x="349" y="43" on="0"/>
        <pt x="436" y="70" on="1"/>
        <pt x="449" y="19" on="1"/>
        <pt x="366" y="-9" on="0"/>
        <pt x="186" y="-9" on="0"/>
        <pt x="74" y="107" on="0"/>
        <pt x="62" y="241" on="1"/>
        <pt x="15" y="241" on="1"/>
        <pt x="15" y="285" on="1"/>
        <pt x="59" y="285" on="1"/>
        <pt x="59" y="318" on="1"/>
        <pt x="59" y="346" on="0"/>
        <pt x="60" y="360" on="1"/>
        <pt x="15" y="360" on="1"/>
      </contour>
    </TTGlyph>
    <TTGlyph name="F" xMin="86" yMin="0" xMax="428" yMax="655">
      <contour>
        <pt x="86" y="0" on="1"/>
        <pt x="86" y="655" on="1"/>
        <pt x="428" y="655" on="1"/>
        <pt x="428" y="604" on="1"/>
        <pt x="141" y="604" on="1"/>
        <pt x="141" y="318" on="1"/>
        <pt x="387" y="318" on="1"/>
        <pt x="387" y="268" on="1"/>
        <pt x="141" y="268" on="1"/>
        <pt x="141" y="0" on="1"/>
      </contour>
    </TTGlyph>
    <TTGlyph name="G" xMin="38" yMin="-10" xMax="444" yMax="665">
      <contour>
        <pt x="150" y="-10" on="0"/>
        <pt x="38" y="150" on="0"/>
        <pt x="38" y="505" on="0"/>
        <pt x="148" y="665" on="0"/>
        <pt x="272" y="665" on="1"/>
        <pt x="353" y="665" on="0"/>
        <pt x="442" y="633" on="1"/>
        <pt x="428" y="582" on="1"/>
        <pt x="337" y="613" on="0"/>
        <pt x="272" y="613" on="1"/>
        <pt x="178" y="613" on="0"/>
        <pt x="97" y="480" on="0"/>
        <pt x="97" y="179" on="0"/>
        <pt x="181" y="42" on="0"/>
        <pt x="266" y="42" on="1"/>
        <pt x="317" y="42" on="0"/>
        <pt x="389" y="66" on="1"/>
        <pt x="389" y="266" on="1"/>
        <pt x="276" y="266" on="1"/>
        <pt x="276" y="315" on="1"/>
        <pt x="444" y="315" on="1"/>
        <pt x="444" y="27" on="1"/>
        <pt x="341" y="-10" on="0"/>
        <pt x="266" y="-10" on="1"/>
      </contour>
    </TTGlyph>
    <TTGlyph name="G.001" xMin="38" yMin="-10" xMax="444" yMax="665">
      <contour>
        <pt x="150" y="-10" on="0"/>
        <pt x="38" y="150" on="0"/>
        <pt x="38" y="505" on="0"/>
        <pt x="148" y="665" on="0"/>
        <pt x="272" y="665" on="1"/>
        <pt x="353" y="665" on="0"/>
        <pt x="442" y="633" on="1"/>
        <pt x="428" y="582" on="1"/>
        <pt x="337" y="613" on="0"/>
        <pt x="272" y="613" on="1"/>
        <pt x="178" y="613" on="0"/>
        <pt x="97" y="480" on="0"/>
        <pt x="97" y="179" on="0"/>
        <pt x="181" y="42" on="0"/>
        <pt x="266" y="42" on="1"/>
        <pt x="317" y="42" on="0"/>
        <pt x="389" y="66" on="1"/>
        <pt x="389" y="315" on="1"/>
        <pt x="444" y="315" on="1"/>
        <pt x="444" y="27" on="1"/>
        <pt x="341" y="-10" on="0"/>
        <pt x="266" y="-10" on="1"/>
      </contour>
    </TTGlyph>
    <TTGlyph name="Gbreve" xMin="38" yMin="-10" xMax="444" yMax="875">
      <contour>
        <pt x="382" y="754" on="0"/>
        <pt x="138" y="754" on="0"/>
        <pt x="124" y="875" on="1"/>
        <pt x="170" y="875" on="1"/>
        <pt x="176" y="834" on="0"/>
        <pt x="217" y="796" on="0"/>
        <pt x="303" y="796" on="0"/>
        <pt x="343" y="833" on="0"/>
        <pt x="349" y="875" on="1"/>
        <pt x="396" y="875" on="1"/>
      </contour>
      <contour>
        <pt x="150" y="-10" on="0"/>
        <pt x="38" y="150" on="0"/>
        <pt x="38" y="505" on="0"/>
        <pt x="148" y="665" on="0"/>
        <pt x="272" y="665" on="1"/>
        <pt x="353" y="665" on="0"/>
        <pt x="442" y="633" on="1"/>
        <pt x="428" y="582" on="1"/>
        <pt x="337" y="613" on="0"/>
        <pt x="272" y="613" on="1"/>
        <pt x="178" y="613" on="0"/>
        <pt x="97" y="480" on="0"/>
        <pt x="97" y="179" on="0"/>
        <pt x="181" y="42" on="0"/>
        <pt x="266" y="42" on="1"/>
        <pt x="317" y="42" on="0"/>
        <pt x="389" y="66" on="1"/>
        <pt x="389" y="266" on="1"/>
        <pt x="276" y="266" on="1"/>
        <pt x="276" y="315" on="1"/>
        <pt x="444" y="315" on="1"/>
        <pt x="444" y="27" on="1"/>
        <pt x="341" y="-10" on="0"/>
        <pt x="266" y="-10" on="1"/>
      </contour>
    </TTGlyph>
    <TTGlyph name="Gcircumflex" xMin="38" yMin="-10" xMax="444" yMax="882">
      <contour>
        <pt x="117" y="752" on="1"/>
        <pt x="243" y="882" on="1"/>
        <pt x="283" y="882" on="1"/>
        <pt x="409" y="752" on="1"/>
        <pt x="351" y="752" on="1"/>
        <pt x="263" y="842" on="1"/>
        <pt x="175" y="752" on="1"/>
      </contour>
      <contour>
        <pt x="150" y="-10" on="0"/>
        <pt x="38" y="150" on="0"/>
        <pt x="38" y="505" on="0"/>
        <pt x="148" y="665" on="0"/>
        <pt x="272" y="665" on="1"/>
        <pt x="353" y="665" on="0"/>
        <pt x="442" y="633" on="1"/>
        <pt x="428" y="582" on="1"/>
        <pt x="337" y="613" on="0"/>
        <pt x="272" y="613" on="1"/>
        <pt x="178" y="613" on="0"/>
        <pt x="97" y="480" on="0"/>
        <pt x="97" y="179" on="0"/>
        <pt x="181" y="42" on="0"/>
        <pt x="266" y="42" on="1"/>
        <pt x="317" y="42" on="0"/>
        <pt x="389" y="66" on="1"/>
        <pt x="389" y="266" on="1"/>
        <pt x="276" y="266" on="1"/>
        <pt x="276" y="315" on="1"/>
        <pt x="444" y="315" on="1"/>
        <pt x="444" y="27" on="1"/>
        <pt x="341" y="-10" on="0"/>
        <pt x="266" y="-10" on="1"/>
      </contour>
    </TTGlyph>
    <TTGlyph name="Gcommaaccent" xMin="38" yMin="-229" xMax="444" yMax="665">
      <contour>
        <pt x="236" y="-207" on="1"/>
        <pt x="261" y="-182" on="0"/>
        <pt x="261" y="-158" on="1"/>
        <pt x="261" y="-150" on="1"/>
        <pt x="237" y="-150" on="1"/>
        <pt x="237" y="-72" on="1"/>
        <pt x="304" y="-72" on="1"/>
        <pt x="304" y="-123" on="1"/>
        <pt x="304" y="-162" on="0"/>
        <pt x="287" y="-206" on="0"/>
        <pt x="258" y="-229" on="1"/>
      </contour>
      <contour>
        <pt x="150" y="-10" on="0"/>
        <pt x="38" y="150" on="0"/>
        <pt x="38" y="505" on="0"/>
        <pt x="148" y="665" on="0"/>
        <pt x="272" y="665" on="1"/>
        <pt x="353" y="665" on="0"/>
        <pt x="442" y="633" on="1"/>
        <pt x="428" y="582" on="1"/>
        <pt x="337" y="613" on="0"/>
        <pt x="272" y="613" on="1"/>
        <pt x="178" y="613" on="0"/>
        <pt x="97" y="480" on="0"/>
        <pt x="97" y="179" on="0"/>
        <pt x="181" y="42" on="0"/>
        <pt x="266" y="42" on="1"/>
        <pt x="317" y="42" on="0"/>
        <pt x="389" y="66" on="1"/>
        <pt x="389" y="266" on="1"/>
        <pt x="276" y="266" on="1"/>
        <pt x="276" y="315" on="1"/>
        <pt x="444" y="315" on="1"/>
        <pt x="444" y="27" on="1"/>
        <pt x="341" y="-10" on="0"/>
        <pt x="266" y="-10" on="1"/>
      </contour>
    </TTGlyph>
    <TTGlyph name="Gdotaccent" xMin="38" yMin="-10" xMax="444" yMax="849">
      <contour>
        <pt x="233" y="797" on="0"/>
        <pt x="233" y="827" on="0"/>
        <pt x="254" y="849" on="0"/>
        <pt x="285" y="849" on="0"/>
        <pt x="306" y="827" on="0"/>
        <pt x="306" y="797" on="0"/>
        <pt x="285" y="775" on="0"/>
        <pt x="254" y="775" on="0"/>
      </contour>
      <contour>
        <pt x="150" y="-10" on="0"/>
        <pt x="38" y="150" on="0"/>
        <pt x="38" y="505" on="0"/>
        <pt x="148" y="665" on="0"/>
        <pt x="272" y="665" on="1"/>
        <pt x="353" y="665" on="0"/>
        <pt x="442" y="633" on="1"/>
        <pt x="428" y="582" on="1"/>
        <pt x="337" y="613" on="0"/>
        <pt x="272" y="613" on="1"/>
        <pt x="178" y="613" on="0"/>
        <pt x="97" y="480" on="0"/>
        <pt x="97" y="179" on="0"/>
        <pt x="181" y="42" on="0"/>
        <pt x="266" y="42" on="1"/>
        <pt x="317" y="42" on="0"/>
        <pt x="389" y="66" on="1"/>
        <pt x="389" y="266" on="1"/>
        <pt x="276" y="266" on="1"/>
        <pt x="276" y="315" on="1"/>
        <pt x="444" y="315" on="1"/>
        <pt x="444" y="27" on="1"/>
        <pt x="341" y="-10" on="0"/>
        <pt x="266" y="-10" on="1"/>
      </contour>
    </TTGlyph>
    <TTGlyph name="H" xMin="54" yMin="0" xMax="446" yMax="655">
      <contour>
        <pt x="54" y="0" on="1"/>
        <pt x="54" y="655" on="1"/>
        <pt x="109" y="655" on="1"/>
        <pt x="109" y="351" on="1"/>
        <pt x="391" y="351" on="1"/>
        <pt x="391" y="655" on="1"/>
        <pt x="446" y="655" on="1"/>
        <pt x="446" y="0" on="1"/>
        <pt x="391" y="0" on="1"/>
        <pt x="391" y="300" on="1"/>
        <pt x="109" y="300" on="1"/>
        <pt x="109" y="0" on="1"/>
      </contour>
    </TTGlyph>
    <TTGlyph name="Hbar" xMin="0" yMin="0" xMax="500" yMax="655">
      <contour>
        <pt x="0" y="513" on="1"/>
        <pt x="500" y="513" on="1"/>
        <pt x="500" y="472" on="1"/>
        <pt x="0" y="472" on="1"/>
      </contour>
      <contour>
        <pt x="54" y="0" on="1"/>
        <pt x="54" y="655" on="1"/>
        <pt x="109" y="655" on="1"/>
        <pt x="109" y="351" on="1"/>
        <pt x="391" y="351" on="1"/>
        <pt x="391" y="655" on="1"/>
        <pt x="446" y="655" on="1"/>
        <pt x="446" y="0" on="1"/>
        <pt x="391" y="0" on="1"/>
        <pt x="391" y="300" on="1"/>
        <pt x="109" y="300" on="1"/>
        <pt x="109" y="0" on="1"/>
      </contour>
    </TTGlyph>
    <TTGlyph name="Hcircumflex" xMin="54" yMin="0" xMax="446" yMax="882">
      <contour>
        <pt x="104" y="752" on="1"/>
        <pt x="230" y="882" on="1"/>
        <pt x="270" y="882" on="1"/>
        <pt x="396" y="752" on="1"/>
        <pt x="338" y="752" on="1"/>
        <pt x="250" y="842" on="1"/>
        <pt x="162" y="752" on="1"/>
      </contour>
      <contour>
        <pt x="54" y="0" on="1"/>
        <pt x="54" y="655" on="1"/>
        <pt x="109" y="655" on="1"/>
        <pt x="109" y="351" on="1"/>
        <pt x="391" y="351" on="1"/>
        <pt x="391" y="655" on="1"/>
        <pt x="446" y="655" on="1"/>
        <pt x="446" y="0" on="1"/>
        <pt x="391" y="0" on="1"/>
        <pt x="391" y="300" on="1"/>
        <pt x="109" y="300" on="1"/>
        <pt x="109" y="0" on="1"/>
      </contour>
    </TTGlyph>
    <TTGlyph name="I" xMin="111" yMin="0" xMax="390" yMax="655">
      <contour>
        <pt x="111" y="0" on="1"/>
        <pt x="111" y="50" on="1"/>
        <pt x="224" y="50" on="1"/>
        <pt x="224" y="605" on="1"/>
        <pt x="111" y="605" on="1"/>
        <pt x="111" y="655" on="1"/>
        <pt x="390" y="655" on="1"/>
        <pt x="390" y="605" on="1"/>
        <pt x="279" y="605" on="1"/>
        <pt x="279" y="50" on="1"/>
        <pt x="390" y="50" on="1"/>
        <pt x="390" y="0" on="1"/>
      </contour>
    </TTGlyph>
    <TTGlyph name="I.001" xMin="0" yMin="210" xMax="506" yMax="265">
      <contour>
        <pt x="0" y="210" on="1"/>
        <pt x="0" y="265" on="1"/>
        <pt x="506" y="265" on="1"/>
        <pt x="506" y="210" on="1"/>
      </contour>
    </TTGlyph>
    <TTGlyph name="I.001.bi" xMin="98" yMin="0" xMax="153" yMax="655">
      <contour>
        <pt x="153" y="655" on="1"/>
        <pt x="153" y="0" on="1"/>
        <pt x="98" y="0" on="1"/>
        <pt x="98" y="655" on="1"/>
      </contour>
    </TTGlyph>
    <TTGlyph name="I.bi" xMin="20" yMin="0" xMax="229" yMax="655">
      <contour>
        <pt x="153" y="605" on="1"/>
        <pt x="153" y="50" on="1"/>
        <pt x="229" y="50" on="1"/>
        <pt x="229" y="0" on="1"/>
        <pt x="20" y="0" on="1"/>
        <pt x="20" y="50" on="1"/>
        <pt x="98" y="50" on="1"/>
        <pt x="98" y="605" on="1"/>
        <pt x="20" y="605" on="1"/>
        <pt x="20" y="655" on="1"/>
        <pt x="229" y="655" on="1"/>
        <pt x="229" y="605" on="1"/>
      </contour>
    </TTGlyph>
    <TTGlyph name="I.swsh" xMin="95" yMin="0" xMax="384" yMax="655">
      <contour>
        <pt x="275" y="605" on="1"/>
        <pt x="275" y="50" on="1"/>
        <pt x="384" y="50" on="1"/>
        <pt x="384" y="0" on="1"/>
        <pt x="155" y="0" on="1"/>
        <pt x="155" y="50" on="1"/>
        <pt x="217" y="50" on="1"/>
        <pt x="217" y="605" on="1"/>
        <pt x="95" y="605" on="1"/>
        <pt x="95" y="655" on="1"/>
        <pt x="337" y="655" on="1"/>
        <pt x="337" y="605" on="1"/>
      </contour>
    </TTGlyph>
    <TTGlyph name="I_J" xMin="43" yMin="-10" xMax="469" yMax="655">
      <contour>
        <pt x="146" y="237" on="1"/>
        <pt x="146" y="609" on="1"/>
        <pt x="43" y="609" on="1"/>
        <pt x="43" y="655" on="1"/>
        <pt x="292" y="655" on="1"/>
        <pt x="292" y="609" on="1"/>
        <pt x="199" y="609" on="1"/>
        <pt x="199" y="237" on="1"/>
        <pt x="292" y="237" on="1"/>
        <pt x="292" y="191" on="1"/>
        <pt x="43" y="191" on="1"/>
        <pt x="43" y="237" on="1"/>
      </contour>
      <contour>
        <pt x="414" y="655" on="1"/>
        <pt x="469" y="655" on="1"/>
        <pt x="469" y="178" on="1"/>
        <pt x="469" y="82" on="0"/>
        <pt x="340" y="7" on="0"/>
        <pt x="178" y="-10" on="1"/>
        <pt x="171" y="42" on="1"/>
        <pt x="310" y="57" on="0"/>
        <pt x="414" y="110" on="0"/>
        <pt x="414" y="178" on="1"/>
      </contour>
    </TTGlyph>
    <TTGlyph name="Iacute" xMin="111" yMin="0" xMax="390" yMax="882">
      <contour>
        <pt x="141" y="794" on="1"/>
        <pt x="345" y="882" on="1"/>
        <pt x="364" y="836" on="1"/>
        <pt x="158" y="752" on="1"/>
      </contour>
      <contour>
        <pt x="111" y="0" on="1"/>
        <pt x="111" y="50" on="1"/>
        <pt x="224" y="50" on="1"/>
        <pt x="224" y="605" on="1"/>
        <pt x="111" y="605" on="1"/>
        <pt x="111" y="655" on="1"/>
        <pt x="390" y="655" on="1"/>
        <pt x="390" y="605" on="1"/>
        <pt x="279" y="605" on="1"/>
        <pt x="279" y="50" on="1"/>
        <pt x="390" y="50" on="1"/>
        <pt x="390" y="0" on="1"/>
      </contour>
    </TTGlyph>
    <TTGlyph name="Ibreve" xMin="111" yMin="0" xMax="390" yMax="875">
      <contour>
        <pt x="373" y="754" on="0"/>
        <pt x="129" y="754" on="0"/>
        <pt x="115" y="875" on="1"/>
        <pt x="161" y="875" on="1"/>
        <pt x="167" y="834" on="0"/>
        <pt x="208" y="796" on="0"/>
        <pt x="294" y="796" on="0"/>
        <pt x="334" y="833" on="0"/>
        <pt x="340" y="875" on="1"/>
        <pt x="387" y="875" on="1"/>
      </contour>
      <contour>
        <pt x="111" y="0" on="1"/>
        <pt x="111" y="50" on="1"/>
        <pt x="224" y="50" on="1"/>
        <pt x="224" y="605" on="1"/>
        <pt x="111" y="605" on="1"/>
        <pt x="111" y="655" on="1"/>
        <pt x="390" y="655" on="1"/>
        <pt x="390" y="605" on="1"/>
        <pt x="279" y="605" on="1"/>
        <pt x="279" y="50" on="1"/>
        <pt x="390" y="50" on="1"/>
        <pt x="390" y="0" on="1"/>
      </contour>
    </TTGlyph>
    <TTGlyph name="Icircumflex" xMin="107" yMin="0" xMax="399" yMax="882">
      <contour>
        <pt x="107" y="752" on="1"/>
        <pt x="233" y="882" on="1"/>
        <pt x="273" y="882" on="1"/>
        <pt x="399" y="752" on="1"/>
        <pt x="341" y="752" on="1"/>
        <pt x="253" y="842" on="1"/>
        <pt x="165" y="752" on="1"/>
      </contour>
      <contour>
        <pt x="111" y="0" on="1"/>
        <pt x="111" y="50" on="1"/>
        <pt x="224" y="50" on="1"/>
        <pt x="224" y="605" on="1"/>
        <pt x="111" y="605" on="1"/>
        <pt x="111" y="655" on="1"/>
        <pt x="390" y="655" on="1"/>
        <pt x="390" y="605" on="1"/>
        <pt x="279" y="605" on="1"/>
        <pt x="279" y="50" on="1"/>
        <pt x="390" y="50" on="1"/>
        <pt x="390" y="0" on="1"/>
      </contour>
    </TTGlyph>
    <TTGlyph name="Idieresis" xMin="111" yMin="0" xMax="390" yMax="849">
      <contour>
        <pt x="117" y="797" on="0"/>
        <pt x="117" y="827" on="0"/>
        <pt x="137" y="849" on="0"/>
        <pt x="169" y="849" on="0"/>
        <pt x="189" y="827" on="0"/>
        <pt x="189" y="797" on="0"/>
        <pt x="169" y="775" on="0"/>
        <pt x="137" y="775" on="0"/>
      </contour>
      <contour>
        <pt x="310" y="797" on="0"/>
        <pt x="310" y="827" on="0"/>
        <pt x="320" y="838" on="1"/>
        <pt x="330" y="849" on="0"/>
        <pt x="362" y="849" on="0"/>
        <pt x="383" y="827" on="0"/>
        <pt x="383" y="797" on="0"/>
        <pt x="362" y="775" on="0"/>
        <pt x="330" y="775" on="0"/>
      </contour>
      <contour>
        <pt x="111" y="0" on="1"/>
        <pt x="111" y="50" on="1"/>
        <pt x="224" y="50" on="1"/>
        <pt x="224" y="605" on="1"/>
        <pt x="111" y="605" on="1"/>
        <pt x="111" y="655" on="1"/>
        <pt x="390" y="655" on="1"/>
        <pt x="390" y="605" on="1"/>
        <pt x="279" y="605" on="1"/>
        <pt x="279" y="50" on="1"/>
        <pt x="390" y="50" on="1"/>
        <pt x="390" y="0" on="1"/>
      </contour>
    </TTGlyph>
    <TTGlyph name="Idotaccent" xMin="111" yMin="0" xMax="390" yMax="849">
      <contour>
        <pt x="213" y="797" on="0"/>
        <pt x="213" y="827" on="0"/>
        <pt x="234" y="849" on="0"/>
        <pt x="266" y="849" on="0"/>
        <pt x="286" y="827" on="0"/>
        <pt x="286" y="797" on="0"/>
        <pt x="276" y="786" on="1"/>
        <pt x="266" y="775" on="0"/>
        <pt x="234" y="775" on="0"/>
      </contour>
      <contour>
        <pt x="111" y="0" on="1"/>
        <pt x="111" y="50" on="1"/>
        <pt x="224" y="50" on="1"/>
        <pt x="224" y="605" on="1"/>
        <pt x="111" y="605" on="1"/>
        <pt x="111" y="655" on="1"/>
        <pt x="390" y="655" on="1"/>
        <pt x="390" y="605" on="1"/>
        <pt x="279" y="605" on="1"/>
        <pt x="279" y="50" on="1"/>
        <pt x="390" y="50" on="1"/>
        <pt x="390" y="0" on="1"/>
      </contour>
    </TTGlyph>
    <TTGlyph name="Igrave" xMin="111" yMin="0" xMax="390" yMax="883">
      <contour>
        <pt x="151" y="883" on="1"/>
        <pt x="355" y="795" on="1"/>
        <pt x="338" y="753" on="1"/>
        <pt x="132" y="837" on="1"/>
      </contour>
      <contour>
        <pt x="111" y="0" on="1"/>
        <pt x="111" y="50" on="1"/>
        <pt x="224" y="50" on="1"/>
        <pt x="224" y="605" on="1"/>
        <pt x="111" y="605" on="1"/>
        <pt x="111" y="655" on="1"/>
        <pt x="390" y="655" on="1"/>
        <pt x="390" y="605" on="1"/>
        <pt x="279" y="605" on="1"/>
        <pt x="279" y="50" on="1"/>
        <pt x="390" y="50" on="1"/>
        <pt x="390" y="0" on="1"/>
      </contour>
    </TTGlyph>
    <TTGlyph name="Imacron" xMin="104" yMin="0" xMax="397" yMax="834">
      <contour>
        <pt x="104" y="834" on="1"/>
        <pt x="397" y="834" on="1"/>
        <pt x="397" y="789" on="1"/>
        <pt x="104" y="789" on="1"/>
      </contour>
      <contour>
        <pt x="111" y="0" on="1"/>
        <pt x="111" y="50" on="1"/>
        <pt x="224" y="50" on="1"/>
        <pt x="224" y="605" on="1"/>
        <pt x="111" y="605" on="1"/>
        <pt x="111" y="655" on="1"/>
        <pt x="390" y="655" on="1"/>
        <pt x="390" y="605" on="1"/>
        <pt x="279" y="605" on="1"/>
        <pt x="279" y="50" on="1"/>
        <pt x="390" y="50" on="1"/>
        <pt x="390" y="0" on="1"/>
      </contour>
    </TTGlyph>
    <TTGlyph name="Iogonek" xMin="111" yMin="-246" xMax="390" yMax="655">
      <contour>
        <pt x="381" y="-236" on="1"/>
        <pt x="331" y="-246" on="0"/>
        <pt x="260" y="-245" on="0"/>
        <pt x="207" y="-187" on="0"/>
        <pt x="207" y="-142" on="1"/>
        <pt x="207" y="-69" on="0"/>
        <pt x="291" y="-15" on="1"/>
        <pt x="360" y="40" on="1"/>
        <pt x="390" y="0" on="1"/>
        <pt x="324" y="-45" on="1"/>
        <pt x="292" y="-69" on="0"/>
        <pt x="256" y="-112" on="0"/>
        <pt x="256" y="-167" on="0"/>
        <pt x="287" y="-202" on="0"/>
        <pt x="348" y="-202" on="0"/>
        <pt x="375" y="-196" on="1"/>
      </contour>
      <contour>
        <pt x="111" y="0" on="1"/>
        <pt x="111" y="50" on="1"/>
        <pt x="224" y="50" on="1"/>
        <pt x="224" y="605" on="1"/>
        <pt x="111" y="605" on="1"/>
        <pt x="111" y="655" on="1"/>
        <pt x="390" y="655" on="1"/>
        <pt x="390" y="605" on="1"/>
        <pt x="279" y="605" on="1"/>
        <pt x="279" y="50" on="1"/>
        <pt x="390" y="50" on="1"/>
        <pt x="390" y="0" on="1"/>
      </contour>
    </TTGlyph>
    <TTGlyph name="Itilde" xMin="95" yMin="0" xMax="404" yMax="872">
      <contour>
        <pt x="379" y="859" on="1"/>
        <pt x="404" y="826" on="1"/>
        <pt x="354" y="771" on="0"/>
        <pt x="286" y="771" on="0"/>
        <pt x="248" y="798" on="1"/>
        <pt x="210" y="825" on="0"/>
        <pt x="166" y="825" on="0"/>
        <pt x="123" y="784" on="1"/>
        <pt x="95" y="818" on="1"/>
        <pt x="152" y="872" on="0"/>
        <pt x="224" y="872" on="0"/>
        <pt x="300" y="819" on="0"/>
        <pt x="336" y="819" on="0"/>
      </contour>
      <contour>
        <pt x="111" y="0" on="1"/>
        <pt x="111" y="50" on="1"/>
        <pt x="224" y="50" on="1"/>
        <pt x="224" y="605" on="1"/>
        <pt x="111" y="605" on="1"/>
        <pt x="111" y="655" on="1"/>
        <pt x="390" y="655" on="1"/>
        <pt x="390" y="605" on="1"/>
        <pt x="279" y="605" on="1"/>
        <pt x="279" y="50" on="1"/>
        <pt x="390" y="50" on="1"/>
        <pt x="390" y="0" on="1"/>
      </contour>
    </TTGlyph>
    <TTGlyph name="J" xMin="58" yMin="-11" xMax="363" yMax="655">
      <contour>
        <pt x="312" y="605" on="1"/>
        <pt x="312" y="215" on="1"/>
        <pt x="312" y="79" on="0"/>
        <pt x="265" y="-10" on="0"/>
        <pt x="178" y="-11" on="1"/>
        <pt x="161" y="-11" on="0"/>
        <pt x="77" y="1" on="0"/>
        <pt x="58" y="6" on="1"/>
        <pt x="69" y="58" on="1"/>
        <pt x="137" y="41" on="0"/>
        <pt x="229" y="41" on="0"/>
        <pt x="257" y="102" on="0"/>
        <pt x="257" y="218" on="1"/>
        <pt x="257" y="605" on="1"/>
        <pt x="96" y="605" on="1"/>
        <pt x="96" y="655" on="1"/>
        <pt x="363" y="655" on="1"/>
        <pt x="363" y="605" on="1"/>
      </contour>
    </TTGlyph>
    <TTGlyph name="J.001" xMin="0" yMin="210" xMax="500" yMax="409">
      <contour>
        <pt x="472" y="409" on="1"/>
        <pt x="500" y="360" on="1"/>
        <pt x="396" y="288" on="0"/>
        <pt x="172" y="210" on="0"/>
        <pt x="22" y="210" on="1"/>
        <pt x="0" y="210" on="1"/>
        <pt x="0" y="265" on="1"/>
        <pt x="22" y="265" on="1"/>
        <pt x="166" y="265" on="0"/>
        <pt x="372" y="341" on="0"/>
      </contour>
    </TTGlyph>
    <TTGlyph name="J.001.bi" xMin="13" yMin="-11" xMax="247" yMax="655">
      <contour>
        <pt x="202" y="605" on="1"/>
        <pt x="202" y="215" on="1"/>
        <pt x="202" y="73" on="0"/>
        <pt x="156" y="-11" on="0"/>
        <pt x="68" y="-11" on="1"/>
        <pt x="13" y="-4" on="1"/>
        <pt x="19" y="47" on="1"/>
        <pt x="50" y="41" on="0"/>
        <pt x="67" y="41" on="1"/>
        <pt x="119" y="41" on="0"/>
        <pt x="147" y="102" on="0"/>
        <pt x="147" y="218" on="1"/>
        <pt x="147" y="605" on="1"/>
        <pt x="36" y="605" on="1"/>
        <pt x="36" y="655" on="1"/>
        <pt x="247" y="655" on="1"/>
        <pt x="247" y="605" on="1"/>
      </contour>
    </TTGlyph>
    <TTGlyph name="J.002.bi" xMin="43" yMin="-11" xMax="202" yMax="655">
      <contour>
        <pt x="202" y="655" on="1"/>
        <pt x="202" y="215" on="1"/>
        <pt x="202" y="74" on="0"/>
        <pt x="161" y="-11" on="0"/>
        <pt x="88" y="-11" on="1"/>
        <pt x="43" y="-8" on="1"/>
        <pt x="47" y="43" on="1"/>
        <pt x="70" y="41" on="0"/>
        <pt x="92" y="41" on="1"/>
        <pt x="112" y="41" on="0"/>
        <pt x="124" y="53" on="1"/>
        <pt x="146" y="76" on="0"/>
        <pt x="147" y="218" on="1"/>
        <pt x="147" y="655" on="1"/>
      </contour>
    </TTGlyph>
    <TTGlyph name="J.bi" xMin="13" yMin="-11" xMax="202" yMax="655">
      <contour>
        <pt x="202" y="655" on="1"/>
        <pt x="202" y="215" on="1"/>
        <pt x="202" y="73" on="0"/>
        <pt x="156" y="-11" on="0"/>
        <pt x="68" y="-11" on="1"/>
        <pt x="13" y="-4" on="1"/>
        <pt x="19" y="47" on="1"/>
        <pt x="50" y="41" on="0"/>
        <pt x="67" y="41" on="1"/>
        <pt x="119" y="41" on="0"/>
        <pt x="147" y="102" on="0"/>
        <pt x="147" y="218" on="1"/>
        <pt x="147" y="605" on="1"/>
        <pt x="36" y="605" on="1"/>
        <pt x="36" y="655" on="1"/>
      </contour>
    </TTGlyph>
    <TTGlyph name="J.bi.sc" xMin="30" yMin="-8" xMax="225" yMax="498">
      <contour>
        <pt x="188" y="455" on="1"/>
        <pt x="188" y="170" on="1"/>
        <pt x="188" y="58" on="0"/>
        <pt x="149" y="-8" on="0"/>
        <pt x="75" y="-8" on="1"/>
        <pt x="30" y="-3" on="1"/>
        <pt x="35" y="41" on="1"/>
        <pt x="61" y="37" on="0"/>
        <pt x="75" y="37" on="1"/>
        <pt x="115" y="37" on="0"/>
        <pt x="136" y="81" on="0"/>
        <pt x="136" y="172" on="1"/>
        <pt x="136" y="455" on="1"/>
        <pt x="48" y="455" on="1"/>
        <pt x="48" y="498" on="1"/>
        <pt x="225" y="498" on="1"/>
        <pt x="225" y="455" on="1"/>
      </contour>
    </TTGlyph>
    <TTGlyph name="J.calt" xMin="95" yMin="-10" xMax="404" yMax="635">
      <contour>
        <pt x="95" y="585" on="1"/>
        <pt x="95" y="635" on="1"/>
        <pt x="404" y="635" on="1"/>
        <pt x="404" y="178" on="1"/>
        <pt x="404" y="82" on="0"/>
        <pt x="275" y="7" on="0"/>
        <pt x="113" y="-10" on="1"/>
        <pt x="106" y="42" on="1"/>
        <pt x="245" y="57" on="0"/>
        <pt x="349" y="110" on="0"/>
        <pt x="349" y="178" on="1"/>
        <pt x="349" y="585" on="1"/>
      </contour>
    </TTGlyph>
    <TTGlyph name="Jcircumflex" xMin="58" yMin="-11" xMax="382" yMax="882">
      <contour>
        <pt x="90" y="752" on="1"/>
        <pt x="216" y="882" on="1"/>
        <pt x="256" y="882" on="1"/>
        <pt x="382" y="752" on="1"/>
        <pt x="324" y="752" on="1"/>
        <pt x="236" y="842" on="1"/>
        <pt x="148" y="752" on="1"/>
      </contour>
      <contour>
        <pt x="312" y="605" on="1"/>
        <pt x="312" y="215" on="1"/>
        <pt x="312" y="79" on="0"/>
        <pt x="265" y="-10" on="0"/>
        <pt x="178" y="-11" on="1"/>
        <pt x="161" y="-11" on="0"/>
        <pt x="77" y="1" on="0"/>
        <pt x="58" y="6" on="1"/>
        <pt x="69" y="58" on="1"/>
        <pt x="137" y="41" on="0"/>
        <pt x="229" y="41" on="0"/>
        <pt x="257" y="102" on="0"/>
        <pt x="257" y="218" on="1"/>
        <pt x="257" y="605" on="1"/>
        <pt x="96" y="605" on="1"/>
        <pt x="96" y="655" on="1"/>
        <pt x="363" y="655" on="1"/>
        <pt x="363" y="605" on="1"/>
      </contour>
    </TTGlyph>
    <TTGlyph name="K" xMin="71" yMin="0" xMax="460" yMax="655">
      <contour>
        <pt x="390" y="655" on="1"/>
        <pt x="453" y="655" on="1"/>
        <pt x="353" y="455" on="0"/>
        <pt x="274" y="337" on="1"/>
        <pt x="304" y="292" on="0"/>
        <pt x="350" y="208" on="1"/>
        <pt x="460" y="0" on="1"/>
        <pt x="393" y="0" on="1"/>
        <pt x="281" y="219" on="0"/>
        <pt x="227" y="305" on="1"/>
        <pt x="126" y="295" on="1"/>
        <pt x="126" y="0" on="1"/>
        <pt x="71" y="0" on="1"/>
        <pt x="71" y="655" on="1"/>
        <pt x="126" y="655" on="1"/>
        <pt x="126" y="346" on="1"/>
        <pt x="223" y="356" on="1"/>
        <pt x="294" y="464" on="0"/>
        <pt x="364" y="604" on="1"/>
      </contour>
    </TTGlyph>
    <TTGlyph name="K.001" xMin="0" yMin="66" xMax="500" yMax="265">
      <contour>
        <pt x="500" y="115" on="1"/>
        <pt x="472" y="66" on="1"/>
        <pt x="372" y="134" on="0"/>
        <pt x="166" y="210" on="0"/>
        <pt x="22" y="210" on="1"/>
        <pt x="0" y="210" on="1"/>
        <pt x="0" y="265" on="1"/>
        <pt x="22" y="265" on="1"/>
        <pt x="172" y="265" on="0"/>
        <pt x="396" y="187" on="0"/>
      </contour>
    </TTGlyph>
    <TTGlyph name="K.calt" xMin="71" yMin="0" xMax="460" yMax="655">
      <contour>
        <pt x="71" y="0" on="1"/>
        <pt x="71" y="655" on="1"/>
        <pt x="126" y="655" on="1"/>
        <pt x="126" y="346" on="1"/>
        <pt x="223" y="356" on="1"/>
        <pt x="308" y="480" on="0"/>
        <pt x="370" y="610" on="1"/>
        <pt x="391" y="655" on="1"/>
        <pt x="452" y="655" on="1"/>
        <pt x="366" y="477" on="0"/>
        <pt x="273" y="336" on="1"/>
        <pt x="354" y="208" on="0"/>
        <pt x="432" y="54" on="1"/>
        <pt x="460" y="0" on="1"/>
        <pt x="396" y="0" on="1"/>
        <pt x="314" y="175" on="0"/>
        <pt x="228" y="305" on="1"/>
        <pt x="126" y="295" on="1"/>
        <pt x="126" y="0" on="1"/>
      </contour>
    </TTGlyph>
    <TTGlyph name="Kcommaaccent" xMin="71" yMin="-229" xMax="460" yMax="655">
      <contour>
        <pt x="216" y="-207" on="1"/>
        <pt x="241" y="-182" on="0"/>
        <pt x="241" y="-158" on="1"/>
        <pt x="241" y="-150" on="1"/>
        <pt x="217" y="-150" on="1"/>
        <pt x="217" y="-72" on="1"/>
        <pt x="284" y="-72" on="1"/>
        <pt x="284" y="-123" on="1"/>
        <pt x="284" y="-162" on="0"/>
        <pt x="267" y="-206" on="0"/>
        <pt x="238" y="-229" on="1"/>
      </contour>
      <contour>
        <pt x="390" y="655" on="1"/>
        <pt x="453" y="655" on="1"/>
        <pt x="353" y="455" on="0"/>
        <pt x="274" y="337" on="1"/>
        <pt x="304" y="292" on="0"/>
        <pt x="350" y="208" on="1"/>
        <pt x="350" y="208" on="0"/>
        <pt x="460" y="0" on="1"/>
        <pt x="393" y="0" on="1"/>
        <pt x="281" y="219" on="0"/>
        <pt x="227" y="305" on="1"/>
        <pt x="126" y="295" on="1"/>
        <pt x="126" y="0" on="1"/>
        <pt x="71" y="0" on="1"/>
        <pt x="71" y="655" on="1"/>
        <pt x="126" y="655" on="1"/>
        <pt x="126" y="346" on="1"/>
        <pt x="223" y="356" on="1"/>
        <pt x="294" y="464" on="0"/>
        <pt x="364" y="604" on="1"/>
      </contour>
    </TTGlyph>
    <TTGlyph name="L" xMin="91" yMin="0" xMax="419" yMax="655">
      <contour>
        <pt x="419" y="51" on="1"/>
        <pt x="419" y="0" on="1"/>
        <pt x="91" y="0" on="1"/>
        <pt x="91" y="655" on="1"/>
        <pt x="146" y="655" on="1"/>
        <pt x="146" y="51" on="1"/>
      </contour>
    </TTGlyph>
    <TTGlyph name="L.001" xMin="0" yMin="210" xMax="1000" yMax="409">
      <contour>
        <pt x="972" y="409" on="1"/>
        <pt x="1000" y="360" on="1"/>
        <pt x="896" y="288" on="0"/>
        <pt x="672" y="210" on="0"/>
        <pt x="522" y="210" on="1"/>
        <pt x="0" y="210" on="1"/>
        <pt x="0" y="265" on="1"/>
        <pt x="522" y="265" on="1"/>
        <pt x="666" y="265" on="0"/>
        <pt x="872" y="341" on="0"/>
      </contour>
    </TTGlyph>
    <TTGlyph name="L_I" xMin="66" yMin="0" xMax="464" yMax="655">
      <contour>
        <pt x="464" y="50" on="1"/>
        <pt x="464" y="0" on="1"/>
        <pt x="66" y="0" on="1"/>
        <pt x="66" y="655" on="1"/>
        <pt x="120" y="655" on="1"/>
        <pt x="120" y="50" on="1"/>
      </contour>
      <contour>
        <pt x="372" y="609" on="1"/>
        <pt x="372" y="237" on="1"/>
        <pt x="464" y="237" on="1"/>
        <pt x="464" y="191" on="1"/>
        <pt x="235" y="191" on="1"/>
        <pt x="235" y="237" on="1"/>
        <pt x="319" y="237" on="1"/>
        <pt x="319" y="609" on="1"/>
        <pt x="235" y="609" on="1"/>
        <pt x="235" y="655" on="1"/>
        <pt x="464" y="655" on="1"/>
        <pt x="464" y="609" on="1"/>
      </contour>
    </TTGlyph>
    <TTGlyph name="Lacute" xMin="91" yMin="0" xMax="419" yMax="882">
      <contour>
        <pt x="144" y="794" on="1"/>
        <pt x="348" y="882" on="1"/>
        <pt x="367" y="836" on="1"/>
        <pt x="161" y="752" on="1"/>
      </contour>
      <contour>
        <pt x="419" y="51" on="1"/>
        <pt x="419" y="0" on="1"/>
        <pt x="91" y="0" on="1"/>
        <pt x="91" y="655" on="1"/>
        <pt x="146" y="655" on="1"/>
        <pt x="146" y="51" on="1"/>
      </contour>
    </TTGlyph>
    <TTGlyph name="Lcaron" xMin="91" yMin="0" xMax="419" yMax="682">
      <contour>
        <pt x="315" y="599" on="1"/>
        <pt x="315" y="682" on="1"/>
        <pt x="389" y="682" on="1"/>
        <pt x="389" y="623" on="1"/>
        <pt x="389" y="557" on="0"/>
        <pt x="328" y="490" on="1"/>
        <pt x="307" y="510" on="1"/>
        <pt x="307" y="510" on="0"/>
        <pt x="328" y="542" on="1"/>
        <pt x="345" y="567" on="0"/>
        <pt x="347" y="599" on="1"/>
      </contour>
      <contour>
        <pt x="419" y="51" on="1"/>
        <pt x="419" y="0" on="1"/>
        <pt x="91" y="0" on="1"/>
        <pt x="91" y="655" on="1"/>
        <pt x="146" y="655" on="1"/>
        <pt x="146" y="51" on="1"/>
      </contour>
    </TTGlyph>
    <TTGlyph name="Lcommaaccent" xMin="91" yMin="-229" xMax="419" yMax="655">
      <contour>
        <pt x="216" y="-207" on="1"/>
        <pt x="241" y="-182" on="0"/>
        <pt x="241" y="-158" on="1"/>
        <pt x="241" y="-150" on="1"/>
        <pt x="217" y="-150" on="1"/>
        <pt x="217" y="-72" on="1"/>
        <pt x="284" y="-72" on="1"/>
        <pt x="284" y="-123" on="1"/>
        <pt x="284" y="-162" on="0"/>
        <pt x="267" y="-206" on="0"/>
        <pt x="238" y="-229" on="1"/>
      </contour>
      <contour>
        <pt x="419" y="51" on="1"/>
        <pt x="419" y="0" on="1"/>
        <pt x="91" y="0" on="1"/>
        <pt x="91" y="655" on="1"/>
        <pt x="146" y="655" on="1"/>
        <pt x="146" y="51" on="1"/>
      </contour>
    </TTGlyph>
    <TTGlyph name="Lslash" xMin="10" yMin="0" xMax="419" yMax="655">
      <contour>
        <pt x="308" y="344" on="1"/>
        <pt x="10" y="272" on="1"/>
        <pt x="10" y="323" on="1"/>
        <pt x="308" y="395" on="1"/>
      </contour>
      <contour>
        <pt x="419" y="51" on="1"/>
        <pt x="419" y="0" on="1"/>
        <pt x="91" y="0" on="1"/>
        <pt x="91" y="655" on="1"/>
        <pt x="146" y="655" on="1"/>
        <pt x="146" y="51" on="1"/>
      </contour>
    </TTGlyph>
    <TTGlyph name="M" xMin="48" yMin="0" xMax="451" yMax="655">
      <contour>
        <pt x="48" y="0" on="1"/>
        <pt x="48" y="655" on="1"/>
        <pt x="101" y="655" on="1"/>
        <pt x="242" y="288" on="1"/>
        <pt x="257" y="288" on="1"/>
        <pt x="398" y="655" on="1"/>
        <pt x="451" y="655" on="1"/>
        <pt x="451" y="0" on="1"/>
        <pt x="397" y="0" on="1"/>
        <pt x="397" y="508" on="1"/>
        <pt x="393" y="508" on="1"/>
        <pt x="288" y="237" on="1"/>
        <pt x="211" y="237" on="1"/>
        <pt x="106" y="509" on="1"/>
        <pt x="102" y="509" on="1"/>
        <pt x="102" y="0" on="1"/>
      </contour>
    </TTGlyph>
    <TTGlyph name="M.001" xMin="0" yMin="66" xMax="1000" yMax="265">
      <contour>
        <pt x="1000" y="115" on="1"/>
        <pt x="972" y="66" on="1"/>
        <pt x="872" y="134" on="0"/>
        <pt x="666" y="210" on="0"/>
        <pt x="522" y="210" on="1"/>
        <pt x="0" y="210" on="1"/>
        <pt x="0" y="265" on="1"/>
        <pt x="522" y="265" on="1"/>
        <pt x="672" y="265" on="0"/>
        <pt x="896" y="187" on="0"/>
      </contour>
    </TTGlyph>
    <TTGlyph name="M.tri" xMin="63" yMin="0" xMax="686" yMax="655">
      <contour>
        <pt x="686" y="0" on="1"/>
        <pt x="631" y="0" on="1"/>
        <pt x="631" y="559" on="1"/>
        <pt x="407" y="132" on="1"/>
        <pt x="351" y="132" on="1"/>
        <pt x="118" y="559" on="1"/>
        <pt x="118" y="0" on="1"/>
        <pt x="63" y="0" on="1"/>
        <pt x="63" y="655" on="1"/>
        <pt x="124" y="655" on="1"/>
        <pt x="373" y="199" on="1"/>
        <pt x="384" y="199" on="1"/>
        <pt x="626" y="655" on="1"/>
        <pt x="686" y="655" on="1"/>
      </contour>
    </TTGlyph>
    <TTGlyph name="M.tri.sc" xMin="114" yMin="0" xMax="635" yMax="498">
      <contour>
        <pt x="635" y="0" on="1"/>
        <pt x="582" y="0" on="1"/>
        <pt x="582" y="423" on="1"/>
        <pt x="409" y="96" on="1"/>
        <pt x="348" y="96" on="1"/>
        <pt x="168" y="423" on="1"/>
        <pt x="168" y="0" on="1"/>
        <pt x="114" y="0" on="1"/>
        <pt x="114" y="498" on="1"/>
        <pt x="178" y="498" on="1"/>
        <pt x="378" y="152" on="1"/>
        <pt x="379" y="152" on="1"/>
        <pt x="573" y="498" on="1"/>
        <pt x="635" y="498" on="1"/>
      </contour>
    </TTGlyph>
    <TTGlyph name="N" xMin="51" yMin="0" xMax="449" yMax="655">
      <contour>
        <pt x="394" y="0" on="1"/>
        <pt x="394" y="103" on="1"/>
        <pt x="109" y="551" on="1"/>
        <pt x="106" y="551" on="1"/>
        <pt x="106" y="0" on="1"/>
        <pt x="51" y="0" on="1"/>
        <pt x="51" y="655" on="1"/>
        <pt x="105" y="655" on="1"/>
        <pt x="391" y="202" on="1"/>
        <pt x="394" y="202" on="1"/>
        <pt x="394" y="655" on="1"/>
        <pt x="449" y="655" on="1"/>
        <pt x="449" y="0" on="1"/>
      </contour>
    </TTGlyph>
    <TTGlyph name="N.001" xMin="0" yMin="210" xMax="500" yMax="405">
      <contour>
        <pt x="0" y="210" on="1"/>
        <pt x="0" y="265" on="1"/>
        <pt x="395" y="265" on="1"/>
        <pt x="423" y="265" on="0"/>
        <pt x="448" y="282" on="0"/>
        <pt x="448" y="303" on="1"/>
        <pt x="448" y="405" on="1"/>
        <pt x="500" y="405" on="1"/>
        <pt x="500" y="298" on="1"/>
        <pt x="500" y="256" on="0"/>
        <pt x="456" y="210" on="0"/>
        <pt x="402" y="210" on="1"/>
      </contour>
    </TTGlyph>
    <TTGlyph name="Nacute" xMin="51" yMin="0" xMax="449" yMax="882">
      <contour>
        <pt x="144" y="794" on="1"/>
        <pt x="348" y="882" on="1"/>
        <pt x="367" y="836" on="1"/>
        <pt x="161" y="752" on="1"/>
      </contour>
      <contour>
        <pt x="394" y="0" on="1"/>
        <pt x="394" y="103" on="1"/>
        <pt x="109" y="551" on="1"/>
        <pt x="106" y="551" on="1"/>
        <pt x="106" y="0" on="1"/>
        <pt x="51" y="0" on="1"/>
        <pt x="51" y="655" on="1"/>
        <pt x="105" y="655" on="1"/>
        <pt x="391" y="202" on="1"/>
        <pt x="394" y="202" on="1"/>
        <pt x="394" y="655" on="1"/>
        <pt x="449" y="655" on="1"/>
        <pt x="449" y="0" on="1"/>
      </contour>
    </TTGlyph>
    <TTGlyph name="Ncaron" xMin="51" yMin="0" xMax="449" yMax="882">
      <contour>
        <pt x="399" y="882" on="1"/>
        <pt x="273" y="752" on="1"/>
        <pt x="233" y="752" on="1"/>
        <pt x="107" y="882" on="1"/>
        <pt x="166" y="882" on="1"/>
        <pt x="253" y="793" on="1"/>
        <pt x="340" y="882" on="1"/>
      </contour>
      <contour>
        <pt x="394" y="0" on="1"/>
        <pt x="394" y="103" on="1"/>
        <pt x="109" y="551" on="1"/>
        <pt x="106" y="551" on="1"/>
        <pt x="106" y="0" on="1"/>
        <pt x="51" y="0" on="1"/>
        <pt x="51" y="655" on="1"/>
        <pt x="105" y="655" on="1"/>
        <pt x="391" y="202" on="1"/>
        <pt x="394" y="202" on="1"/>
        <pt x="394" y="655" on="1"/>
        <pt x="449" y="655" on="1"/>
        <pt x="449" y="0" on="1"/>
      </contour>
    </TTGlyph>
    <TTGlyph name="Ncommaaccent" xMin="51" yMin="-229" xMax="449" yMax="655">
      <contour>
        <pt x="216" y="-207" on="1"/>
        <pt x="241" y="-182" on="0"/>
        <pt x="241" y="-158" on="1"/>
        <pt x="241" y="-150" on="1"/>
        <pt x="217" y="-150" on="1"/>
        <pt x="217" y="-72" on="1"/>
        <pt x="284" y="-72" on="1"/>
        <pt x="284" y="-123" on="1"/>
        <pt x="284" y="-162" on="0"/>
        <pt x="267" y="-206" on="0"/>
        <pt x="238" y="-229" on="1"/>
      </contour>
      <contour>
        <pt x="394" y="0" on="1"/>
        <pt x="394" y="103" on="1"/>
        <pt x="109" y="551" on="1"/>
        <pt x="106" y="551" on="1"/>
        <pt x="106" y="0" on="1"/>
        <pt x="51" y="0" on="1"/>
        <pt x="51" y="655" on="1"/>
        <pt x="105" y="655" on="1"/>
        <pt x="391" y="202" on="1"/>
        <pt x="394" y="202" on="1"/>
        <pt x="394" y="655" on="1"/>
        <pt x="449" y="655" on="1"/>
        <pt x="449" y="0" on="1"/>
      </contour>
    </TTGlyph>
    <TTGlyph name="Ntilde" xMin="51" yMin="0" xMax="449" yMax="872">
      <contour>
        <pt x="379" y="859" on="1"/>
        <pt x="404" y="826" on="1"/>
        <pt x="354" y="771" on="0"/>
        <pt x="286" y="771" on="0"/>
        <pt x="248" y="798" on="1"/>
        <pt x="210" y="825" on="0"/>
        <pt x="166" y="825" on="0"/>
        <pt x="123" y="784" on="1"/>
        <pt x="95" y="818" on="1"/>
        <pt x="152" y="872" on="0"/>
        <pt x="224" y="872" on="0"/>
        <pt x="300" y="819" on="0"/>
        <pt x="336" y="819" on="0"/>
      </contour>
      <contour>
        <pt x="394" y="0" on="1"/>
        <pt x="394" y="103" on="1"/>
        <pt x="109" y="551" on="1"/>
        <pt x="106" y="551" on="1"/>
        <pt x="106" y="0" on="1"/>
        <pt x="51" y="0" on="1"/>
        <pt x="51" y="655" on="1"/>
        <pt x="105" y="655" on="1"/>
        <pt x="391" y="202" on="1"/>
        <pt x="394" y="202" on="1"/>
        <pt x="394" y="655" on="1"/>
        <pt x="449" y="655" on="1"/>
        <pt x="449" y="0" on="1"/>
      </contour>
    </TTGlyph>
    <TTGlyph name="O" xMin="40" yMin="-10" xMax="460" yMax="665">
      <contour>
        <pt x="40" y="334" on="1"/>
        <pt x="40" y="412" on="0"/>
        <pt x="50" y="469" on="1"/>
        <pt x="60" y="526" on="0"/>
        <pt x="82" y="572" on="1"/>
        <pt x="127" y="665" on="0"/>
        <pt x="250" y="665" on="1"/>
        <pt x="390" y="664" on="0"/>
        <pt x="434" y="534" on="1"/>
        <pt x="460" y="459" on="0"/>
        <pt x="460" y="256" on="0"/>
        <pt x="440" y="136" on="0"/>
        <pt x="418" y="88" on="1"/>
        <pt x="372" y="-10" on="0"/>
        <pt x="250" y="-10" on="1"/>
        <pt x="130" y="-10" on="0"/>
        <pt x="83" y="88" on="1"/>
        <pt x="40" y="177" on="0"/>
      </contour>
      <contour>
        <pt x="401" y="326" on="1"/>
        <pt x="401" y="380" on="0"/>
        <pt x="396" y="446" on="0"/>
        <pt x="378" y="526" on="0"/>
        <pt x="347" y="578" on="0"/>
        <pt x="290" y="613" on="0"/>
        <pt x="210" y="613" on="0"/>
        <pt x="153" y="578" on="0"/>
        <pt x="122" y="526" on="0"/>
        <pt x="113" y="486" on="1"/>
        <pt x="99" y="424" on="0"/>
        <pt x="99" y="273" on="0"/>
        <pt x="110" y="180" on="0"/>
        <pt x="125" y="135" on="1"/>
        <pt x="156" y="42" on="0"/>
        <pt x="250" y="42" on="1"/>
        <pt x="346" y="42" on="0"/>
        <pt x="376" y="136" on="1"/>
        <pt x="402" y="216" on="0"/>
      </contour>
    </TTGlyph>
    <TTGlyph name="O.001" xMin="0" yMin="70" xMax="500" yMax="265">
      <contour>
        <pt x="0" y="210" on="1"/>
        <pt x="0" y="265" on="1"/>
        <pt x="402" y="265" on="1"/>
        <pt x="456" y="265" on="0"/>
        <pt x="500" y="219" on="0"/>
        <pt x="500" y="177" on="1"/>
        <pt x="500" y="70" on="1"/>
        <pt x="448" y="70" on="1"/>
        <pt x="448" y="172" on="1"/>
        <pt x="448" y="193" on="0"/>
        <pt x="423" y="210" on="0"/>
        <pt x="395" y="210" on="1"/>
      </contour>
    </TTGlyph>
    <TTGlyph name="OE" xMin="38" yMin="0" xMax="481" yMax="655">
      <contour>
        <pt x="258" y="655" on="1"/>
        <pt x="478" y="655" on="1"/>
        <pt x="478" y="607" on="1"/>
        <pt x="324" y="607" on="1"/>
        <pt x="324" y="357" on="1"/>
        <pt x="451" y="357" on="1"/>
        <pt x="451" y="309" on="1"/>
        <pt x="324" y="309" on="1"/>
        <pt x="324" y="48" on="1"/>
        <pt x="481" y="48" on="1"/>
        <pt x="481" y="0" on="1"/>
        <pt x="258" y="0" on="1"/>
        <pt x="38" y="0" on="0"/>
        <pt x="38" y="336" on="1"/>
        <pt x="38" y="571" on="0"/>
        <pt x="152" y="632" on="1"/>
        <pt x="196" y="655" on="0"/>
      </contour>
      <contour>
        <pt x="97" y="334" on="1"/>
        <pt x="97" y="274" on="0"/>
        <pt x="111" y="178" on="0"/>
        <pt x="128" y="136" on="1"/>
        <pt x="163" y="49" on="0"/>
        <pt x="258" y="49" on="1"/>
        <pt x="269" y="49" on="1"/>
        <pt x="269" y="605" on="1"/>
        <pt x="261" y="606" on="0"/>
        <pt x="258" y="606" on="1"/>
        <pt x="160" y="606" on="0"/>
        <pt x="126" y="522" on="1"/>
        <pt x="98" y="452" on="0"/>
      </contour>
    </TTGlyph>
    <TTGlyph name="OE.001" xMin="39" yMin="-10" xMax="481" yMax="665">
      <contour>
        <pt x="249" y="665" on="1"/>
        <pt x="274" y="665" on="0"/>
        <pt x="306" y="655" on="1"/>
        <pt x="478" y="655" on="1"/>
        <pt x="478" y="607" on="1"/>
        <pt x="324" y="607" on="1"/>
        <pt x="324" y="357" on="1"/>
        <pt x="451" y="357" on="1"/>
        <pt x="451" y="309" on="1"/>
        <pt x="324" y="309" on="1"/>
        <pt x="324" y="48" on="1"/>
        <pt x="481" y="48" on="1"/>
        <pt x="481" y="0" on="1"/>
        <pt x="311" y="0" on="1"/>
        <pt x="269" y="-10" on="0"/>
        <pt x="249" y="-10" on="1"/>
        <pt x="142" y="-10" on="0"/>
        <pt x="39" y="156" on="0"/>
        <pt x="39" y="506" on="0"/>
        <pt x="139" y="665" on="0"/>
      </contour>
      <contour>
        <pt x="171" y="613" on="0"/>
        <pt x="98" y="482" on="0"/>
        <pt x="98" y="177" on="0"/>
        <pt x="174" y="42" on="0"/>
        <pt x="249" y="42" on="1"/>
        <pt x="269" y="43" on="1"/>
        <pt x="269" y="612" on="1"/>
        <pt x="252" y="613" on="0"/>
        <pt x="249" y="613" on="1"/>
      </contour>
    </TTGlyph>
    <TTGlyph name="Oacute" xMin="40" yMin="-10" xMax="460" yMax="882">
      <contour>
        <pt x="155" y="794" on="1"/>
        <pt x="359" y="882" on="1"/>
        <pt x="378" y="836" on="1"/>
        <pt x="172" y="752" on="1"/>
      </contour>
      <contour>
        <pt x="40" y="334" on="1"/>
        <pt x="40" y="412" on="0"/>
        <pt x="50" y="469" on="1"/>
        <pt x="60" y="526" on="0"/>
        <pt x="82" y="572" on="1"/>
        <pt x="127" y="665" on="0"/>
        <pt x="250" y="665" on="1"/>
        <pt x="390" y="664" on="0"/>
        <pt x="434" y="534" on="1"/>
        <pt x="460" y="459" on="0"/>
        <pt x="460" y="256" on="0"/>
        <pt x="440" y="136" on="0"/>
        <pt x="418" y="88" on="1"/>
        <pt x="372" y="-10" on="0"/>
        <pt x="250" y="-10" on="1"/>
        <pt x="130" y="-10" on="0"/>
        <pt x="83" y="88" on="1"/>
        <pt x="40" y="177" on="0"/>
      </contour>
      <contour>
        <pt x="401" y="326" on="1"/>
        <pt x="401" y="380" on="0"/>
        <pt x="396" y="446" on="0"/>
        <pt x="378" y="526" on="0"/>
        <pt x="347" y="578" on="0"/>
        <pt x="290" y="613" on="0"/>
        <pt x="210" y="613" on="0"/>
        <pt x="153" y="578" on="0"/>
        <pt x="122" y="526" on="0"/>
        <pt x="113" y="486" on="1"/>
        <pt x="99" y="424" on="0"/>
        <pt x="99" y="273" on="0"/>
        <pt x="110" y="180" on="0"/>
        <pt x="125" y="135" on="1"/>
        <pt x="156" y="42" on="0"/>
        <pt x="250" y="42" on="1"/>
        <pt x="346" y="42" on="0"/>
        <pt x="376" y="136" on="1"/>
        <pt x="402" y="216" on="0"/>
      </contour>
    </TTGlyph>
    <TTGlyph name="Obreve" xMin="40" yMin="-10" xMax="460" yMax="875">
      <contour>
        <pt x="373" y="754" on="0"/>
        <pt x="129" y="754" on="0"/>
        <pt x="115" y="875" on="1"/>
        <pt x="161" y="875" on="1"/>
        <pt x="167" y="834" on="0"/>
        <pt x="208" y="796" on="0"/>
        <pt x="294" y="796" on="0"/>
        <pt x="334" y="833" on="0"/>
        <pt x="340" y="875" on="1"/>
        <pt x="387" y="875" on="1"/>
      </contour>
      <contour>
        <pt x="40" y="334" on="1"/>
        <pt x="40" y="412" on="0"/>
        <pt x="50" y="469" on="1"/>
        <pt x="60" y="526" on="0"/>
        <pt x="82" y="572" on="1"/>
        <pt x="127" y="665" on="0"/>
        <pt x="250" y="665" on="1"/>
        <pt x="390" y="664" on="0"/>
        <pt x="434" y="534" on="1"/>
        <pt x="460" y="459" on="0"/>
        <pt x="460" y="256" on="0"/>
        <pt x="440" y="136" on="0"/>
        <pt x="418" y="88" on="1"/>
        <pt x="372" y="-10" on="0"/>
        <pt x="250" y="-10" on="1"/>
        <pt x="130" y="-10" on="0"/>
        <pt x="83" y="88" on="1"/>
        <pt x="40" y="177" on="0"/>
      </contour>
      <contour>
        <pt x="401" y="326" on="1"/>
        <pt x="401" y="380" on="0"/>
        <pt x="396" y="446" on="0"/>
        <pt x="378" y="526" on="0"/>
        <pt x="347" y="578" on="0"/>
        <pt x="290" y="613" on="0"/>
        <pt x="210" y="613" on="0"/>
        <pt x="153" y="578" on="0"/>
        <pt x="122" y="526" on="0"/>
        <pt x="113" y="486" on="1"/>
        <pt x="99" y="424" on="0"/>
        <pt x="99" y="273" on="0"/>
        <pt x="110" y="180" on="0"/>
        <pt x="125" y="135" on="1"/>
        <pt x="156" y="42" on="0"/>
        <pt x="250" y="42" on="1"/>
        <pt x="346" y="42" on="0"/>
        <pt x="376" y="136" on="1"/>
        <pt x="402" y="216" on="0"/>
      </contour>
    </TTGlyph>
    <TTGlyph name="Ocircumflex" xMin="40" yMin="-10" xMax="460" yMax="882">
      <contour>
        <pt x="107" y="752" on="1"/>
        <pt x="233" y="882" on="1"/>
        <pt x="273" y="882" on="1"/>
        <pt x="399" y="752" on="1"/>
        <pt x="341" y="752" on="1"/>
        <pt x="253" y="842" on="1"/>
        <pt x="165" y="752" on="1"/>
      </contour>
      <contour>
        <pt x="40" y="334" on="1"/>
        <pt x="40" y="412" on="0"/>
        <pt x="50" y="469" on="1"/>
        <pt x="60" y="526" on="0"/>
        <pt x="82" y="572" on="1"/>
        <pt x="127" y="665" on="0"/>
        <pt x="250" y="665" on="1"/>
        <pt x="390" y="664" on="0"/>
        <pt x="434" y="534" on="1"/>
        <pt x="460" y="459" on="0"/>
        <pt x="460" y="256" on="0"/>
        <pt x="440" y="136" on="0"/>
        <pt x="418" y="88" on="1"/>
        <pt x="372" y="-10" on="0"/>
        <pt x="250" y="-10" on="1"/>
        <pt x="130" y="-10" on="0"/>
        <pt x="83" y="88" on="1"/>
        <pt x="40" y="177" on="0"/>
      </contour>
      <contour>
        <pt x="401" y="326" on="1"/>
        <pt x="401" y="380" on="0"/>
        <pt x="396" y="446" on="0"/>
        <pt x="378" y="526" on="0"/>
        <pt x="347" y="578" on="0"/>
        <pt x="290" y="613" on="0"/>
        <pt x="210" y="613" on="0"/>
        <pt x="153" y="578" on="0"/>
        <pt x="122" y="526" on="0"/>
        <pt x="113" y="486" on="1"/>
        <pt x="99" y="424" on="0"/>
        <pt x="99" y="273" on="0"/>
        <pt x="110" y="180" on="0"/>
        <pt x="125" y="135" on="1"/>
        <pt x="156" y="42" on="0"/>
        <pt x="250" y="42" on="1"/>
        <pt x="346" y="42" on="0"/>
        <pt x="376" y="136" on="1"/>
        <pt x="402" y="216" on="0"/>
      </contour>
    </TTGlyph>
    <TTGlyph name="Odieresis" xMin="40" yMin="-10" xMax="460" yMax="849">
      <contour>
        <pt x="117" y="797" on="0"/>
        <pt x="117" y="827" on="0"/>
        <pt x="137" y="849" on="0"/>
        <pt x="169" y="849" on="0"/>
        <pt x="189" y="827" on="0"/>
        <pt x="189" y="797" on="0"/>
        <pt x="169" y="775" on="0"/>
        <pt x="137" y="775" on="0"/>
      </contour>
      <contour>
        <pt x="310" y="797" on="0"/>
        <pt x="310" y="827" on="0"/>
        <pt x="331" y="849" on="0"/>
        <pt x="362" y="849" on="0"/>
        <pt x="383" y="827" on="0"/>
        <pt x="383" y="797" on="0"/>
        <pt x="362" y="775" on="0"/>
        <pt x="331" y="775" on="0"/>
      </contour>
      <contour>
        <pt x="40" y="334" on="1"/>
        <pt x="40" y="412" on="0"/>
        <pt x="50" y="469" on="1"/>
        <pt x="60" y="526" on="0"/>
        <pt x="82" y="572" on="1"/>
        <pt x="127" y="665" on="0"/>
        <pt x="250" y="665" on="1"/>
        <pt x="390" y="664" on="0"/>
        <pt x="434" y="534" on="1"/>
        <pt x="460" y="459" on="0"/>
        <pt x="460" y="256" on="0"/>
        <pt x="440" y="136" on="0"/>
        <pt x="418" y="88" on="1"/>
        <pt x="372" y="-10" on="0"/>
        <pt x="250" y="-10" on="1"/>
        <pt x="130" y="-10" on="0"/>
        <pt x="83" y="88" on="1"/>
        <pt x="40" y="177" on="0"/>
      </contour>
      <contour>
        <pt x="401" y="326" on="1"/>
        <pt x="401" y="380" on="0"/>
        <pt x="396" y="446" on="0"/>
        <pt x="378" y="526" on="0"/>
        <pt x="347" y="578" on="0"/>
        <pt x="290" y="613" on="0"/>
        <pt x="210" y="613" on="0"/>
        <pt x="153" y="578" on="0"/>
        <pt x="122" y="526" on="0"/>
        <pt x="113" y="486" on="1"/>
        <pt x="99" y="424" on="0"/>
        <pt x="99" y="273" on="0"/>
        <pt x="110" y="180" on="0"/>
        <pt x="125" y="135" on="1"/>
        <pt x="156" y="42" on="0"/>
        <pt x="250" y="42" on="1"/>
        <pt x="346" y="42" on="0"/>
        <pt x="376" y="136" on="1"/>
        <pt x="402" y="216" on="0"/>
      </contour>
    </TTGlyph>
    <TTGlyph name="Ograve" xMin="40" yMin="-10" xMax="460" yMax="883">
      <contour>
        <pt x="160" y="883" on="1"/>
        <pt x="364" y="795" on="1"/>
        <pt x="347" y="753" on="1"/>
        <pt x="141" y="837" on="1"/>
      </contour>
      <contour>
        <pt x="40" y="334" on="1"/>
        <pt x="40" y="412" on="0"/>
        <pt x="50" y="469" on="1"/>
        <pt x="60" y="526" on="0"/>
        <pt x="82" y="572" on="1"/>
        <pt x="127" y="665" on="0"/>
        <pt x="250" y="665" on="1"/>
        <pt x="390" y="664" on="0"/>
        <pt x="434" y="534" on="1"/>
        <pt x="460" y="459" on="0"/>
        <pt x="460" y="256" on="0"/>
        <pt x="440" y="136" on="0"/>
        <pt x="418" y="88" on="1"/>
        <pt x="372" y="-10" on="0"/>
        <pt x="250" y="-10" on="1"/>
        <pt x="130" y="-10" on="0"/>
        <pt x="83" y="88" on="1"/>
        <pt x="40" y="177" on="0"/>
      </contour>
      <contour>
        <pt x="401" y="326" on="1"/>
        <pt x="401" y="380" on="0"/>
        <pt x="396" y="446" on="0"/>
        <pt x="378" y="526" on="0"/>
        <pt x="347" y="578" on="0"/>
        <pt x="290" y="613" on="0"/>
        <pt x="210" y="613" on="0"/>
        <pt x="153" y="578" on="0"/>
        <pt x="122" y="526" on="0"/>
        <pt x="113" y="486" on="1"/>
        <pt x="99" y="424" on="0"/>
        <pt x="99" y="273" on="0"/>
        <pt x="110" y="180" on="0"/>
        <pt x="125" y="135" on="1"/>
        <pt x="156" y="42" on="0"/>
        <pt x="250" y="42" on="1"/>
        <pt x="346" y="42" on="0"/>
        <pt x="376" y="136" on="1"/>
        <pt x="402" y="216" on="0"/>
      </contour>
    </TTGlyph>
    <TTGlyph name="Ohungarumlaut" xMin="40" yMin="-10" xMax="460" yMax="865">
      <contour>
        <pt x="105" y="741" on="1"/>
        <pt x="255" y="865" on="1"/>
        <pt x="288" y="824" on="1"/>
        <pt x="131" y="708" on="1"/>
      </contour>
      <contour>
        <pt x="262" y="741" on="1"/>
        <pt x="413" y="864" on="1"/>
        <pt x="445" y="824" on="1"/>
        <pt x="288" y="708" on="1"/>
      </contour>
      <contour>
        <pt x="40" y="334" on="1"/>
        <pt x="40" y="412" on="0"/>
        <pt x="50" y="469" on="1"/>
        <pt x="60" y="526" on="0"/>
        <pt x="82" y="572" on="1"/>
        <pt x="127" y="665" on="0"/>
        <pt x="250" y="665" on="1"/>
        <pt x="390" y="664" on="0"/>
        <pt x="434" y="534" on="1"/>
        <pt x="460" y="459" on="0"/>
        <pt x="460" y="256" on="0"/>
        <pt x="440" y="136" on="0"/>
        <pt x="418" y="88" on="1"/>
        <pt x="372" y="-10" on="0"/>
        <pt x="250" y="-10" on="1"/>
        <pt x="130" y="-10" on="0"/>
        <pt x="83" y="88" on="1"/>
        <pt x="40" y="177" on="0"/>
      </contour>
      <contour>
        <pt x="401" y="326" on="1"/>
        <pt x="401" y="380" on="0"/>
        <pt x="396" y="446" on="0"/>
        <pt x="378" y="526" on="0"/>
        <pt x="347" y="578" on="0"/>
        <pt x="290" y="613" on="0"/>
        <pt x="210" y="613" on="0"/>
        <pt x="153" y="578" on="0"/>
        <pt x="122" y="526" on="0"/>
        <pt x="113" y="486" on="1"/>
        <pt x="99" y="424" on="0"/>
        <pt x="99" y="273" on="0"/>
        <pt x="110" y="180" on="0"/>
        <pt x="125" y="135" on="1"/>
        <pt x="156" y="42" on="0"/>
        <pt x="250" y="42" on="1"/>
        <pt x="346" y="42" on="0"/>
        <pt x="376" y="136" on="1"/>
        <pt x="402" y="216" on="0"/>
      </contour>
    </TTGlyph>
    <TTGlyph name="Omacron" xMin="40" yMin="-10" xMax="460" yMax="834">
      <contour>
        <pt x="104" y="834" on="1"/>
        <pt x="397" y="834" on="1"/>
        <pt x="397" y="789" on="1"/>
        <pt x="104" y="789" on="1"/>
      </contour>
      <contour>
        <pt x="40" y="334" on="1"/>
        <pt x="40" y="412" on="0"/>
        <pt x="50" y="469" on="1"/>
        <pt x="60" y="526" on="0"/>
        <pt x="82" y="572" on="1"/>
        <pt x="127" y="665" on="0"/>
        <pt x="250" y="665" on="1"/>
        <pt x="390" y="664" on="0"/>
        <pt x="434" y="534" on="1"/>
        <pt x="460" y="459" on="0"/>
        <pt x="460" y="256" on="0"/>
        <pt x="440" y="136" on="0"/>
        <pt x="418" y="88" on="1"/>
        <pt x="372" y="-10" on="0"/>
        <pt x="250" y="-10" on="1"/>
        <pt x="130" y="-10" on="0"/>
        <pt x="83" y="88" on="1"/>
        <pt x="40" y="177" on="0"/>
      </contour>
      <contour>
        <pt x="401" y="326" on="1"/>
        <pt x="401" y="380" on="0"/>
        <pt x="396" y="446" on="0"/>
        <pt x="378" y="526" on="0"/>
        <pt x="347" y="578" on="0"/>
        <pt x="290" y="613" on="0"/>
        <pt x="210" y="613" on="0"/>
        <pt x="153" y="578" on="0"/>
        <pt x="122" y="526" on="0"/>
        <pt x="113" y="486" on="1"/>
        <pt x="99" y="424" on="0"/>
        <pt x="99" y="273" on="0"/>
        <pt x="110" y="180" on="0"/>
        <pt x="125" y="135" on="1"/>
        <pt x="156" y="42" on="0"/>
        <pt x="250" y="42" on="1"/>
        <pt x="346" y="42" on="0"/>
        <pt x="376" y="136" on="1"/>
        <pt x="402" y="216" on="0"/>
      </contour>
    </TTGlyph>
    <TTGlyph name="Omega" xMin="40" yMin="0" xMax="460" yMax="665">
      <contour>
        <pt x="147" y="45" on="1"/>
        <pt x="147" y="50" on="1"/>
        <pt x="82" y="95" on="0"/>
        <pt x="40" y="236" on="0"/>
        <pt x="40" y="423" on="0"/>
        <pt x="60" y="533" on="0"/>
        <pt x="82" y="577" on="1"/>
        <pt x="127" y="665" on="0"/>
        <pt x="250" y="665" on="1"/>
        <pt x="372" y="665" on="0"/>
        <pt x="418" y="577" on="1"/>
        <pt x="460" y="497" on="0"/>
        <pt x="460" y="346" on="1"/>
        <pt x="460" y="177" on="0"/>
        <pt x="411" y="107" on="1"/>
        <pt x="388" y="74" on="0"/>
        <pt x="353" y="50" on="1"/>
        <pt x="353" y="45" on="1"/>
        <pt x="452" y="50" on="1"/>
        <pt x="452" y="0" on="1"/>
        <pt x="279" y="0" on="1"/>
        <pt x="279" y="50" on="1"/>
        <pt x="316" y="62" on="0"/>
        <pt x="367" y="128" on="0"/>
        <pt x="379" y="173" on="1"/>
        <pt x="401" y="255" on="0"/>
        <pt x="401" y="390" on="0"/>
        <pt x="396" y="455" on="0"/>
        <pt x="379" y="531" on="0"/>
        <pt x="347" y="580" on="0"/>
        <pt x="290" y="613" on="0"/>
        <pt x="210" y="613" on="0"/>
        <pt x="153" y="580" on="0"/>
        <pt x="137" y="556" on="1"/>
        <pt x="120" y="532" on="0"/>
        <pt x="112" y="493" on="1"/>
        <pt x="98" y="433" on="0"/>
        <pt x="99" y="311" on="0"/>
        <pt x="104" y="246" on="0"/>
        <pt x="121" y="169" on="0"/>
        <pt x="146" y="109" on="0"/>
        <pt x="191" y="60" on="0"/>
        <pt x="221" y="50" on="1"/>
        <pt x="221" y="0" on="1"/>
        <pt x="54" y="0" on="1"/>
        <pt x="54" y="50" on="1"/>
      </contour>
    </TTGlyph>
    <TTGlyph name="Omega.001" xMin="33" yMin="0" xMax="470" yMax="481">
      <contour>
        <pt x="33" y="0" on="1"/>
        <pt x="33" y="50" on="1"/>
        <pt x="157" y="40" on="1"/>
        <pt x="157" y="45" on="1"/>
        <pt x="47" y="111" on="0"/>
        <pt x="47" y="252" on="1"/>
        <pt x="47" y="352" on="0"/>
        <pt x="157" y="481" on="0"/>
        <pt x="345" y="481" on="0"/>
        <pt x="453" y="352" on="0"/>
        <pt x="453" y="252" on="1"/>
        <pt x="453" y="110" on="0"/>
        <pt x="342" y="45" on="1"/>
        <pt x="342" y="40" on="1"/>
        <pt x="470" y="50" on="1"/>
        <pt x="470" y="0" on="1"/>
        <pt x="279" y="0" on="1"/>
        <pt x="279" y="50" on="1"/>
        <pt x="326" y="70" on="0"/>
        <pt x="361" y="128" on="1"/>
        <pt x="396" y="186" on="0"/>
        <pt x="396" y="326" on="0"/>
        <pt x="320" y="429" on="0"/>
        <pt x="184" y="429" on="0"/>
        <pt x="104" y="324" on="0"/>
        <pt x="104" y="188" on="0"/>
        <pt x="173" y="70" on="0"/>
        <pt x="221" y="50" on="1"/>
        <pt x="221" y="0" on="1"/>
      </contour>
    </TTGlyph>
    <TTGlyph name="Oslash" xMin="40" yMin="-10" xMax="460" yMax="666">
      <contour>
        <pt x="40" y="336" on="1"/>
        <pt x="40" y="582" on="0"/>
        <pt x="146" y="642" on="1"/>
        <pt x="188" y="666" on="0"/>
        <pt x="250" y="665" on="1"/>
        <pt x="334" y="665" on="0"/>
        <pt x="385" y="616" on="1"/>
        <pt x="413" y="666" on="1"/>
        <pt x="450" y="644" on="1"/>
        <pt x="413" y="580" on="1"/>
        <pt x="460" y="501" on="0"/>
        <pt x="460" y="336" on="1"/>
        <pt x="460" y="79" on="0"/>
        <pt x="353" y="15" on="1"/>
        <pt x="311" y="-10" on="0"/>
        <pt x="250" y="-10" on="1"/>
        <pt x="161" y="-10" on="0"/>
        <pt x="111" y="46" on="1"/>
        <pt x="81" y="-8" on="1"/>
        <pt x="45" y="14" on="1"/>
        <pt x="85" y="85" on="1"/>
        <pt x="40" y="168" on="0"/>
      </contour>
      <contour>
        <pt x="120" y="148" on="1"/>
        <pt x="355" y="563" on="1"/>
        <pt x="317" y="613" on="0"/>
        <pt x="250" y="613" on="1"/>
        <pt x="210" y="613" on="0"/>
        <pt x="153" y="578" on="0"/>
        <pt x="122" y="526" on="0"/>
        <pt x="113" y="486" on="1"/>
        <pt x="99" y="424" on="0"/>
        <pt x="99" y="213" on="0"/>
      </contour>
      <contour>
        <pt x="378" y="518" on="1"/>
        <pt x="142" y="100" on="1"/>
        <pt x="177" y="42" on="0"/>
        <pt x="250" y="42" on="1"/>
        <pt x="346" y="42" on="0"/>
        <pt x="376" y="136" on="1"/>
        <pt x="402" y="216" on="0"/>
        <pt x="401" y="456" on="0"/>
      </contour>
    </TTGlyph>
    <TTGlyph name="Oslashacute" xMin="40" yMin="-10" xMax="460" yMax="882">
      <contour>
        <pt x="155" y="794" on="1"/>
        <pt x="359" y="882" on="1"/>
        <pt x="378" y="836" on="1"/>
        <pt x="172" y="752" on="1"/>
      </contour>
      <contour>
        <pt x="40" y="336" on="1"/>
        <pt x="40" y="582" on="0"/>
        <pt x="146" y="642" on="1"/>
        <pt x="188" y="666" on="0"/>
        <pt x="250" y="665" on="1"/>
        <pt x="334" y="665" on="0"/>
        <pt x="385" y="616" on="1"/>
        <pt x="413" y="666" on="1"/>
        <pt x="450" y="644" on="1"/>
        <pt x="413" y="580" on="1"/>
        <pt x="460" y="501" on="0"/>
        <pt x="460" y="336" on="1"/>
        <pt x="460" y="79" on="0"/>
        <pt x="353" y="15" on="1"/>
        <pt x="311" y="-10" on="0"/>
        <pt x="250" y="-10" on="1"/>
        <pt x="161" y="-10" on="0"/>
        <pt x="111" y="46" on="1"/>
        <pt x="81" y="-8" on="1"/>
        <pt x="45" y="14" on="1"/>
        <pt x="85" y="85" on="1"/>
        <pt x="40" y="168" on="0"/>
      </contour>
      <contour>
        <pt x="120" y="148" on="1"/>
        <pt x="355" y="563" on="1"/>
        <pt x="317" y="613" on="0"/>
        <pt x="250" y="613" on="1"/>
        <pt x="210" y="613" on="0"/>
        <pt x="153" y="578" on="0"/>
        <pt x="122" y="526" on="0"/>
        <pt x="113" y="486" on="1"/>
        <pt x="99" y="424" on="0"/>
        <pt x="99" y="213" on="0"/>
      </contour>
      <contour>
        <pt x="378" y="518" on="1"/>
        <pt x="142" y="100" on="1"/>
        <pt x="177" y="42" on="0"/>
        <pt x="250" y="42" on="1"/>
        <pt x="346" y="42" on="0"/>
        <pt x="376" y="136" on="1"/>
        <pt x="402" y="216" on="0"/>
        <pt x="401" y="456" on="0"/>
      </contour>
    </TTGlyph>
    <TTGlyph name="Otilde" xMin="40" yMin="-10" xMax="460" yMax="872">
      <contour>
        <pt x="379" y="859" on="1"/>
        <pt x="404" y="826" on="1"/>
        <pt x="353" y="771" on="0"/>
        <pt x="286" y="771" on="0"/>
        <pt x="211" y="825" on="0"/>
        <pt x="166" y="825" on="0"/>
        <pt x="123" y="784" on="1"/>
        <pt x="95" y="818" on="1"/>
        <pt x="151" y="872" on="0"/>
        <pt x="224" y="872" on="0"/>
        <pt x="300" y="819" on="0"/>
        <pt x="336" y="819" on="0"/>
      </contour>
      <contour>
        <pt x="40" y="334" on="1"/>
        <pt x="40" y="412" on="0"/>
        <pt x="50" y="469" on="1"/>
        <pt x="60" y="526" on="0"/>
        <pt x="82" y="572" on="1"/>
        <pt x="127" y="665" on="0"/>
        <pt x="250" y="665" on="1"/>
        <pt x="390" y="664" on="0"/>
        <pt x="434" y="534" on="1"/>
        <pt x="460" y="459" on="0"/>
        <pt x="460" y="256" on="0"/>
        <pt x="440" y="136" on="0"/>
        <pt x="418" y="88" on="1"/>
        <pt x="372" y="-10" on="0"/>
        <pt x="250" y="-10" on="1"/>
        <pt x="130" y="-10" on="0"/>
        <pt x="83" y="88" on="1"/>
        <pt x="40" y="177" on="0"/>
      </contour>
      <contour>
        <pt x="401" y="326" on="1"/>
        <pt x="401" y="380" on="0"/>
        <pt x="396" y="446" on="0"/>
        <pt x="378" y="526" on="0"/>
        <pt x="347" y="578" on="0"/>
        <pt x="290" y="613" on="0"/>
        <pt x="210" y="613" on="0"/>
        <pt x="153" y="578" on="0"/>
        <pt x="122" y="526" on="0"/>
        <pt x="113" y="486" on="1"/>
        <pt x="99" y="424" on="0"/>
        <pt x="99" y="273" on="0"/>
        <pt x="110" y="180" on="0"/>
        <pt x="125" y="135" on="1"/>
        <pt x="156" y="42" on="0"/>
        <pt x="250" y="42" on="1"/>
        <pt x="346" y="42" on="0"/>
        <pt x="376" y="136" on="1"/>
        <pt x="402" y="216" on="0"/>
      </contour>
    </TTGlyph>
    <TTGlyph name="P" xMin="69" yMin="0" xMax="451" yMax="655">
      <contour>
        <pt x="216" y="240" on="1"/>
        <pt x="124" y="240" on="1"/>
        <pt x="124" y="0" on="1"/>
        <pt x="69" y="0" on="1"/>
        <pt x="69" y="655" on="1"/>
        <pt x="216" y="655" on="1"/>
        <pt x="336" y="655" on="0"/>
        <pt x="451" y="564" on="0"/>
        <pt x="451" y="340" on="0"/>
        <pt x="335" y="240" on="0"/>
      </contour>
      <contour>
        <pt x="216" y="605" on="1"/>
        <pt x="124" y="605" on="1"/>
        <pt x="124" y="290" on="1"/>
        <pt x="216" y="290" on="1"/>
        <pt x="308" y="290" on="0"/>
        <pt x="393" y="364" on="0"/>
        <pt x="393" y="538" on="0"/>
        <pt x="309" y="605" on="0"/>
      </contour>
    </TTGlyph>
    <TTGlyph name="P.001" xMin="0" yMin="210" xMax="1000" yMax="405">
      <contour>
        <pt x="0" y="210" on="1"/>
        <pt x="0" y="265" on="1"/>
        <pt x="895" y="265" on="1"/>
        <pt x="923" y="265" on="0"/>
        <pt x="948" y="282" on="0"/>
        <pt x="948" y="303" on="1"/>
        <pt x="948" y="405" on="1"/>
        <pt x="1000" y="405" on="1"/>
        <pt x="1000" y="298" on="1"/>
        <pt x="1000" y="256" on="0"/>
        <pt x="956" y="210" on="0"/>
        <pt x="902" y="210" on="1"/>
      </contour>
    </TTGlyph>
    <TTGlyph name="Q" xMin="40" yMin="-73" xMax="460" yMax="666">
      <contour>
        <pt x="425" y="-73" on="1"/>
        <pt x="360" y="20" on="1"/>
        <pt x="316" y="-10" on="0"/>
        <pt x="190" y="-10" on="0"/>
        <pt x="106" y="40" on="0"/>
        <pt x="83" y="88" on="1"/>
        <pt x="40" y="178" on="0"/>
        <pt x="40" y="336" on="1"/>
        <pt x="40" y="582" on="0"/>
        <pt x="146" y="642" on="1"/>
        <pt x="188" y="666" on="0"/>
        <pt x="299" y="665" on="0"/>
        <pt x="373" y="633" on="0"/>
        <pt x="396" y="605" on="1"/>
        <pt x="420" y="576" on="0"/>
        <pt x="434" y="534" on="1"/>
        <pt x="460" y="459" on="0"/>
        <pt x="460" y="336" on="1"/>
        <pt x="460" y="140" on="0"/>
        <pt x="398" y="58" on="1"/>
        <pt x="457" y="-30" on="1"/>
      </contour>
      <contour>
        <pt x="102" y="428" on="0"/>
        <pt x="99" y="372" on="0"/>
        <pt x="99" y="273" on="0"/>
        <pt x="110" y="180" on="0"/>
        <pt x="125" y="134" on="1"/>
        <pt x="156" y="41" on="0"/>
        <pt x="250" y="41" on="1"/>
        <pt x="294" y="41" on="0"/>
        <pt x="324" y="63" on="1"/>
        <pt x="268" y="118" on="1"/>
        <pt x="293" y="170" on="1"/>
        <pt x="360" y="102" on="1"/>
        <pt x="401" y="171" on="0"/>
        <pt x="401" y="336" on="1"/>
        <pt x="402" y="466" on="0"/>
        <pt x="378" y="522" on="1"/>
        <pt x="352" y="584" on="0"/>
        <pt x="309" y="602" on="1"/>
        <pt x="283" y="614" on="0"/>
        <pt x="217" y="614" on="0"/>
        <pt x="165" y="591" on="0"/>
        <pt x="133" y="547" on="0"/>
        <pt x="112" y="497" on="0"/>
      </contour>
    </TTGlyph>
    <TTGlyph name="Q.001" xMin="0" yMin="70" xMax="1000" yMax="265">
      <contour>
        <pt x="0" y="210" on="1"/>
        <pt x="0" y="265" on="1"/>
        <pt x="902" y="265" on="1"/>
        <pt x="956" y="265" on="0"/>
        <pt x="1000" y="219" on="0"/>
        <pt x="1000" y="177" on="1"/>
        <pt x="1000" y="70" on="1"/>
        <pt x="948" y="70" on="1"/>
        <pt x="948" y="172" on="1"/>
        <pt x="948" y="193" on="0"/>
        <pt x="923" y="210" on="0"/>
        <pt x="895" y="210" on="1"/>
      </contour>
    </TTGlyph>
    <TTGlyph name="Q.calt" xMin="40" yMin="-10" xMax="463" yMax="665">
      <contour>
        <pt x="40" y="334" on="1"/>
        <pt x="40" y="412" on="0"/>
        <pt x="50" y="469" on="1"/>
        <pt x="60" y="526" on="0"/>
        <pt x="82" y="572" on="1"/>
        <pt x="127" y="665" on="0"/>
        <pt x="250" y="665" on="1"/>
        <pt x="390" y="664" on="0"/>
        <pt x="434" y="534" on="1"/>
        <pt x="460" y="459" on="0"/>
        <pt x="460" y="336" on="1"/>
        <pt x="460" y="166" on="0"/>
        <pt x="414" y="82" on="1"/>
        <pt x="463" y="26" on="1"/>
        <pt x="423" y="-10" on="1"/>
        <pt x="383" y="39" on="1"/>
        <pt x="334" y="-10" on="0"/>
        <pt x="250" y="-10" on="1"/>
        <pt x="130" y="-10" on="0"/>
        <pt x="83" y="88" on="1"/>
        <pt x="40" y="177" on="0"/>
      </contour>
      <contour>
        <pt x="102" y="428" on="0"/>
        <pt x="99" y="372" on="0"/>
        <pt x="99" y="273" on="0"/>
        <pt x="110" y="180" on="0"/>
        <pt x="125" y="134" on="1"/>
        <pt x="156" y="41" on="0"/>
        <pt x="250" y="41" on="1"/>
        <pt x="310" y="41" on="0"/>
        <pt x="346" y="83" on="1"/>
        <pt x="272" y="171" on="1"/>
        <pt x="310" y="206" on="1"/>
        <pt x="374" y="130" on="1"/>
        <pt x="401" y="198" on="0"/>
        <pt x="401" y="336" on="1"/>
        <pt x="402" y="466" on="0"/>
        <pt x="378" y="522" on="1"/>
        <pt x="352" y="584" on="0"/>
        <pt x="309" y="602" on="1"/>
        <pt x="283" y="614" on="0"/>
        <pt x="217" y="614" on="0"/>
        <pt x="165" y="591" on="0"/>
        <pt x="133" y="547" on="0"/>
        <pt x="112" y="497" on="0"/>
      </contour>
    </TTGlyph>
    <TTGlyph name="R" xMin="61" yMin="0" xMax="448" yMax="655">
      <contour>
        <pt x="268" y="269" on="1"/>
        <pt x="214" y="266" on="0"/>
        <pt x="198" y="266" on="1"/>
        <pt x="116" y="266" on="1"/>
        <pt x="116" y="0" on="1"/>
        <pt x="61" y="0" on="1"/>
        <pt x="61" y="655" on="1"/>
        <pt x="208" y="655" on="1"/>
        <pt x="330" y="655" on="0"/>
        <pt x="444" y="571" on="0"/>
        <pt x="444" y="465" on="1"/>
        <pt x="444" y="394" on="0"/>
        <pt x="387" y="308" on="0"/>
        <pt x="324" y="281" on="1"/>
        <pt x="392" y="152" on="0"/>
        <pt x="448" y="0" on="1"/>
        <pt x="388" y="0" on="1"/>
        <pt x="333" y="146" on="0"/>
      </contour>
      <contour>
        <pt x="206" y="605" on="1"/>
        <pt x="116" y="605" on="1"/>
        <pt x="116" y="316" on="1"/>
        <pt x="196" y="316" on="1"/>
        <pt x="288" y="316" on="0"/>
        <pt x="386" y="383" on="0"/>
        <pt x="386" y="547" on="0"/>
        <pt x="299" y="605" on="0"/>
      </contour>
    </TTGlyph>
    <TTGlyph name="R.001" xMin="0" yMin="209" xMax="500" yMax="415">
      <contour>
        <pt x="0" y="265" on="1"/>
        <pt x="452" y="264" on="1"/>
        <pt x="452" y="415" on="1"/>
        <pt x="500" y="415" on="1"/>
        <pt x="500" y="209" on="1"/>
        <pt x="0" y="210" on="1"/>
      </contour>
    </TTGlyph>
    <TTGlyph name="Racute" xMin="61" yMin="0" xMax="448" yMax="882">
      <contour>
        <pt x="124" y="794" on="1"/>
        <pt x="328" y="882" on="1"/>
        <pt x="347" y="836" on="1"/>
        <pt x="141" y="752" on="1"/>
      </contour>
      <contour>
        <pt x="268" y="269" on="1"/>
        <pt x="214" y="266" on="0"/>
        <pt x="198" y="266" on="1"/>
        <pt x="116" y="266" on="1"/>
        <pt x="116" y="0" on="1"/>
        <pt x="61" y="0" on="1"/>
        <pt x="61" y="655" on="1"/>
        <pt x="208" y="655" on="1"/>
        <pt x="330" y="655" on="0"/>
        <pt x="444" y="571" on="0"/>
        <pt x="444" y="465" on="1"/>
        <pt x="444" y="394" on="0"/>
        <pt x="387" y="308" on="0"/>
        <pt x="324" y="281" on="1"/>
        <pt x="392" y="152" on="0"/>
        <pt x="448" y="0" on="1"/>
        <pt x="388" y="0" on="1"/>
        <pt x="333" y="146" on="0"/>
      </contour>
      <contour>
        <pt x="206" y="605" on="1"/>
        <pt x="116" y="605" on="1"/>
        <pt x="116" y="316" on="1"/>
        <pt x="196" y="316" on="1"/>
        <pt x="288" y="316" on="0"/>
        <pt x="386" y="383" on="0"/>
        <pt x="386" y="547" on="0"/>
        <pt x="299" y="605" on="0"/>
      </contour>
    </TTGlyph>
    <TTGlyph name="Rcaron" xMin="61" yMin="0" xMax="448" yMax="882">
      <contour>
        <pt x="379" y="882" on="1"/>
        <pt x="253" y="752" on="1"/>
        <pt x="213" y="752" on="1"/>
        <pt x="87" y="882" on="1"/>
        <pt x="146" y="882" on="1"/>
        <pt x="233" y="793" on="1"/>
        <pt x="320" y="882" on="1"/>
      </contour>
      <contour>
        <pt x="268" y="269" on="1"/>
        <pt x="214" y="266" on="0"/>
        <pt x="198" y="266" on="1"/>
        <pt x="116" y="266" on="1"/>
        <pt x="116" y="0" on="1"/>
        <pt x="61" y="0" on="1"/>
        <pt x="61" y="655" on="1"/>
        <pt x="208" y="655" on="1"/>
        <pt x="330" y="655" on="0"/>
        <pt x="444" y="571" on="0"/>
        <pt x="444" y="465" on="1"/>
        <pt x="444" y="394" on="0"/>
        <pt x="387" y="308" on="0"/>
        <pt x="324" y="281" on="1"/>
        <pt x="392" y="152" on="0"/>
        <pt x="448" y="0" on="1"/>
        <pt x="388" y="0" on="1"/>
        <pt x="333" y="146" on="0"/>
      </contour>
      <contour>
        <pt x="206" y="605" on="1"/>
        <pt x="116" y="605" on="1"/>
        <pt x="116" y="316" on="1"/>
        <pt x="196" y="316" on="1"/>
        <pt x="288" y="316" on="0"/>
        <pt x="386" y="383" on="0"/>
        <pt x="386" y="547" on="0"/>
        <pt x="299" y="605" on="0"/>
      </contour>
    </TTGlyph>
    <TTGlyph name="Rcommaaccent" xMin="61" yMin="-229" xMax="448" yMax="655">
      <contour>
        <pt x="216" y="-207" on="1"/>
        <pt x="241" y="-182" on="0"/>
        <pt x="241" y="-158" on="1"/>
        <pt x="241" y="-150" on="1"/>
        <pt x="217" y="-150" on="1"/>
        <pt x="217" y="-72" on="1"/>
        <pt x="284" y="-72" on="1"/>
        <pt x="284" y="-123" on="1"/>
        <pt x="284" y="-162" on="0"/>
        <pt x="267" y="-206" on="0"/>
        <pt x="238" y="-229" on="1"/>
      </contour>
      <contour>
        <pt x="268" y="269" on="1"/>
        <pt x="214" y="266" on="0"/>
        <pt x="198" y="266" on="1"/>
        <pt x="116" y="266" on="1"/>
        <pt x="116" y="0" on="1"/>
        <pt x="61" y="0" on="1"/>
        <pt x="61" y="655" on="1"/>
        <pt x="208" y="655" on="1"/>
        <pt x="330" y="655" on="0"/>
        <pt x="444" y="571" on="0"/>
        <pt x="444" y="465" on="1"/>
        <pt x="444" y="394" on="0"/>
        <pt x="387" y="308" on="0"/>
        <pt x="324" y="281" on="1"/>
        <pt x="392" y="152" on="0"/>
        <pt x="448" y="0" on="1"/>
        <pt x="388" y="0" on="1"/>
        <pt x="333" y="146" on="0"/>
      </contour>
      <contour>
        <pt x="206" y="605" on="1"/>
        <pt x="116" y="605" on="1"/>
        <pt x="116" y="316" on="1"/>
        <pt x="196" y="316" on="1"/>
        <pt x="288" y="316" on="0"/>
        <pt x="386" y="383" on="0"/>
        <pt x="386" y="547" on="0"/>
        <pt x="299" y="605" on="0"/>
      </contour>
    </TTGlyph>
    <TTGlyph name="S" xMin="54" yMin="-10" xMax="433" yMax="665">
      <contour>
        <pt x="137" y="336" on="0"/>
        <pt x="54" y="419" on="0"/>
        <pt x="54" y="577" on="0"/>
        <pt x="163" y="665" on="0"/>
        <pt x="335" y="665" on="0"/>
        <pt x="424" y="634" on="1"/>
        <pt x="410" y="583" on="1"/>
        <pt x="327" y="613" on="0"/>
        <pt x="188" y="613" on="0"/>
        <pt x="114" y="554" on="0"/>
        <pt x="114" y="442" on="0"/>
        <pt x="174" y="384" on="0"/>
        <pt x="353" y="337" on="0"/>
        <pt x="433" y="260" on="0"/>
        <pt x="433" y="89" on="0"/>
        <pt x="318" y="-10" on="0"/>
        <pt x="227" y="-10" on="1"/>
        <pt x="159" y="-10" on="0"/>
        <pt x="55" y="19" on="1"/>
        <pt x="68" y="70" on="1"/>
        <pt x="170" y="42" on="0"/>
        <pt x="294" y="42" on="0"/>
        <pt x="374" y="111" on="0"/>
        <pt x="374" y="235" on="0"/>
        <pt x="316" y="293" on="0"/>
      </contour>
    </TTGlyph>
    <TTGlyph name="S.001" xMin="0" yMin="60" xMax="500" yMax="266">
      <contour>
        <pt x="452" y="211" on="1"/>
        <pt x="0" y="210" on="1"/>
        <pt x="0" y="265" on="1"/>
        <pt x="500" y="266" on="1"/>
        <pt x="500" y="60" on="1"/>
        <pt x="452" y="60" on="1"/>
      </contour>
    </TTGlyph>
    <TTGlyph name="Sacute" xMin="54" yMin="-10" xMax="433" yMax="862">
      <contour>
        <pt x="158" y="762" on="1"/>
        <pt x="339" y="862" on="1"/>
        <pt x="362" y="813" on="1"/>
        <pt x="179" y="723" on="1"/>
      </contour>
      <contour>
        <pt x="137" y="336" on="0"/>
        <pt x="54" y="419" on="0"/>
        <pt x="54" y="577" on="0"/>
        <pt x="163" y="665" on="0"/>
        <pt x="335" y="665" on="0"/>
        <pt x="424" y="634" on="1"/>
        <pt x="410" y="583" on="1"/>
        <pt x="327" y="613" on="0"/>
        <pt x="188" y="613" on="0"/>
        <pt x="114" y="554" on="0"/>
        <pt x="114" y="442" on="0"/>
        <pt x="174" y="384" on="0"/>
        <pt x="353" y="337" on="0"/>
        <pt x="433" y="260" on="0"/>
        <pt x="433" y="89" on="0"/>
        <pt x="318" y="-10" on="0"/>
        <pt x="227" y="-10" on="1"/>
        <pt x="159" y="-10" on="0"/>
        <pt x="55" y="19" on="1"/>
        <pt x="68" y="70" on="1"/>
        <pt x="170" y="42" on="0"/>
        <pt x="294" y="42" on="0"/>
        <pt x="374" y="111" on="0"/>
        <pt x="374" y="235" on="0"/>
        <pt x="316" y="293" on="0"/>
      </contour>
    </TTGlyph>
    <TTGlyph name="Scaron" xMin="54" yMin="-10" xMax="433" yMax="882">
      <contour>
        <pt x="389" y="882" on="1"/>
        <pt x="263" y="752" on="1"/>
        <pt x="223" y="752" on="1"/>
        <pt x="97" y="882" on="1"/>
        <pt x="156" y="882" on="1"/>
        <pt x="243" y="793" on="1"/>
        <pt x="330" y="882" on="1"/>
      </contour>
      <contour>
        <pt x="137" y="336" on="0"/>
        <pt x="54" y="419" on="0"/>
        <pt x="54" y="577" on="0"/>
        <pt x="163" y="665" on="0"/>
        <pt x="335" y="665" on="0"/>
        <pt x="424" y="634" on="1"/>
        <pt x="410" y="583" on="1"/>
        <pt x="327" y="613" on="0"/>
        <pt x="188" y="613" on="0"/>
        <pt x="114" y="554" on="0"/>
        <pt x="114" y="442" on="0"/>
        <pt x="174" y="384" on="0"/>
        <pt x="353" y="337" on="0"/>
        <pt x="433" y="260" on="0"/>
        <pt x="433" y="89" on="0"/>
        <pt x="318" y="-10" on="0"/>
        <pt x="227" y="-10" on="1"/>
        <pt x="159" y="-10" on="0"/>
        <pt x="55" y="19" on="1"/>
        <pt x="68" y="70" on="1"/>
        <pt x="170" y="42" on="0"/>
        <pt x="294" y="42" on="0"/>
        <pt x="374" y="111" on="0"/>
        <pt x="374" y="235" on="0"/>
        <pt x="316" y="293" on="0"/>
      </contour>
    </TTGlyph>
    <TTGlyph name="Scedilla" xMin="54" yMin="-242" xMax="433" yMax="665">
      <contour>
        <pt x="277" y="-57" on="0"/>
        <pt x="328" y="-104" on="0"/>
        <pt x="328" y="-193" on="0"/>
        <pt x="277" y="-242" on="0"/>
        <pt x="235" y="-242" on="1"/>
        <pt x="212" y="-242" on="0"/>
        <pt x="172" y="-235" on="1"/>
        <pt x="177" y="-192" on="1"/>
        <pt x="197" y="-197" on="0"/>
        <pt x="224" y="-197" on="1"/>
        <pt x="277" y="-197" on="0"/>
        <pt x="277" y="-148" on="1"/>
        <pt x="277" y="-101" on="0"/>
        <pt x="224" y="-101" on="1"/>
        <pt x="206" y="-101" on="0"/>
        <pt x="181" y="-106" on="1"/>
        <pt x="175" y="-65" on="1"/>
        <pt x="207" y="-57" on="0"/>
      </contour>
      <contour>
        <pt x="137" y="336" on="0"/>
        <pt x="54" y="419" on="0"/>
        <pt x="54" y="577" on="0"/>
        <pt x="163" y="665" on="0"/>
        <pt x="335" y="665" on="0"/>
        <pt x="424" y="634" on="1"/>
        <pt x="410" y="583" on="1"/>
        <pt x="327" y="613" on="0"/>
        <pt x="188" y="613" on="0"/>
        <pt x="114" y="554" on="0"/>
        <pt x="114" y="442" on="0"/>
        <pt x="174" y="384" on="0"/>
        <pt x="353" y="337" on="0"/>
        <pt x="433" y="260" on="0"/>
        <pt x="433" y="89" on="0"/>
        <pt x="318" y="-10" on="0"/>
        <pt x="227" y="-10" on="1"/>
        <pt x="159" y="-10" on="0"/>
        <pt x="55" y="19" on="1"/>
        <pt x="68" y="70" on="1"/>
        <pt x="170" y="42" on="0"/>
        <pt x="294" y="42" on="0"/>
        <pt x="374" y="111" on="0"/>
        <pt x="374" y="235" on="0"/>
        <pt x="316" y="293" on="0"/>
      </contour>
    </TTGlyph>
    <TTGlyph name="Scircumflex" xMin="54" yMin="-10" xMax="433" yMax="882">
      <contour>
        <pt x="107" y="752" on="1"/>
        <pt x="233" y="882" on="1"/>
        <pt x="273" y="882" on="1"/>
        <pt x="399" y="752" on="1"/>
        <pt x="341" y="752" on="1"/>
        <pt x="253" y="842" on="1"/>
        <pt x="165" y="752" on="1"/>
      </contour>
      <contour>
        <pt x="137" y="336" on="0"/>
        <pt x="54" y="419" on="0"/>
        <pt x="54" y="577" on="0"/>
        <pt x="163" y="665" on="0"/>
        <pt x="335" y="665" on="0"/>
        <pt x="424" y="634" on="1"/>
        <pt x="410" y="583" on="1"/>
        <pt x="327" y="613" on="0"/>
        <pt x="188" y="613" on="0"/>
        <pt x="114" y="554" on="0"/>
        <pt x="114" y="442" on="0"/>
        <pt x="174" y="384" on="0"/>
        <pt x="353" y="337" on="0"/>
        <pt x="433" y="260" on="0"/>
        <pt x="433" y="89" on="0"/>
        <pt x="318" y="-10" on="0"/>
        <pt x="227" y="-10" on="1"/>
        <pt x="159" y="-10" on="0"/>
        <pt x="55" y="19" on="1"/>
        <pt x="68" y="70" on="1"/>
        <pt x="170" y="42" on="0"/>
        <pt x="294" y="42" on="0"/>
        <pt x="374" y="111" on="0"/>
        <pt x="374" y="235" on="0"/>
        <pt x="316" y="293" on="0"/>
      </contour>
    </TTGlyph>
    <TTGlyph name="Scommaaccent" xMin="54" yMin="-229" xMax="433" yMax="665">
      <contour>
        <pt x="196" y="-207" on="1"/>
        <pt x="221" y="-182" on="0"/>
        <pt x="221" y="-158" on="1"/>
        <pt x="221" y="-150" on="1"/>
        <pt x="197" y="-150" on="1"/>
        <pt x="197" y="-72" on="1"/>
        <pt x="264" y="-72" on="1"/>
        <pt x="264" y="-123" on="1"/>
        <pt x="264" y="-162" on="0"/>
        <pt x="247" y="-206" on="0"/>
        <pt x="218" y="-229" on="1"/>
      </contour>
      <contour>
        <pt x="137" y="336" on="0"/>
        <pt x="54" y="419" on="0"/>
        <pt x="54" y="577" on="0"/>
        <pt x="163" y="665" on="0"/>
        <pt x="335" y="665" on="0"/>
        <pt x="424" y="634" on="1"/>
        <pt x="410" y="583" on="1"/>
        <pt x="327" y="613" on="0"/>
        <pt x="188" y="613" on="0"/>
        <pt x="114" y="554" on="0"/>
        <pt x="114" y="442" on="0"/>
        <pt x="174" y="384" on="0"/>
        <pt x="353" y="337" on="0"/>
        <pt x="433" y="260" on="0"/>
        <pt x="433" y="89" on="0"/>
        <pt x="318" y="-10" on="0"/>
        <pt x="227" y="-10" on="1"/>
        <pt x="159" y="-10" on="0"/>
        <pt x="55" y="19" on="1"/>
        <pt x="68" y="70" on="1"/>
        <pt x="170" y="42" on="0"/>
        <pt x="294" y="42" on="0"/>
        <pt x="374" y="111" on="0"/>
        <pt x="374" y="235" on="0"/>
        <pt x="316" y="293" on="0"/>
      </contour>
    </TTGlyph>
    <TTGlyph name="T" xMin="48" yMin="0" xMax="450" yMax="655">
      <contour>
        <pt x="48" y="604" on="1"/>
        <pt x="48" y="655" on="1"/>
        <pt x="450" y="655" on="1"/>
        <pt x="450" y="604" on="1"/>
        <pt x="276" y="604" on="1"/>
        <pt x="276" y="0" on="1"/>
        <pt x="221" y="0" on="1"/>
        <pt x="221" y="604" on="1"/>
      </contour>
    </TTGlyph>
    <TTGlyph name="T.001" xMin="0" yMin="209" xMax="1000" yMax="415">
      <contour>
        <pt x="0" y="265" on="1"/>
        <pt x="952" y="264" on="1"/>
        <pt x="952" y="415" on="1"/>
        <pt x="1000" y="415" on="1"/>
        <pt x="1000" y="209" on="1"/>
        <pt x="0" y="210" on="1"/>
      </contour>
    </TTGlyph>
    <TTGlyph name="Tbar" xMin="48" yMin="0" xMax="450" yMax="655">
      <contour>
        <pt x="104" y="454" on="1"/>
        <pt x="397" y="454" on="1"/>
        <pt x="397" y="409" on="1"/>
        <pt x="104" y="409" on="1"/>
      </contour>
      <contour>
        <pt x="48" y="604" on="1"/>
        <pt x="48" y="655" on="1"/>
        <pt x="450" y="655" on="1"/>
        <pt x="450" y="604" on="1"/>
        <pt x="276" y="604" on="1"/>
        <pt x="276" y="0" on="1"/>
        <pt x="221" y="0" on="1"/>
        <pt x="221" y="604" on="1"/>
      </contour>
    </TTGlyph>
    <TTGlyph name="Tcaron" xMin="48" yMin="0" xMax="450" yMax="882">
      <contour>
        <pt x="399" y="882" on="1"/>
        <pt x="273" y="752" on="1"/>
        <pt x="233" y="752" on="1"/>
        <pt x="107" y="882" on="1"/>
        <pt x="166" y="882" on="1"/>
        <pt x="253" y="793" on="1"/>
        <pt x="340" y="882" on="1"/>
      </contour>
      <contour>
        <pt x="48" y="604" on="1"/>
        <pt x="48" y="655" on="1"/>
        <pt x="450" y="655" on="1"/>
        <pt x="450" y="604" on="1"/>
        <pt x="276" y="604" on="1"/>
        <pt x="276" y="0" on="1"/>
        <pt x="221" y="0" on="1"/>
        <pt x="221" y="604" on="1"/>
      </contour>
    </TTGlyph>
    <TTGlyph name="Tcommaaccent" xMin="48" yMin="-229" xMax="450" yMax="655">
      <contour>
        <pt x="216" y="-207" on="1"/>
        <pt x="241" y="-182" on="0"/>
        <pt x="241" y="-158" on="1"/>
        <pt x="241" y="-150" on="1"/>
        <pt x="217" y="-150" on="1"/>
        <pt x="217" y="-72" on="1"/>
        <pt x="284" y="-72" on="1"/>
        <pt x="284" y="-123" on="1"/>
        <pt x="284" y="-162" on="0"/>
        <pt x="267" y="-206" on="0"/>
        <pt x="238" y="-229" on="1"/>
      </contour>
      <contour>
        <pt x="48" y="604" on="1"/>
        <pt x="48" y="655" on="1"/>
        <pt x="450" y="655" on="1"/>
        <pt x="450" y="604" on="1"/>
        <pt x="276" y="604" on="1"/>
        <pt x="276" y="0" on="1"/>
        <pt x="221" y="0" on="1"/>
        <pt x="221" y="604" on="1"/>
      </contour>
    </TTGlyph>
    <TTGlyph name="Thorn" xMin="65" yMin="0" xMax="416" yMax="655">
      <contour>
        <pt x="120" y="125" on="1"/>
        <pt x="120" y="0" on="1"/>
        <pt x="65" y="0" on="1"/>
        <pt x="65" y="655" on="1"/>
        <pt x="120" y="655" on="1"/>
        <pt x="120" y="540" on="1"/>
        <pt x="229" y="540" on="1"/>
        <pt x="282" y="540" on="0"/>
        <pt x="365" y="494" on="0"/>
        <pt x="407" y="421" on="0"/>
        <pt x="425" y="332" on="0"/>
        <pt x="404" y="244" on="0"/>
        <pt x="360" y="171" on="0"/>
        <pt x="278" y="125" on="0"/>
        <pt x="227" y="125" on="1"/>
      </contour>
      <contour>
        <pt x="229" y="490" on="1"/>
        <pt x="120" y="490" on="1"/>
        <pt x="120" y="175" on="1"/>
        <pt x="227" y="175" on="1"/>
        <pt x="263" y="175" on="0"/>
        <pt x="321" y="210" on="0"/>
        <pt x="351" y="265" on="0"/>
        <pt x="365" y="332" on="0"/>
        <pt x="352" y="400" on="0"/>
        <pt x="322" y="455" on="0"/>
        <pt x="265" y="490" on="0"/>
      </contour>
    </TTGlyph>
    <TTGlyph name="Thorn.calt" xMin="69" yMin="0" xMax="451" yMax="655">
      <contour>
        <pt x="69" y="0" on="1"/>
        <pt x="69" y="655" on="1"/>
        <pt x="125" y="655" on="1"/>
        <pt x="125" y="550" on="1"/>
        <pt x="216" y="550" on="1"/>
        <pt x="339" y="550" on="0"/>
        <pt x="451" y="468" on="0"/>
        <pt x="451" y="246" on="0"/>
        <pt x="336" y="151" on="0"/>
        <pt x="216" y="151" on="1"/>
        <pt x="124" y="151" on="1"/>
        <pt x="124" y="0" on="1"/>
      </contour>
      <contour>
        <pt x="309" y="201" on="0"/>
        <pt x="393" y="271" on="0"/>
        <pt x="393" y="443" on="0"/>
        <pt x="312" y="500" on="0"/>
        <pt x="216" y="500" on="1"/>
        <pt x="124" y="500" on="1"/>
        <pt x="124" y="201" on="1"/>
        <pt x="216" y="201" on="1"/>
      </contour>
    </TTGlyph>
    <TTGlyph name="U" xMin="54" yMin="-10" xMax="446" yMax="655">
      <contour>
        <pt x="54" y="189" on="1"/>
        <pt x="54" y="655" on="1"/>
        <pt x="109" y="655" on="1"/>
        <pt x="109" y="196" on="1"/>
        <pt x="109" y="42" on="0"/>
        <pt x="250" y="42" on="1"/>
        <pt x="321" y="42" on="0"/>
        <pt x="391" y="127" on="0"/>
        <pt x="391" y="196" on="1"/>
        <pt x="391" y="655" on="1"/>
        <pt x="446" y="655" on="1"/>
        <pt x="446" y="189" on="1"/>
        <pt x="446" y="92" on="0"/>
        <pt x="345" y="-10" on="0"/>
        <pt x="151" y="-10" on="0"/>
        <pt x="54" y="96" on="0"/>
      </contour>
    </TTGlyph>
    <TTGlyph name="U.001" xMin="0" yMin="60" xMax="1000" yMax="266">
      <contour>
        <pt x="952" y="211" on="1"/>
        <pt x="0" y="210" on="1"/>
        <pt x="0" y="265" on="1"/>
        <pt x="1000" y="266" on="1"/>
        <pt x="1000" y="60" on="1"/>
        <pt x="952" y="60" on="1"/>
      </contour>
    </TTGlyph>
    <TTGlyph name="Uacute" xMin="54" yMin="-10" xMax="446" yMax="882">
      <contour>
        <pt x="159" y="794" on="1"/>
        <pt x="363" y="882" on="1"/>
        <pt x="382" y="836" on="1"/>
        <pt x="176" y="752" on="1"/>
      </contour>
      <contour>
        <pt x="54" y="189" on="1"/>
        <pt x="54" y="655" on="1"/>
        <pt x="109" y="655" on="1"/>
        <pt x="109" y="196" on="1"/>
        <pt x="109" y="42" on="0"/>
        <pt x="250" y="42" on="1"/>
        <pt x="321" y="42" on="0"/>
        <pt x="391" y="127" on="0"/>
        <pt x="391" y="196" on="1"/>
        <pt x="391" y="655" on="1"/>
        <pt x="446" y="655" on="1"/>
        <pt x="446" y="189" on="1"/>
        <pt x="446" y="92" on="0"/>
        <pt x="345" y="-10" on="0"/>
        <pt x="151" y="-10" on="0"/>
        <pt x="54" y="96" on="0"/>
      </contour>
    </TTGlyph>
    <TTGlyph name="Ubreve" xMin="54" yMin="-10" xMax="446" yMax="875">
      <contour>
        <pt x="372" y="754" on="0"/>
        <pt x="128" y="754" on="0"/>
        <pt x="114" y="875" on="1"/>
        <pt x="160" y="875" on="1"/>
        <pt x="166" y="834" on="0"/>
        <pt x="207" y="796" on="0"/>
        <pt x="293" y="796" on="0"/>
        <pt x="333" y="833" on="0"/>
        <pt x="339" y="875" on="1"/>
        <pt x="386" y="875" on="1"/>
      </contour>
      <contour>
        <pt x="54" y="189" on="1"/>
        <pt x="54" y="655" on="1"/>
        <pt x="109" y="655" on="1"/>
        <pt x="109" y="196" on="1"/>
        <pt x="109" y="42" on="0"/>
        <pt x="250" y="42" on="1"/>
        <pt x="321" y="42" on="0"/>
        <pt x="391" y="127" on="0"/>
        <pt x="391" y="196" on="1"/>
        <pt x="391" y="655" on="1"/>
        <pt x="446" y="655" on="1"/>
        <pt x="446" y="189" on="1"/>
        <pt x="446" y="92" on="0"/>
        <pt x="345" y="-10" on="0"/>
        <pt x="151" y="-10" on="0"/>
        <pt x="54" y="96" on="0"/>
      </contour>
    </TTGlyph>
    <TTGlyph name="Ucircumflex" xMin="54" yMin="-10" xMax="446" yMax="882">
      <contour>
        <pt x="107" y="752" on="1"/>
        <pt x="233" y="882" on="1"/>
        <pt x="273" y="882" on="1"/>
        <pt x="399" y="752" on="1"/>
        <pt x="341" y="752" on="1"/>
        <pt x="253" y="842" on="1"/>
        <pt x="165" y="752" on="1"/>
      </contour>
      <contour>
        <pt x="54" y="189" on="1"/>
        <pt x="54" y="655" on="1"/>
        <pt x="109" y="655" on="1"/>
        <pt x="109" y="196" on="1"/>
        <pt x="109" y="42" on="0"/>
        <pt x="250" y="42" on="1"/>
        <pt x="321" y="42" on="0"/>
        <pt x="391" y="127" on="0"/>
        <pt x="391" y="196" on="1"/>
        <pt x="391" y="655" on="1"/>
        <pt x="446" y="655" on="1"/>
        <pt x="446" y="189" on="1"/>
        <pt x="446" y="92" on="0"/>
        <pt x="345" y="-10" on="0"/>
        <pt x="151" y="-10" on="0"/>
        <pt x="54" y="96" on="0"/>
      </contour>
    </TTGlyph>
    <TTGlyph name="Udieresis" xMin="54" yMin="-10" xMax="446" yMax="849">
      <contour>
        <pt x="117" y="797" on="0"/>
        <pt x="117" y="827" on="0"/>
        <pt x="137" y="849" on="0"/>
        <pt x="169" y="849" on="0"/>
        <pt x="189" y="827" on="0"/>
        <pt x="189" y="797" on="0"/>
        <pt x="169" y="775" on="0"/>
        <pt x="137" y="775" on="0"/>
      </contour>
      <contour>
        <pt x="310" y="797" on="0"/>
        <pt x="310" y="827" on="0"/>
        <pt x="320" y="838" on="1"/>
        <pt x="330" y="849" on="0"/>
        <pt x="362" y="849" on="0"/>
        <pt x="383" y="827" on="0"/>
        <pt x="383" y="797" on="0"/>
        <pt x="362" y="775" on="0"/>
        <pt x="330" y="775" on="0"/>
      </contour>
      <contour>
        <pt x="54" y="189" on="1"/>
        <pt x="54" y="655" on="1"/>
        <pt x="109" y="655" on="1"/>
        <pt x="109" y="196" on="1"/>
        <pt x="109" y="42" on="0"/>
        <pt x="250" y="42" on="1"/>
        <pt x="321" y="42" on="0"/>
        <pt x="391" y="127" on="0"/>
        <pt x="391" y="196" on="1"/>
        <pt x="391" y="655" on="1"/>
        <pt x="446" y="655" on="1"/>
        <pt x="446" y="189" on="1"/>
        <pt x="446" y="92" on="0"/>
        <pt x="345" y="-10" on="0"/>
        <pt x="151" y="-10" on="0"/>
        <pt x="54" y="96" on="0"/>
      </contour>
    </TTGlyph>
    <TTGlyph name="Ugrave" xMin="54" yMin="-10" xMax="446" yMax="883">
      <contour>
        <pt x="149" y="883" on="1"/>
        <pt x="353" y="795" on="1"/>
        <pt x="336" y="753" on="1"/>
        <pt x="130" y="837" on="1"/>
      </contour>
      <contour>
        <pt x="54" y="189" on="1"/>
        <pt x="54" y="655" on="1"/>
        <pt x="109" y="655" on="1"/>
        <pt x="109" y="196" on="1"/>
        <pt x="109" y="42" on="0"/>
        <pt x="250" y="42" on="1"/>
        <pt x="321" y="42" on="0"/>
        <pt x="391" y="127" on="0"/>
        <pt x="391" y="196" on="1"/>
        <pt x="391" y="655" on="1"/>
        <pt x="446" y="655" on="1"/>
        <pt x="446" y="189" on="1"/>
        <pt x="446" y="92" on="0"/>
        <pt x="345" y="-10" on="0"/>
        <pt x="151" y="-10" on="0"/>
        <pt x="54" y="96" on="0"/>
      </contour>
    </TTGlyph>
    <TTGlyph name="Uhungarumlaut" xMin="54" yMin="-10" xMax="452" yMax="865">
      <contour>
        <pt x="112" y="741" on="1"/>
        <pt x="262" y="865" on="1"/>
        <pt x="295" y="824" on="1"/>
        <pt x="138" y="708" on="1"/>
      </contour>
      <contour>
        <pt x="269" y="741" on="1"/>
        <pt x="420" y="864" on="1"/>
        <pt x="452" y="824" on="1"/>
        <pt x="295" y="708" on="1"/>
      </contour>
      <contour>
        <pt x="54" y="189" on="1"/>
        <pt x="54" y="655" on="1"/>
        <pt x="109" y="655" on="1"/>
        <pt x="109" y="196" on="1"/>
        <pt x="109" y="42" on="0"/>
        <pt x="250" y="42" on="1"/>
        <pt x="321" y="42" on="0"/>
        <pt x="391" y="127" on="0"/>
        <pt x="391" y="196" on="1"/>
        <pt x="391" y="655" on="1"/>
        <pt x="446" y="655" on="1"/>
        <pt x="446" y="189" on="1"/>
        <pt x="446" y="92" on="0"/>
        <pt x="345" y="-10" on="0"/>
        <pt x="151" y="-10" on="0"/>
        <pt x="54" y="96" on="0"/>
      </contour>
    </TTGlyph>
    <TTGlyph name="Umacron" xMin="54" yMin="-10" xMax="446" yMax="834">
      <contour>
        <pt x="104" y="834" on="1"/>
        <pt x="397" y="834" on="1"/>
        <pt x="397" y="789" on="1"/>
        <pt x="104" y="789" on="1"/>
      </contour>
      <contour>
        <pt x="54" y="189" on="1"/>
        <pt x="54" y="655" on="1"/>
        <pt x="109" y="655" on="1"/>
        <pt x="109" y="196" on="1"/>
        <pt x="109" y="42" on="0"/>
        <pt x="250" y="42" on="1"/>
        <pt x="321" y="42" on="0"/>
        <pt x="391" y="127" on="0"/>
        <pt x="391" y="196" on="1"/>
        <pt x="391" y="655" on="1"/>
        <pt x="446" y="655" on="1"/>
        <pt x="446" y="189" on="1"/>
        <pt x="446" y="92" on="0"/>
        <pt x="345" y="-10" on="0"/>
        <pt x="151" y="-10" on="0"/>
        <pt x="54" y="96" on="0"/>
      </contour>
    </TTGlyph>
    <TTGlyph name="Uogonek" xMin="54" yMin="-247" xMax="445" yMax="655">
      <contour>
        <pt x="398" y="-237" on="1"/>
        <pt x="348" y="-247" on="0"/>
        <pt x="277" y="-246" on="0"/>
        <pt x="224" y="-188" on="0"/>
        <pt x="224" y="-110" on="0"/>
        <pt x="256" y="-51" on="0"/>
        <pt x="297" y="-11" on="1"/>
        <pt x="250" y="-11" on="1"/>
        <pt x="154" y="-11" on="0"/>
        <pt x="54" y="98" on="0"/>
        <pt x="54" y="190" on="1"/>
        <pt x="54" y="655" on="1"/>
        <pt x="109" y="655" on="1"/>
        <pt x="109" y="197" on="1"/>
        <pt x="109" y="41" on="0"/>
        <pt x="250" y="41" on="1"/>
        <pt x="299" y="41" on="0"/>
        <pt x="319" y="48" on="1"/>
        <pt x="391" y="73" on="0"/>
        <pt x="391" y="171" on="1"/>
        <pt x="391" y="655" on="1"/>
        <pt x="445" y="655" on="1"/>
        <pt x="445" y="162" on="1"/>
        <pt x="445" y="104" on="0"/>
        <pt x="408" y="30" on="0"/>
        <pt x="306" y="-66" on="0"/>
        <pt x="276" y="-117" on="0"/>
        <pt x="276" y="-167" on="0"/>
        <pt x="305" y="-201" on="0"/>
        <pt x="365" y="-201" on="0"/>
        <pt x="392" y="-195" on="1"/>
      </contour>
    </TTGlyph>
    <TTGlyph name="Uring" xMin="54" yMin="-10" xMax="446" yMax="914">
      <contour>
        <pt x="297" y="914" on="0"/>
        <pt x="354" y="863" on="0"/>
        <pt x="354" y="774" on="0"/>
        <pt x="297" y="723" on="0"/>
        <pt x="202" y="723" on="0"/>
        <pt x="145" y="774" on="0"/>
        <pt x="145" y="863" on="0"/>
        <pt x="202" y="914" on="0"/>
      </contour>
      <contour>
        <pt x="187" y="818" on="1"/>
        <pt x="187" y="791" on="0"/>
        <pt x="220" y="761" on="0"/>
        <pt x="278" y="761" on="0"/>
        <pt x="311" y="791" on="0"/>
        <pt x="311" y="818" on="1"/>
        <pt x="311" y="875" on="0"/>
        <pt x="187" y="875" on="0"/>
      </contour>
      <contour>
        <pt x="54" y="189" on="1"/>
        <pt x="54" y="655" on="1"/>
        <pt x="109" y="655" on="1"/>
        <pt x="109" y="196" on="1"/>
        <pt x="109" y="42" on="0"/>
        <pt x="250" y="42" on="1"/>
        <pt x="321" y="42" on="0"/>
        <pt x="391" y="127" on="0"/>
        <pt x="391" y="196" on="1"/>
        <pt x="391" y="655" on="1"/>
        <pt x="446" y="655" on="1"/>
        <pt x="446" y="189" on="1"/>
        <pt x="446" y="92" on="0"/>
        <pt x="345" y="-10" on="0"/>
        <pt x="151" y="-10" on="0"/>
        <pt x="54" y="96" on="0"/>
      </contour>
    </TTGlyph>
    <TTGlyph name="Utilde" xMin="54" yMin="-10" xMax="446" yMax="872">
      <contour>
        <pt x="379" y="859" on="1"/>
        <pt x="404" y="826" on="1"/>
        <pt x="354" y="771" on="0"/>
        <pt x="286" y="771" on="0"/>
        <pt x="248" y="798" on="1"/>
        <pt x="210" y="825" on="0"/>
        <pt x="166" y="825" on="0"/>
        <pt x="123" y="784" on="1"/>
        <pt x="95" y="818" on="1"/>
        <pt x="152" y="872" on="0"/>
        <pt x="224" y="872" on="0"/>
        <pt x="300" y="819" on="0"/>
        <pt x="336" y="819" on="0"/>
      </contour>
      <contour>
        <pt x="54" y="189" on="1"/>
        <pt x="54" y="655" on="1"/>
        <pt x="109" y="655" on="1"/>
        <pt x="109" y="196" on="1"/>
        <pt x="109" y="42" on="0"/>
        <pt x="250" y="42" on="1"/>
        <pt x="321" y="42" on="0"/>
        <pt x="391" y="127" on="0"/>
        <pt x="391" y="196" on="1"/>
        <pt x="391" y="655" on="1"/>
        <pt x="446" y="655" on="1"/>
        <pt x="446" y="189" on="1"/>
        <pt x="446" y="92" on="0"/>
        <pt x="345" y="-10" on="0"/>
        <pt x="151" y="-10" on="0"/>
        <pt x="54" y="96" on="0"/>
      </contour>
    </TTGlyph>
    <TTGlyph name="V" xMin="43" yMin="0" xMax="459" yMax="655">
      <contour>
        <pt x="43" y="655" on="1"/>
        <pt x="102" y="655" on="1"/>
        <pt x="247" y="49" on="1"/>
        <pt x="257" y="49" on="1"/>
        <pt x="401" y="655" on="1"/>
        <pt x="459" y="655" on="1"/>
        <pt x="298" y="0" on="1"/>
        <pt x="204" y="0" on="1"/>
      </contour>
    </TTGlyph>
    <TTGlyph name="V.001" xMin="0" yMin="210" xMax="500" yMax="409">
      <contour>
        <pt x="0" y="360" on="1"/>
        <pt x="28" y="409" on="1"/>
        <pt x="128" y="341" on="0"/>
        <pt x="334" y="265" on="0"/>
        <pt x="478" y="265" on="1"/>
        <pt x="500" y="265" on="1"/>
        <pt x="500" y="210" on="1"/>
        <pt x="478" y="210" on="1"/>
        <pt x="328" y="210" on="0"/>
        <pt x="104" y="288" on="0"/>
      </contour>
    </TTGlyph>
    <TTGlyph name="V.calt" xMin="43" yMin="0" xMax="459" yMax="655">
      <contour>
        <pt x="201" y="0" on="1"/>
        <pt x="43" y="655" on="1"/>
        <pt x="101" y="655" on="1"/>
        <pt x="243" y="50" on="1"/>
        <pt x="261" y="50" on="1"/>
        <pt x="403" y="655" on="1"/>
        <pt x="459" y="655" on="1"/>
        <pt x="301" y="0" on="1"/>
      </contour>
    </TTGlyph>
    <TTGlyph name="W" xMin="2" yMin="0" xMax="498" yMax="655">
      <contour>
        <pt x="75" y="0" on="1"/>
        <pt x="2" y="655" on="1"/>
        <pt x="59" y="655" on="1"/>
        <pt x="126" y="50" on="1"/>
        <pt x="137" y="50" on="1"/>
        <pt x="225" y="366" on="1"/>
        <pt x="278" y="366" on="1"/>
        <pt x="362" y="50" on="1"/>
        <pt x="374" y="50" on="1"/>
        <pt x="441" y="655" on="1"/>
        <pt x="498" y="655" on="1"/>
        <pt x="425" y="0" on="1"/>
        <pt x="324" y="0" on="1"/>
        <pt x="252" y="282" on="1"/>
        <pt x="249" y="282" on="1"/>
        <pt x="174" y="0" on="1"/>
      </contour>
    </TTGlyph>
    <TTGlyph name="W.001" xMin="0" yMin="66" xMax="500" yMax="265">
      <contour>
        <pt x="28" y="66" on="1"/>
        <pt x="0" y="115" on="1"/>
        <pt x="104" y="187" on="0"/>
        <pt x="328" y="265" on="0"/>
        <pt x="478" y="265" on="1"/>
        <pt x="500" y="265" on="1"/>
        <pt x="500" y="210" on="1"/>
        <pt x="478" y="210" on="1"/>
        <pt x="334" y="210" on="0"/>
        <pt x="128" y="134" on="0"/>
      </contour>
    </TTGlyph>
    <TTGlyph name="W.titl" xMin="3" yMin="0" xMax="495" yMax="655">
      <contour>
        <pt x="437" y="655" on="1"/>
        <pt x="495" y="655" on="1"/>
        <pt x="424" y="0" on="1"/>
        <pt x="325" y="0" on="1"/>
        <pt x="249" y="256" on="1"/>
        <pt x="175" y="0" on="1"/>
        <pt x="74" y="0" on="1"/>
        <pt x="3" y="655" on="1"/>
        <pt x="61" y="655" on="1"/>
        <pt x="125" y="50" on="1"/>
        <pt x="138" y="50" on="1"/>
        <pt x="221" y="323" on="1"/>
        <pt x="221" y="381" on="1"/>
        <pt x="277" y="381" on="1"/>
        <pt x="277" y="323" on="1"/>
        <pt x="361" y="50" on="1"/>
        <pt x="373" y="50" on="1"/>
      </contour>
    </TTGlyph>
    <TTGlyph name="W.titl.sc" xMin="36" yMin="0" xMax="464" yMax="498">
      <contour>
        <pt x="406" y="498" on="1"/>
        <pt x="464" y="498" on="1"/>
        <pt x="405" y="0" on="1"/>
        <pt x="310" y="0" on="1"/>
        <pt x="250" y="188" on="1"/>
        <pt x="192" y="0" on="1"/>
        <pt x="96" y="0" on="1"/>
        <pt x="36" y="498" on="1"/>
        <pt x="93" y="498" on="1"/>
        <pt x="144" y="40" on="1"/>
        <pt x="154" y="40" on="1"/>
        <pt x="221" y="246" on="1"/>
        <pt x="221" y="301" on="1"/>
        <pt x="278" y="301" on="1"/>
        <pt x="278" y="246" on="1"/>
        <pt x="347" y="40" on="1"/>
        <pt x="356" y="40" on="1"/>
      </contour>
    </TTGlyph>
    <TTGlyph name="W.tri" xMin="5" yMin="0" xMax="741" yMax="655">
      <contour>
        <pt x="683" y="655" on="1"/>
        <pt x="741" y="655" on="1"/>
        <pt x="601" y="0" on="1"/>
        <pt x="509" y="0" on="1"/>
        <pt x="377" y="566" on="1"/>
        <pt x="371" y="566" on="1"/>
        <pt x="236" y="0" on="1"/>
        <pt x="145" y="0" on="1"/>
        <pt x="5" y="655" on="1"/>
        <pt x="63" y="655" on="1"/>
        <pt x="187" y="50" on="1"/>
        <pt x="193" y="50" on="1"/>
        <pt x="336" y="623" on="1"/>
        <pt x="412" y="623" on="1"/>
        <pt x="553" y="50" on="1"/>
        <pt x="559" y="50" on="1"/>
      </contour>
    </TTGlyph>
    <TTGlyph name="W.tri.sc" xMin="62" yMin="0" xMax="688" yMax="498">
      <contour>
        <pt x="629" y="498" on="1"/>
        <pt x="688" y="498" on="1"/>
        <pt x="570" y="0" on="1"/>
        <pt x="487" y="0" on="1"/>
        <pt x="378" y="417" on="1"/>
        <pt x="373" y="417" on="1"/>
        <pt x="261" y="0" on="1"/>
        <pt x="179" y="0" on="1"/>
        <pt x="62" y="498" on="1"/>
        <pt x="120" y="498" on="1"/>
        <pt x="219" y="50" on="1"/>
        <pt x="224" y="50" on="1"/>
        <pt x="338" y="473" on="1"/>
        <pt x="412" y="473" on="1"/>
        <pt x="525" y="50" on="1"/>
        <pt x="530" y="50" on="1"/>
      </contour>
    </TTGlyph>
    <TTGlyph name="Wacute" xMin="2" yMin="0" xMax="498" yMax="882">
      <contour>
        <pt x="155" y="794" on="1"/>
        <pt x="359" y="882" on="1"/>
        <pt x="378" y="836" on="1"/>
        <pt x="172" y="752" on="1"/>
      </contour>
      <contour>
        <pt x="75" y="0" on="1"/>
        <pt x="2" y="655" on="1"/>
        <pt x="59" y="655" on="1"/>
        <pt x="126" y="50" on="1"/>
        <pt x="137" y="50" on="1"/>
        <pt x="225" y="366" on="1"/>
        <pt x="278" y="366" on="1"/>
        <pt x="362" y="50" on="1"/>
        <pt x="374" y="50" on="1"/>
        <pt x="441" y="655" on="1"/>
        <pt x="498" y="655" on="1"/>
        <pt x="425" y="0" on="1"/>
        <pt x="324" y="0" on="1"/>
        <pt x="252" y="282" on="1"/>
        <pt x="249" y="282" on="1"/>
        <pt x="174" y="0" on="1"/>
      </contour>
    </TTGlyph>
    <TTGlyph name="Wcircumflex" xMin="2" yMin="0" xMax="498" yMax="882">
      <contour>
        <pt x="107" y="752" on="1"/>
        <pt x="233" y="882" on="1"/>
        <pt x="273" y="882" on="1"/>
        <pt x="399" y="752" on="1"/>
        <pt x="341" y="752" on="1"/>
        <pt x="253" y="842" on="1"/>
        <pt x="165" y="752" on="1"/>
      </contour>
      <contour>
        <pt x="75" y="0" on="1"/>
        <pt x="2" y="655" on="1"/>
        <pt x="59" y="655" on="1"/>
        <pt x="126" y="50" on="1"/>
        <pt x="137" y="50" on="1"/>
        <pt x="225" y="366" on="1"/>
        <pt x="278" y="366" on="1"/>
        <pt x="362" y="50" on="1"/>
        <pt x="374" y="50" on="1"/>
        <pt x="441" y="655" on="1"/>
        <pt x="498" y="655" on="1"/>
        <pt x="425" y="0" on="1"/>
        <pt x="324" y="0" on="1"/>
        <pt x="252" y="282" on="1"/>
        <pt x="249" y="282" on="1"/>
        <pt x="174" y="0" on="1"/>
      </contour>
    </TTGlyph>
    <TTGlyph name="Wdieresis" xMin="2" yMin="0" xMax="498" yMax="849">
      <contour>
        <pt x="117" y="797" on="0"/>
        <pt x="117" y="827" on="0"/>
        <pt x="137" y="849" on="0"/>
        <pt x="169" y="849" on="0"/>
        <pt x="189" y="827" on="0"/>
        <pt x="189" y="797" on="0"/>
        <pt x="169" y="775" on="0"/>
        <pt x="137" y="775" on="0"/>
      </contour>
      <contour>
        <pt x="310" y="797" on="0"/>
        <pt x="310" y="827" on="0"/>
        <pt x="320" y="838" on="1"/>
        <pt x="330" y="849" on="0"/>
        <pt x="362" y="849" on="0"/>
        <pt x="383" y="827" on="0"/>
        <pt x="383" y="797" on="0"/>
        <pt x="362" y="775" on="0"/>
        <pt x="330" y="775" on="0"/>
      </contour>
      <contour>
        <pt x="75" y="0" on="1"/>
        <pt x="2" y="655" on="1"/>
        <pt x="59" y="655" on="1"/>
        <pt x="126" y="50" on="1"/>
        <pt x="137" y="50" on="1"/>
        <pt x="225" y="366" on="1"/>
        <pt x="278" y="366" on="1"/>
        <pt x="362" y="50" on="1"/>
        <pt x="374" y="50" on="1"/>
        <pt x="441" y="655" on="1"/>
        <pt x="498" y="655" on="1"/>
        <pt x="425" y="0" on="1"/>
        <pt x="324" y="0" on="1"/>
        <pt x="252" y="282" on="1"/>
        <pt x="249" y="282" on="1"/>
        <pt x="174" y="0" on="1"/>
      </contour>
    </TTGlyph>
    <TTGlyph name="Wgrave" xMin="2" yMin="0" xMax="498" yMax="883">
      <contour>
        <pt x="160" y="883" on="1"/>
        <pt x="364" y="795" on="1"/>
        <pt x="347" y="753" on="1"/>
        <pt x="141" y="837" on="1"/>
      </contour>
      <contour>
        <pt x="75" y="0" on="1"/>
        <pt x="2" y="655" on="1"/>
        <pt x="59" y="655" on="1"/>
        <pt x="126" y="50" on="1"/>
        <pt x="137" y="50" on="1"/>
        <pt x="225" y="366" on="1"/>
        <pt x="278" y="366" on="1"/>
        <pt x="362" y="50" on="1"/>
        <pt x="374" y="50" on="1"/>
        <pt x="441" y="655" on="1"/>
        <pt x="498" y="655" on="1"/>
        <pt x="425" y="0" on="1"/>
        <pt x="324" y="0" on="1"/>
        <pt x="252" y="282" on="1"/>
        <pt x="249" y="282" on="1"/>
        <pt x="174" y="0" on="1"/>
      </contour>
    </TTGlyph>
    <TTGlyph name="X" xMin="44" yMin="0" xMax="450" yMax="655">
      <contour>
        <pt x="239" y="287" on="1"/>
        <pt x="112" y="0" on="1"/>
        <pt x="44" y="0" on="1"/>
        <pt x="205" y="336" on="1"/>
        <pt x="52" y="655" on="1"/>
        <pt x="122" y="655" on="1"/>
        <pt x="244" y="385" on="1"/>
        <pt x="246" y="385" on="1"/>
        <pt x="367" y="655" on="1"/>
        <pt x="434" y="655" on="1"/>
        <pt x="280" y="336" on="1"/>
        <pt x="450" y="0" on="1"/>
        <pt x="378" y="0" on="1"/>
        <pt x="241" y="287" on="1"/>
      </contour>
    </TTGlyph>
    <TTGlyph name="X.001" xMin="-500" yMin="210" xMax="500" yMax="409">
      <contour>
        <pt x="-500" y="360" on="1"/>
        <pt x="-472" y="409" on="1"/>
        <pt x="-372" y="341" on="0"/>
        <pt x="-166" y="265" on="0"/>
        <pt x="-22" y="265" on="1"/>
        <pt x="500" y="265" on="1"/>
        <pt x="500" y="210" on="1"/>
        <pt x="-22" y="210" on="1"/>
        <pt x="-172" y="210" on="0"/>
        <pt x="-396" y="288" on="0"/>
      </contour>
    </TTGlyph>
    <TTGlyph name="Y" xMin="29" yMin="0" xMax="469" yMax="655">
      <contour>
        <pt x="276" y="283" on="1"/>
        <pt x="276" y="0" on="1"/>
        <pt x="222" y="0" on="1"/>
        <pt x="222" y="283" on="1"/>
        <pt x="29" y="655" on="1"/>
        <pt x="95" y="655" on="1"/>
        <pt x="248" y="340" on="1"/>
        <pt x="250" y="340" on="1"/>
        <pt x="403" y="655" on="1"/>
        <pt x="469" y="655" on="1"/>
      </contour>
    </TTGlyph>
    <TTGlyph name="Y.001" xMin="-500" yMin="66" xMax="500" yMax="265">
      <contour>
        <pt x="-472" y="66" on="1"/>
        <pt x="-500" y="115" on="1"/>
        <pt x="-396" y="187" on="0"/>
        <pt x="-172" y="265" on="0"/>
        <pt x="-22" y="265" on="1"/>
        <pt x="500" y="265" on="1"/>
        <pt x="500" y="210" on="1"/>
        <pt x="-22" y="210" on="1"/>
        <pt x="-166" y="210" on="0"/>
        <pt x="-372" y="134" on="0"/>
      </contour>
    </TTGlyph>
    <TTGlyph name="Yacute" xMin="29" yMin="0" xMax="469" yMax="862">
      <contour>
        <pt x="158" y="762" on="1"/>
        <pt x="339" y="862" on="1"/>
        <pt x="362" y="813" on="1"/>
        <pt x="179" y="723" on="1"/>
      </contour>
      <contour>
        <pt x="276" y="283" on="1"/>
        <pt x="276" y="0" on="1"/>
        <pt x="222" y="0" on="1"/>
        <pt x="222" y="283" on="1"/>
        <pt x="29" y="655" on="1"/>
        <pt x="95" y="655" on="1"/>
        <pt x="248" y="340" on="1"/>
        <pt x="250" y="340" on="1"/>
        <pt x="403" y="655" on="1"/>
        <pt x="469" y="655" on="1"/>
      </contour>
    </TTGlyph>
    <TTGlyph name="Ycircumflex" xMin="29" yMin="0" xMax="469" yMax="882">
      <contour>
        <pt x="107" y="752" on="1"/>
        <pt x="233" y="882" on="1"/>
        <pt x="273" y="882" on="1"/>
        <pt x="399" y="752" on="1"/>
        <pt x="341" y="752" on="1"/>
        <pt x="253" y="842" on="1"/>
        <pt x="165" y="752" on="1"/>
      </contour>
      <contour>
        <pt x="276" y="283" on="1"/>
        <pt x="276" y="0" on="1"/>
        <pt x="222" y="0" on="1"/>
        <pt x="222" y="283" on="1"/>
        <pt x="29" y="655" on="1"/>
        <pt x="95" y="655" on="1"/>
        <pt x="248" y="340" on="1"/>
        <pt x="250" y="340" on="1"/>
        <pt x="403" y="655" on="1"/>
        <pt x="469" y="655" on="1"/>
      </contour>
    </TTGlyph>
    <TTGlyph name="Ydieresis" xMin="29" yMin="0" xMax="469" yMax="849">
      <contour>
        <pt x="278" y="283" on="1"/>
        <pt x="278" y="0" on="1"/>
        <pt x="223" y="0" on="1"/>
        <pt x="223" y="283" on="1"/>
        <pt x="29" y="655" on="1"/>
        <pt x="98" y="655" on="1"/>
        <pt x="250" y="340" on="1"/>
        <pt x="252" y="340" on="1"/>
        <pt x="406" y="655" on="1"/>
        <pt x="469" y="655" on="1"/>
      </contour>
      <contour>
        <pt x="310" y="797" on="0"/>
        <pt x="310" y="827" on="0"/>
        <pt x="320" y="838" on="1"/>
        <pt x="330" y="849" on="0"/>
        <pt x="362" y="849" on="0"/>
        <pt x="383" y="827" on="0"/>
        <pt x="383" y="797" on="0"/>
        <pt x="362" y="775" on="0"/>
        <pt x="330" y="775" on="0"/>
      </contour>
      <contour>
        <pt x="117" y="797" on="0"/>
        <pt x="117" y="827" on="0"/>
        <pt x="137" y="849" on="0"/>
        <pt x="169" y="849" on="0"/>
        <pt x="189" y="827" on="0"/>
        <pt x="189" y="797" on="0"/>
        <pt x="169" y="775" on="0"/>
        <pt x="137" y="775" on="0"/>
      </contour>
    </TTGlyph>
    <TTGlyph name="Ygrave" xMin="29" yMin="0" xMax="469" yMax="883">
      <contour>
        <pt x="160" y="883" on="1"/>
        <pt x="364" y="795" on="1"/>
        <pt x="347" y="753" on="1"/>
        <pt x="141" y="837" on="1"/>
      </contour>
      <contour>
        <pt x="276" y="283" on="1"/>
        <pt x="276" y="0" on="1"/>
        <pt x="222" y="0" on="1"/>
        <pt x="222" y="283" on="1"/>
        <pt x="29" y="655" on="1"/>
        <pt x="95" y="655" on="1"/>
        <pt x="248" y="340" on="1"/>
        <pt x="250" y="340" on="1"/>
        <pt x="403" y="655" on="1"/>
        <pt x="469" y="655" on="1"/>
      </contour>
    </TTGlyph>
    <TTGlyph name="Z" xMin="70" yMin="0" xMax="446" yMax="655">
      <contour>
        <pt x="70" y="605" on="1"/>
        <pt x="70" y="655" on="1"/>
        <pt x="430" y="655" on="1"/>
        <pt x="430" y="615" on="1"/>
        <pt x="135" y="50" on="1"/>
        <pt x="446" y="50" on="1"/>
        <pt x="446" y="0" on="1"/>
        <pt x="70" y="0" on="1"/>
        <pt x="70" y="40" on="1"/>
        <pt x="364" y="605" on="1"/>
      </contour>
    </TTGlyph>
    <TTGlyph name="Z.001" xMin="0" yMin="210" xMax="500" yMax="405">
      <contour>
        <pt x="500" y="265" on="1"/>
        <pt x="500" y="210" on="1"/>
        <pt x="98" y="210" on="1"/>
        <pt x="44" y="210" on="0"/>
        <pt x="0" y="256" on="0"/>
        <pt x="0" y="298" on="1"/>
        <pt x="0" y="405" on="1"/>
        <pt x="52" y="405" on="1"/>
        <pt x="52" y="303" on="1"/>
        <pt x="52" y="282" on="0"/>
        <pt x="77" y="265" on="0"/>
        <pt x="105" y="265" on="1"/>
      </contour>
    </TTGlyph>
    <TTGlyph name="Z.calt" xMin="70" yMin="0" xMax="446" yMax="655">
      <contour>
        <pt x="70" y="605" on="1"/>
        <pt x="70" y="655" on="1"/>
        <pt x="423" y="655" on="1"/>
        <pt x="429" y="613" on="1"/>
        <pt x="135" y="50" on="1"/>
        <pt x="446" y="50" on="1"/>
        <pt x="446" y="0" on="1"/>
        <pt x="77" y="0" on="1"/>
        <pt x="70" y="40" on="1"/>
        <pt x="364" y="605" on="1"/>
      </contour>
    </TTGlyph>
    <TTGlyph name="Zacute" xMin="70" yMin="0" xMax="446" yMax="862">
      <contour>
        <pt x="70" y="605" on="1"/>
        <pt x="70" y="655" on="1"/>
        <pt x="430" y="655" on="1"/>
        <pt x="430" y="615" on="1"/>
        <pt x="135" y="50" on="1"/>
        <pt x="446" y="50" on="1"/>
        <pt x="446" y="0" on="1"/>
        <pt x="70" y="0" on="1"/>
        <pt x="70" y="40" on="1"/>
        <pt x="364" y="605" on="1"/>
      </contour>
      <contour>
        <pt x="158" y="762" on="1"/>
        <pt x="339" y="862" on="1"/>
        <pt x="362" y="813" on="1"/>
        <pt x="179" y="723" on="1"/>
      </contour>
    </TTGlyph>
    <TTGlyph name="Zcaron" xMin="70" yMin="0" xMax="446" yMax="882">
      <contour>
        <pt x="399" y="882" on="1"/>
        <pt x="273" y="752" on="1"/>
        <pt x="233" y="752" on="1"/>
        <pt x="107" y="882" on="1"/>
        <pt x="166" y="882" on="1"/>
        <pt x="253" y="793" on="1"/>
        <pt x="340" y="882" on="1"/>
      </contour>
      <contour>
        <pt x="70" y="605" on="1"/>
        <pt x="70" y="655" on="1"/>
        <pt x="430" y="655" on="1"/>
        <pt x="430" y="615" on="1"/>
        <pt x="135" y="50" on="1"/>
        <pt x="446" y="50" on="1"/>
        <pt x="446" y="0" on="1"/>
        <pt x="70" y="0" on="1"/>
        <pt x="70" y="40" on="1"/>
        <pt x="364" y="605" on="1"/>
      </contour>
    </TTGlyph>
    <TTGlyph name="Zdotaccent" xMin="70" yMin="0" xMax="446" yMax="849">
      <contour>
        <pt x="70" y="605" on="1"/>
        <pt x="70" y="655" on="1"/>
        <pt x="430" y="655" on="1"/>
        <pt x="430" y="615" on="1"/>
        <pt x="135" y="50" on="1"/>
        <pt x="446" y="50" on="1"/>
        <pt x="446" y="0" on="1"/>
        <pt x="70" y="0" on="1"/>
        <pt x="70" y="40" on="1"/>
        <pt x="364" y="605" on="1"/>
      </contour>
      <contour>
        <pt x="213" y="797" on="0"/>
        <pt x="213" y="827" on="0"/>
        <pt x="234" y="849" on="0"/>
        <pt x="266" y="849" on="0"/>
        <pt x="286" y="827" on="0"/>
        <pt x="286" y="797" on="0"/>
        <pt x="276" y="786" on="1"/>
        <pt x="266" y="775" on="0"/>
        <pt x="234" y="775" on="0"/>
      </contour>
    </TTGlyph>
    <TTGlyph name="a" xMin="60" yMin="-9" xMax="423" yMax="481">
      <contour>
        <pt x="218" y="43" on="1"/>
        <pt x="255" y="43" on="0"/>
        <pt x="342" y="90" on="0"/>
        <pt x="362" y="110" on="1"/>
        <pt x="362" y="229" on="1"/>
        <pt x="296" y="234" on="0"/>
        <pt x="176" y="234" on="0"/>
        <pt x="116" y="183" on="0"/>
        <pt x="116" y="140" on="1"/>
        <pt x="116" y="43" on="0"/>
      </contour>
      <contour>
        <pt x="217" y="-9" on="1"/>
        <pt x="144" y="-9" on="0"/>
        <pt x="60" y="66" on="0"/>
        <pt x="60" y="204" on="0"/>
        <pt x="106" y="242" on="1"/>
        <pt x="152" y="281" on="0"/>
        <pt x="304" y="281" on="0"/>
        <pt x="362" y="275" on="1"/>
        <pt x="362" y="364" on="0"/>
        <pt x="318" y="429" on="0"/>
        <pt x="184" y="429" on="0"/>
        <pt x="93" y="397" on="1"/>
        <pt x="78" y="447" on="1"/>
        <pt x="171" y="481" on="0"/>
        <pt x="246" y="481" on="1"/>
        <pt x="345" y="481" on="0"/>
        <pt x="415" y="393" on="0"/>
        <pt x="415" y="283" on="1"/>
        <pt x="415" y="73" on="1"/>
        <pt x="423" y="-3" on="1"/>
        <pt x="372" y="-8" on="1"/>
        <pt x="362" y="52" on="1"/>
        <pt x="339" y="32" on="0"/>
        <pt x="255" y="-9" on="0"/>
      </contour>
    </TTGlyph>
    <TTGlyph name="a.001" xMin="0" yMin="70" xMax="500" yMax="265">
      <contour>
        <pt x="500" y="265" on="1"/>
        <pt x="500" y="210" on="1"/>
        <pt x="105" y="210" on="1"/>
        <pt x="77" y="210" on="0"/>
        <pt x="52" y="193" on="0"/>
        <pt x="52" y="172" on="1"/>
        <pt x="52" y="70" on="1"/>
        <pt x="0" y="70" on="1"/>
        <pt x="0" y="177" on="1"/>
        <pt x="0" y="219" on="0"/>
        <pt x="44" y="265" on="0"/>
        <pt x="98" y="265" on="1"/>
      </contour>
    </TTGlyph>
    <TTGlyph name="a.sc" xMin="52" yMin="0" xMax="448" yMax="517">
      <contour>
        <pt x="52" y="0" on="1"/>
        <pt x="211" y="517" on="1"/>
        <pt x="299" y="517" on="1"/>
        <pt x="448" y="0" on="1"/>
        <pt x="391" y="0" on="1"/>
        <pt x="358" y="113" on="1"/>
        <pt x="142" y="113" on="1"/>
        <pt x="109" y="0" on="1"/>
      </contour>
      <contour>
        <pt x="345" y="163" on="1"/>
        <pt x="258" y="470" on="1"/>
        <pt x="250" y="470" on="1"/>
        <pt x="156" y="163" on="1"/>
      </contour>
    </TTGlyph>
    <TTGlyph name="aacute" xMin="60" yMin="-9" xMax="423" yMax="717">
      <contour>
        <pt x="218" y="43" on="1"/>
        <pt x="255" y="43" on="0"/>
        <pt x="342" y="90" on="0"/>
        <pt x="362" y="110" on="1"/>
        <pt x="362" y="229" on="1"/>
        <pt x="296" y="234" on="0"/>
        <pt x="176" y="234" on="0"/>
        <pt x="116" y="183" on="0"/>
        <pt x="116" y="140" on="1"/>
        <pt x="116" y="43" on="0"/>
      </contour>
      <contour>
        <pt x="217" y="-9" on="1"/>
        <pt x="144" y="-9" on="0"/>
        <pt x="60" y="66" on="0"/>
        <pt x="60" y="204" on="0"/>
        <pt x="106" y="242" on="1"/>
        <pt x="152" y="281" on="0"/>
        <pt x="304" y="281" on="0"/>
        <pt x="362" y="275" on="1"/>
        <pt x="362" y="364" on="0"/>
        <pt x="318" y="429" on="0"/>
        <pt x="184" y="429" on="0"/>
        <pt x="93" y="397" on="1"/>
        <pt x="78" y="447" on="1"/>
        <pt x="171" y="481" on="0"/>
        <pt x="246" y="481" on="1"/>
        <pt x="345" y="481" on="0"/>
        <pt x="415" y="393" on="0"/>
        <pt x="415" y="283" on="1"/>
        <pt x="415" y="73" on="1"/>
        <pt x="423" y="-3" on="1"/>
        <pt x="372" y="-8" on="1"/>
        <pt x="362" y="52" on="1"/>
        <pt x="339" y="32" on="0"/>
        <pt x="255" y="-9" on="0"/>
      </contour>
      <contour>
        <pt x="135" y="617" on="1"/>
        <pt x="316" y="717" on="1"/>
        <pt x="339" y="668" on="1"/>
        <pt x="156" y="578" on="1"/>
      </contour>
    </TTGlyph>
    <TTGlyph name="aacute.sc" xMin="52" yMin="0" xMax="448" yMax="697">
      <contour>
        <pt x="52" y="0" on="1"/>
        <pt x="211" y="517" on="1"/>
        <pt x="299" y="517" on="1"/>
        <pt x="448" y="0" on="1"/>
        <pt x="391" y="0" on="1"/>
        <pt x="358" y="113" on="1"/>
        <pt x="142" y="113" on="1"/>
        <pt x="109" y="0" on="1"/>
      </contour>
      <contour>
        <pt x="345" y="163" on="1"/>
        <pt x="258" y="470" on="1"/>
        <pt x="250" y="470" on="1"/>
        <pt x="156" y="163" on="1"/>
      </contour>
      <contour>
        <pt x="147" y="597" on="1"/>
        <pt x="328" y="697" on="1"/>
        <pt x="351" y="648" on="1"/>
        <pt x="168" y="558" on="1"/>
      </contour>
    </TTGlyph>
    <TTGlyph name="abreve" xMin="60" yMin="-9" xMax="423" yMax="700">
      <contour>
        <pt x="218" y="43" on="1"/>
        <pt x="255" y="43" on="0"/>
        <pt x="342" y="90" on="0"/>
        <pt x="362" y="110" on="1"/>
        <pt x="362" y="229" on="1"/>
        <pt x="296" y="234" on="0"/>
        <pt x="176" y="234" on="0"/>
        <pt x="116" y="183" on="0"/>
        <pt x="116" y="140" on="1"/>
        <pt x="116" y="43" on="0"/>
      </contour>
      <contour>
        <pt x="217" y="-9" on="1"/>
        <pt x="144" y="-9" on="0"/>
        <pt x="60" y="66" on="0"/>
        <pt x="60" y="204" on="0"/>
        <pt x="106" y="242" on="1"/>
        <pt x="152" y="281" on="0"/>
        <pt x="304" y="281" on="0"/>
        <pt x="362" y="275" on="1"/>
        <pt x="362" y="364" on="0"/>
        <pt x="318" y="429" on="0"/>
        <pt x="184" y="429" on="0"/>
        <pt x="93" y="397" on="1"/>
        <pt x="78" y="447" on="1"/>
        <pt x="171" y="481" on="0"/>
        <pt x="246" y="481" on="1"/>
        <pt x="345" y="481" on="0"/>
        <pt x="415" y="393" on="0"/>
        <pt x="415" y="283" on="1"/>
        <pt x="415" y="73" on="1"/>
        <pt x="423" y="-3" on="1"/>
        <pt x="372" y="-8" on="1"/>
        <pt x="362" y="52" on="1"/>
        <pt x="339" y="32" on="0"/>
        <pt x="255" y="-9" on="0"/>
      </contour>
      <contour>
        <pt x="372" y="579" on="0"/>
        <pt x="128" y="579" on="0"/>
        <pt x="114" y="700" on="1"/>
        <pt x="160" y="700" on="1"/>
        <pt x="166" y="659" on="0"/>
        <pt x="207" y="621" on="0"/>
        <pt x="293" y="621" on="0"/>
        <pt x="333" y="658" on="0"/>
        <pt x="339" y="700" on="1"/>
        <pt x="386" y="700" on="1"/>
      </contour>
    </TTGlyph>
    <TTGlyph name="abreve.sc" xMin="52" yMin="0" xMax="448" yMax="700">
      <contour>
        <pt x="372" y="579" on="0"/>
        <pt x="128" y="579" on="0"/>
        <pt x="114" y="700" on="1"/>
        <pt x="160" y="700" on="1"/>
        <pt x="166" y="659" on="0"/>
        <pt x="207" y="621" on="0"/>
        <pt x="293" y="621" on="0"/>
        <pt x="333" y="658" on="0"/>
        <pt x="339" y="700" on="1"/>
        <pt x="386" y="700" on="1"/>
      </contour>
      <contour>
        <pt x="52" y="0" on="1"/>
        <pt x="211" y="517" on="1"/>
        <pt x="299" y="517" on="1"/>
        <pt x="448" y="0" on="1"/>
        <pt x="391" y="0" on="1"/>
        <pt x="358" y="113" on="1"/>
        <pt x="142" y="113" on="1"/>
        <pt x="109" y="0" on="1"/>
      </contour>
      <contour>
        <pt x="345" y="163" on="1"/>
        <pt x="258" y="470" on="1"/>
        <pt x="250" y="470" on="1"/>
        <pt x="156" y="163" on="1"/>
      </contour>
    </TTGlyph>
    <TTGlyph name="acircumflex" xMin="60" yMin="-9" xMax="423" yMax="750">
      <contour>
        <pt x="218" y="43" on="1"/>
        <pt x="255" y="43" on="0"/>
        <pt x="342" y="90" on="0"/>
        <pt x="362" y="110" on="1"/>
        <pt x="362" y="229" on="1"/>
        <pt x="296" y="234" on="0"/>
        <pt x="176" y="234" on="0"/>
        <pt x="116" y="183" on="0"/>
        <pt x="116" y="140" on="1"/>
        <pt x="116" y="43" on="0"/>
      </contour>
      <contour>
        <pt x="217" y="-9" on="1"/>
        <pt x="144" y="-9" on="0"/>
        <pt x="60" y="66" on="0"/>
        <pt x="60" y="204" on="0"/>
        <pt x="106" y="242" on="1"/>
        <pt x="152" y="281" on="0"/>
        <pt x="304" y="281" on="0"/>
        <pt x="362" y="275" on="1"/>
        <pt x="362" y="364" on="0"/>
        <pt x="318" y="429" on="0"/>
        <pt x="184" y="429" on="0"/>
        <pt x="93" y="397" on="1"/>
        <pt x="78" y="447" on="1"/>
        <pt x="171" y="481" on="0"/>
        <pt x="246" y="481" on="1"/>
        <pt x="345" y="481" on="0"/>
        <pt x="415" y="393" on="0"/>
        <pt x="415" y="283" on="1"/>
        <pt x="415" y="73" on="1"/>
        <pt x="423" y="-3" on="1"/>
        <pt x="372" y="-8" on="1"/>
        <pt x="362" y="52" on="1"/>
        <pt x="339" y="32" on="0"/>
        <pt x="255" y="-9" on="0"/>
      </contour>
      <contour>
        <pt x="273" y="750" on="1"/>
        <pt x="401" y="588" on="1"/>
        <pt x="343" y="588" on="1"/>
        <pt x="250" y="710" on="1"/>
        <pt x="157" y="588" on="1"/>
        <pt x="99" y="588" on="1"/>
        <pt x="227" y="750" on="1"/>
      </contour>
    </TTGlyph>
    <TTGlyph name="acircumflex.sc" xMin="52" yMin="0" xMax="448" yMax="695">
      <contour>
        <pt x="52" y="0" on="1"/>
        <pt x="211" y="517" on="1"/>
        <pt x="299" y="517" on="1"/>
        <pt x="448" y="0" on="1"/>
        <pt x="391" y="0" on="1"/>
        <pt x="358" y="113" on="1"/>
        <pt x="142" y="113" on="1"/>
        <pt x="109" y="0" on="1"/>
      </contour>
      <contour>
        <pt x="345" y="163" on="1"/>
        <pt x="258" y="470" on="1"/>
        <pt x="250" y="470" on="1"/>
        <pt x="156" y="163" on="1"/>
      </contour>
      <contour>
        <pt x="110" y="585" on="1"/>
        <pt x="229" y="695" on="1"/>
        <pt x="281" y="695" on="1"/>
        <pt x="401" y="585" on="1"/>
        <pt x="372" y="551" on="1"/>
        <pt x="255" y="652" on="1"/>
        <pt x="140" y="551" on="1"/>
      </contour>
    </TTGlyph>
    <TTGlyph name="acorn.left" xMin="0" yMin="-28" xMax="407" yMax="659">
      <contour>
        <pt x="365" y="628" on="1"/>
        <pt x="346" y="627" on="1"/>
        <pt x="338" y="581" on="0"/>
        <pt x="282" y="506" on="0"/>
        <pt x="240" y="486" on="1"/>
        <pt x="244" y="450" on="0"/>
        <pt x="256" y="396" on="1"/>
        <pt x="266" y="352" on="1"/>
        <pt x="273" y="352" on="1"/>
        <pt x="335" y="347" on="0"/>
        <pt x="396" y="293" on="0"/>
        <pt x="388" y="189" on="0"/>
        <pt x="349" y="167" on="1"/>
        <pt x="339" y="79" on="1"/>
        <pt x="336" y="42" on="0"/>
        <pt x="292" y="2" on="0"/>
        <pt x="260" y="0" on="1"/>
        <pt x="258" y="-28" on="1"/>
        <pt x="233" y="-26" on="1"/>
        <pt x="235" y="1" on="1"/>
        <pt x="205" y="7" on="0"/>
        <pt x="168" y="58" on="0"/>
        <pt x="171" y="92" on="1"/>
        <pt x="171" y="179" on="1"/>
        <pt x="131" y="208" on="0"/>
        <pt x="137" y="261" on="1"/>
        <pt x="143" y="343" on="0"/>
        <pt x="233" y="351" on="1"/>
        <pt x="225" y="388" on="1"/>
        <pt x="214" y="431" on="0"/>
        <pt x="209" y="474" on="1"/>
        <pt x="182" y="465" on="0"/>
        <pt x="151" y="465" on="1"/>
        <pt x="100" y="465" on="1"/>
        <pt x="100" y="494" on="1"/>
        <pt x="74" y="492" on="1"/>
        <pt x="-2" y="495" on="0"/>
        <pt x="0" y="596" on="1"/>
        <pt x="2" y="596" on="0"/>
        <pt x="9" y="597" on="0"/>
        <pt x="30" y="596" on="0"/>
        <pt x="49" y="592" on="0"/>
        <pt x="72" y="581" on="0"/>
        <pt x="80" y="573" on="1"/>
        <pt x="100" y="555" on="0"/>
        <pt x="100" y="518" on="1"/>
        <pt x="100" y="494" on="1"/>
        <pt x="151" y="494" on="1"/>
        <pt x="183" y="494" on="0"/>
        <pt x="207" y="504" on="1"/>
        <pt x="205" y="583" on="0"/>
        <pt x="281" y="659" on="0"/>
        <pt x="364" y="659" on="1"/>
        <pt x="407" y="659" on="1"/>
        <pt x="407" y="628" on="1"/>
      </contour>
      <contour>
        <pt x="175" y="227" on="1"/>
        <pt x="205" y="211" on="1"/>
        <pt x="225" y="233" on="0"/>
        <pt x="302" y="226" on="0"/>
        <pt x="318" y="203" on="1"/>
        <pt x="349" y="216" on="1"/>
        <pt x="327" y="259" on="0"/>
        <pt x="203" y="266" on="0"/>
      </contour>
      <contour>
        <pt x="313" y="622" on="1"/>
        <pt x="242" y="604" on="0"/>
        <pt x="239" y="520" on="1"/>
        <pt x="296" y="555" on="0"/>
      </contour>
    </TTGlyph>
    <TTGlyph name="acorn.right" xMin="93" yMin="-28" xMax="500" yMax="659">
      <contour>
        <pt x="154" y="627" on="1"/>
        <pt x="135" y="628" on="1"/>
        <pt x="93" y="628" on="1"/>
        <pt x="93" y="659" on="1"/>
        <pt x="136" y="659" on="1"/>
        <pt x="219" y="659" on="0"/>
        <pt x="294" y="583" on="0"/>
        <pt x="292" y="504" on="1"/>
        <pt x="318" y="494" on="0"/>
        <pt x="349" y="494" on="1"/>
        <pt x="400" y="494" on="1"/>
        <pt x="400" y="465" on="1"/>
        <pt x="349" y="465" on="1"/>
        <pt x="318" y="465" on="0"/>
        <pt x="290" y="474" on="1"/>
        <pt x="288" y="444" on="0"/>
        <pt x="275" y="388" on="1"/>
        <pt x="266" y="351" on="1"/>
        <pt x="357" y="343" on="0"/>
        <pt x="363" y="261" on="1"/>
        <pt x="367" y="207" on="0"/>
        <pt x="329" y="179" on="1"/>
        <pt x="329" y="92" on="1"/>
        <pt x="331" y="58" on="0"/>
        <pt x="294" y="7" on="0"/>
        <pt x="265" y="1" on="1"/>
        <pt x="267" y="-26" on="1"/>
        <pt x="242" y="-28" on="1"/>
        <pt x="239" y="0" on="1"/>
        <pt x="208" y="2" on="0"/>
        <pt x="163" y="43" on="0"/>
        <pt x="161" y="79" on="1"/>
        <pt x="151" y="167" on="1"/>
        <pt x="112" y="190" on="0"/>
        <pt x="104" y="293" on="0"/>
        <pt x="165" y="347" on="0"/>
        <pt x="227" y="352" on="1"/>
        <pt x="234" y="352" on="1"/>
        <pt x="244" y="396" on="1"/>
        <pt x="257" y="452" on="0"/>
        <pt x="259" y="486" on="1"/>
        <pt x="218" y="506" on="0"/>
        <pt x="162" y="581" on="0"/>
      </contour>
      <contour>
        <pt x="400" y="494" on="1"/>
        <pt x="400" y="518" on="1"/>
        <pt x="400" y="558" on="0"/>
        <pt x="425" y="578" on="1"/>
        <pt x="450" y="596" on="0"/>
        <pt x="475" y="596" on="1"/>
        <pt x="500" y="596" on="1"/>
        <pt x="501" y="499" on="0"/>
        <pt x="431" y="492" on="1"/>
        <pt x="410" y="490" on="0"/>
      </contour>
      <contour>
        <pt x="295" y="211" on="1"/>
        <pt x="325" y="227" on="1"/>
        <pt x="297" y="266" on="0"/>
        <pt x="173" y="259" on="0"/>
        <pt x="151" y="216" on="1"/>
        <pt x="182" y="203" on="1"/>
        <pt x="198" y="226" on="0"/>
        <pt x="275" y="233" on="0"/>
      </contour>
      <contour>
        <pt x="187" y="622" on="1"/>
        <pt x="202" y="557" on="0"/>
        <pt x="260" y="520" on="1"/>
        <pt x="258" y="603" on="0"/>
      </contour>
    </TTGlyph>
    <TTGlyph name="adieresis" xMin="60" yMin="-9" xMax="423" yMax="684">
      <contour>
        <pt x="218" y="43" on="1"/>
        <pt x="255" y="43" on="0"/>
        <pt x="342" y="90" on="0"/>
        <pt x="362" y="110" on="1"/>
        <pt x="362" y="229" on="1"/>
        <pt x="296" y="234" on="0"/>
        <pt x="176" y="234" on="0"/>
        <pt x="116" y="183" on="0"/>
        <pt x="116" y="140" on="1"/>
        <pt x="116" y="43" on="0"/>
      </contour>
      <contour>
        <pt x="217" y="-9" on="1"/>
        <pt x="144" y="-9" on="0"/>
        <pt x="60" y="66" on="0"/>
        <pt x="60" y="204" on="0"/>
        <pt x="106" y="242" on="1"/>
        <pt x="152" y="281" on="0"/>
        <pt x="304" y="281" on="0"/>
        <pt x="362" y="275" on="1"/>
        <pt x="362" y="364" on="0"/>
        <pt x="318" y="429" on="0"/>
        <pt x="184" y="429" on="0"/>
        <pt x="93" y="397" on="1"/>
        <pt x="78" y="447" on="1"/>
        <pt x="171" y="481" on="0"/>
        <pt x="246" y="481" on="1"/>
        <pt x="345" y="481" on="0"/>
        <pt x="415" y="393" on="0"/>
        <pt x="415" y="283" on="1"/>
        <pt x="415" y="73" on="1"/>
        <pt x="423" y="-3" on="1"/>
        <pt x="372" y="-8" on="1"/>
        <pt x="362" y="52" on="1"/>
        <pt x="339" y="32" on="0"/>
        <pt x="255" y="-9" on="0"/>
      </contour>
      <contour>
        <pt x="117" y="632" on="0"/>
        <pt x="117" y="662" on="0"/>
        <pt x="137" y="684" on="0"/>
        <pt x="169" y="684" on="0"/>
        <pt x="189" y="662" on="0"/>
        <pt x="189" y="632" on="0"/>
        <pt x="169" y="610" on="0"/>
        <pt x="137" y="610" on="0"/>
      </contour>
      <contour>
        <pt x="310" y="632" on="0"/>
        <pt x="310" y="662" on="0"/>
        <pt x="320" y="673" on="1"/>
        <pt x="330" y="684" on="0"/>
        <pt x="362" y="684" on="0"/>
        <pt x="383" y="662" on="0"/>
        <pt x="383" y="632" on="0"/>
        <pt x="362" y="610" on="0"/>
        <pt x="330" y="610" on="0"/>
      </contour>
    </TTGlyph>
    <TTGlyph name="adieresis.sc" xMin="52" yMin="0" xMax="448" yMax="663">
      <contour>
        <pt x="52" y="0" on="1"/>
        <pt x="211" y="517" on="1"/>
        <pt x="299" y="517" on="1"/>
        <pt x="448" y="0" on="1"/>
        <pt x="391" y="0" on="1"/>
        <pt x="358" y="113" on="1"/>
        <pt x="142" y="113" on="1"/>
        <pt x="109" y="0" on="1"/>
      </contour>
      <contour>
        <pt x="345" y="163" on="1"/>
        <pt x="258" y="470" on="1"/>
        <pt x="250" y="470" on="1"/>
        <pt x="156" y="163" on="1"/>
      </contour>
      <contour>
        <pt x="117" y="611" on="0"/>
        <pt x="117" y="641" on="0"/>
        <pt x="137" y="663" on="0"/>
        <pt x="169" y="663" on="0"/>
        <pt x="189" y="641" on="0"/>
        <pt x="189" y="611" on="0"/>
        <pt x="169" y="589" on="0"/>
        <pt x="137" y="589" on="0"/>
      </contour>
      <contour>
        <pt x="310" y="611" on="0"/>
        <pt x="310" y="641" on="0"/>
        <pt x="320" y="652" on="1"/>
        <pt x="330" y="663" on="0"/>
        <pt x="362" y="663" on="0"/>
        <pt x="383" y="641" on="0"/>
        <pt x="383" y="611" on="0"/>
        <pt x="362" y="589" on="0"/>
        <pt x="330" y="589" on="0"/>
      </contour>
    </TTGlyph>
    <TTGlyph name="ae" xMin="19" yMin="-10" xMax="485" yMax="480">
      <contour>
        <pt x="135" y="-10" on="1"/>
        <pt x="82" y="-10" on="0"/>
        <pt x="19" y="67" on="0"/>
        <pt x="19" y="196" on="0"/>
        <pt x="92" y="269" on="0"/>
        <pt x="156" y="269" on="1"/>
        <pt x="221" y="269" on="1"/>
        <pt x="221" y="370" on="0"/>
        <pt x="210" y="397" on="0"/>
        <pt x="204" y="407" on="1"/>
        <pt x="194" y="423" on="0"/>
        <pt x="116" y="423" on="0"/>
        <pt x="52" y="392" on="1"/>
        <pt x="34" y="440" on="1"/>
        <pt x="106" y="475" on="0"/>
        <pt x="203" y="475" on="0"/>
        <pt x="248" y="448" on="0"/>
        <pt x="259" y="415" on="1"/>
        <pt x="286" y="480" on="0"/>
        <pt x="425" y="480" on="0"/>
        <pt x="485" y="379" on="0"/>
        <pt x="485" y="269" on="1"/>
        <pt x="482" y="217" on="1"/>
        <pt x="274" y="217" on="1"/>
        <pt x="284" y="84" on="0"/>
        <pt x="324" y="54" on="1"/>
        <pt x="342" y="40" on="0"/>
        <pt x="363" y="41" on="1"/>
        <pt x="396" y="42" on="0"/>
        <pt x="448" y="58" on="1"/>
        <pt x="466" y="63" on="1"/>
        <pt x="481" y="15" on="1"/>
        <pt x="416" y="-10" on="0"/>
        <pt x="329" y="-10" on="0"/>
        <pt x="275" y="23" on="0"/>
        <pt x="255" y="60" on="1"/>
        <pt x="217" y="-10" on="0"/>
      </contour>
      <contour>
        <pt x="221" y="92" on="1"/>
        <pt x="221" y="218" on="1"/>
        <pt x="156" y="218" on="1"/>
        <pt x="118" y="218" on="0"/>
        <pt x="75" y="174" on="0"/>
        <pt x="75" y="134" on="1"/>
        <pt x="75" y="41" on="0"/>
        <pt x="140" y="41" on="1"/>
        <pt x="180" y="42" on="0"/>
        <pt x="208" y="74" on="1"/>
        <pt x="214" y="82" on="0"/>
      </contour>
      <contour>
        <pt x="428" y="349" on="0"/>
        <pt x="397" y="428" on="0"/>
        <pt x="311" y="428" on="0"/>
        <pt x="276" y="352" on="0"/>
        <pt x="274" y="267" on="1"/>
        <pt x="428" y="267" on="1"/>
      </contour>
    </TTGlyph>
    <TTGlyph name="ae.sc" xMin="52" yMin="0" xMax="462" yMax="517">
      <contour>
        <pt x="52" y="0" on="1"/>
        <pt x="211" y="517" on="1"/>
        <pt x="459" y="517" on="1"/>
        <pt x="459" y="468" on="1"/>
        <pt x="312" y="468" on="1"/>
        <pt x="312" y="288" on="1"/>
        <pt x="437" y="288" on="1"/>
        <pt x="437" y="239" on="1"/>
        <pt x="312" y="239" on="1"/>
        <pt x="312" y="49" on="1"/>
        <pt x="462" y="49" on="1"/>
        <pt x="462" y="0" on="1"/>
        <pt x="258" y="0" on="1"/>
        <pt x="258" y="113" on="1"/>
        <pt x="142" y="113" on="1"/>
        <pt x="109" y="0" on="1"/>
      </contour>
      <contour>
        <pt x="258" y="163" on="1"/>
        <pt x="258" y="470" on="1"/>
        <pt x="250" y="470" on="1"/>
        <pt x="156" y="163" on="1"/>
      </contour>
    </TTGlyph>
    <TTGlyph name="aeacute" xMin="19" yMin="-10" xMax="485" yMax="717">
      <contour>
        <pt x="148" y="617" on="1"/>
        <pt x="329" y="717" on="1"/>
        <pt x="352" y="668" on="1"/>
        <pt x="169" y="578" on="1"/>
      </contour>
      <contour>
        <pt x="135" y="-10" on="1"/>
        <pt x="82" y="-10" on="0"/>
        <pt x="19" y="67" on="0"/>
        <pt x="19" y="196" on="0"/>
        <pt x="92" y="269" on="0"/>
        <pt x="156" y="269" on="1"/>
        <pt x="221" y="269" on="1"/>
        <pt x="221" y="370" on="0"/>
        <pt x="210" y="397" on="0"/>
        <pt x="204" y="407" on="1"/>
        <pt x="194" y="423" on="0"/>
        <pt x="116" y="423" on="0"/>
        <pt x="52" y="392" on="1"/>
        <pt x="34" y="440" on="1"/>
        <pt x="106" y="475" on="0"/>
        <pt x="203" y="475" on="0"/>
        <pt x="248" y="448" on="0"/>
        <pt x="259" y="415" on="1"/>
        <pt x="286" y="480" on="0"/>
        <pt x="425" y="480" on="0"/>
        <pt x="485" y="379" on="0"/>
        <pt x="485" y="269" on="1"/>
        <pt x="482" y="217" on="1"/>
        <pt x="274" y="217" on="1"/>
        <pt x="284" y="84" on="0"/>
        <pt x="324" y="54" on="1"/>
        <pt x="342" y="40" on="0"/>
        <pt x="363" y="41" on="1"/>
        <pt x="396" y="42" on="0"/>
        <pt x="448" y="58" on="1"/>
        <pt x="466" y="63" on="1"/>
        <pt x="481" y="15" on="1"/>
        <pt x="416" y="-10" on="0"/>
        <pt x="329" y="-10" on="0"/>
        <pt x="275" y="23" on="0"/>
        <pt x="255" y="60" on="1"/>
        <pt x="217" y="-10" on="0"/>
      </contour>
      <contour>
        <pt x="221" y="92" on="1"/>
        <pt x="221" y="218" on="1"/>
        <pt x="156" y="218" on="1"/>
        <pt x="118" y="218" on="0"/>
        <pt x="75" y="174" on="0"/>
        <pt x="75" y="134" on="1"/>
        <pt x="75" y="41" on="0"/>
        <pt x="140" y="41" on="1"/>
        <pt x="180" y="42" on="0"/>
        <pt x="208" y="74" on="1"/>
        <pt x="214" y="82" on="0"/>
      </contour>
      <contour>
        <pt x="428" y="349" on="0"/>
        <pt x="397" y="428" on="0"/>
        <pt x="311" y="428" on="0"/>
        <pt x="276" y="352" on="0"/>
        <pt x="274" y="267" on="1"/>
        <pt x="428" y="267" on="1"/>
      </contour>
    </TTGlyph>
    <TTGlyph name="aeacute.sc" xMin="52" yMin="0" xMax="462" yMax="697">
      <contour>
        <pt x="157" y="597" on="1"/>
        <pt x="338" y="697" on="1"/>
        <pt x="361" y="648" on="1"/>
        <pt x="178" y="558" on="1"/>
      </contour>
      <contour>
        <pt x="52" y="0" on="1"/>
        <pt x="211" y="517" on="1"/>
        <pt x="459" y="517" on="1"/>
        <pt x="459" y="468" on="1"/>
        <pt x="312" y="468" on="1"/>
        <pt x="312" y="288" on="1"/>
        <pt x="437" y="288" on="1"/>
        <pt x="437" y="239" on="1"/>
        <pt x="312" y="239" on="1"/>
        <pt x="312" y="49" on="1"/>
        <pt x="462" y="49" on="1"/>
        <pt x="462" y="0" on="1"/>
        <pt x="258" y="0" on="1"/>
        <pt x="258" y="113" on="1"/>
        <pt x="142" y="113" on="1"/>
        <pt x="109" y="0" on="1"/>
      </contour>
      <contour>
        <pt x="258" y="163" on="1"/>
        <pt x="258" y="470" on="1"/>
        <pt x="250" y="470" on="1"/>
        <pt x="156" y="163" on="1"/>
      </contour>
    </TTGlyph>
    <TTGlyph name="agrave" xMin="60" yMin="-9" xMax="423" yMax="717">
      <contour>
        <pt x="218" y="43" on="1"/>
        <pt x="255" y="43" on="0"/>
        <pt x="342" y="90" on="0"/>
        <pt x="362" y="110" on="1"/>
        <pt x="362" y="229" on="1"/>
        <pt x="296" y="234" on="0"/>
        <pt x="176" y="234" on="0"/>
        <pt x="116" y="183" on="0"/>
        <pt x="116" y="140" on="1"/>
        <pt x="116" y="43" on="0"/>
      </contour>
      <contour>
        <pt x="217" y="-9" on="1"/>
        <pt x="144" y="-9" on="0"/>
        <pt x="60" y="66" on="0"/>
        <pt x="60" y="204" on="0"/>
        <pt x="106" y="242" on="1"/>
        <pt x="152" y="281" on="0"/>
        <pt x="304" y="281" on="0"/>
        <pt x="362" y="275" on="1"/>
        <pt x="362" y="364" on="0"/>
        <pt x="318" y="429" on="0"/>
        <pt x="184" y="429" on="0"/>
        <pt x="93" y="397" on="1"/>
        <pt x="78" y="447" on="1"/>
        <pt x="171" y="481" on="0"/>
        <pt x="246" y="481" on="1"/>
        <pt x="345" y="481" on="0"/>
        <pt x="415" y="393" on="0"/>
        <pt x="415" y="283" on="1"/>
        <pt x="415" y="73" on="1"/>
        <pt x="423" y="-3" on="1"/>
        <pt x="372" y="-8" on="1"/>
        <pt x="362" y="52" on="1"/>
        <pt x="339" y="32" on="0"/>
        <pt x="255" y="-9" on="0"/>
      </contour>
      <contour>
        <pt x="171" y="717" on="1"/>
        <pt x="352" y="617" on="1"/>
        <pt x="331" y="578" on="1"/>
        <pt x="148" y="668" on="1"/>
      </contour>
    </TTGlyph>
    <TTGlyph name="agrave.sc" xMin="52" yMin="0" xMax="448" yMax="697">
      <contour>
        <pt x="52" y="0" on="1"/>
        <pt x="211" y="517" on="1"/>
        <pt x="299" y="517" on="1"/>
        <pt x="448" y="0" on="1"/>
        <pt x="391" y="0" on="1"/>
        <pt x="358" y="113" on="1"/>
        <pt x="142" y="113" on="1"/>
        <pt x="109" y="0" on="1"/>
      </contour>
      <contour>
        <pt x="345" y="163" on="1"/>
        <pt x="258" y="470" on="1"/>
        <pt x="250" y="470" on="1"/>
        <pt x="156" y="163" on="1"/>
      </contour>
      <contour>
        <pt x="152" y="648" on="1"/>
        <pt x="175" y="697" on="1"/>
        <pt x="356" y="597" on="1"/>
        <pt x="335" y="558" on="1"/>
      </contour>
    </TTGlyph>
    <TTGlyph name="amacron" xMin="60" yMin="-9" xMax="423" yMax="669">
      <contour>
        <pt x="218" y="43" on="1"/>
        <pt x="255" y="43" on="0"/>
        <pt x="342" y="90" on="0"/>
        <pt x="362" y="110" on="1"/>
        <pt x="362" y="229" on="1"/>
        <pt x="296" y="234" on="0"/>
        <pt x="176" y="234" on="0"/>
        <pt x="116" y="183" on="0"/>
        <pt x="116" y="140" on="1"/>
        <pt x="116" y="43" on="0"/>
      </contour>
      <contour>
        <pt x="217" y="-9" on="1"/>
        <pt x="144" y="-9" on="0"/>
        <pt x="60" y="66" on="0"/>
        <pt x="60" y="204" on="0"/>
        <pt x="106" y="242" on="1"/>
        <pt x="152" y="281" on="0"/>
        <pt x="304" y="281" on="0"/>
        <pt x="362" y="275" on="1"/>
        <pt x="362" y="364" on="0"/>
        <pt x="318" y="429" on="0"/>
        <pt x="184" y="429" on="0"/>
        <pt x="93" y="397" on="1"/>
        <pt x="78" y="447" on="1"/>
        <pt x="171" y="481" on="0"/>
        <pt x="246" y="481" on="1"/>
        <pt x="345" y="481" on="0"/>
        <pt x="415" y="393" on="0"/>
        <pt x="415" y="283" on="1"/>
        <pt x="415" y="73" on="1"/>
        <pt x="423" y="-3" on="1"/>
        <pt x="372" y="-8" on="1"/>
        <pt x="362" y="52" on="1"/>
        <pt x="339" y="32" on="0"/>
        <pt x="255" y="-9" on="0"/>
      </contour>
      <contour>
        <pt x="104" y="669" on="1"/>
        <pt x="397" y="669" on="1"/>
        <pt x="397" y="624" on="1"/>
        <pt x="104" y="624" on="1"/>
      </contour>
    </TTGlyph>
    <TTGlyph name="amacron.sc" xMin="52" yMin="0" xMax="448" yMax="639">
      <contour>
        <pt x="104" y="639" on="1"/>
        <pt x="397" y="639" on="1"/>
        <pt x="397" y="594" on="1"/>
        <pt x="104" y="594" on="1"/>
      </contour>
      <contour>
        <pt x="52" y="0" on="1"/>
        <pt x="211" y="517" on="1"/>
        <pt x="299" y="517" on="1"/>
        <pt x="448" y="0" on="1"/>
        <pt x="391" y="0" on="1"/>
        <pt x="358" y="113" on="1"/>
        <pt x="142" y="113" on="1"/>
        <pt x="109" y="0" on="1"/>
      </contour>
      <contour>
        <pt x="345" y="163" on="1"/>
        <pt x="258" y="470" on="1"/>
        <pt x="250" y="470" on="1"/>
        <pt x="156" y="163" on="1"/>
      </contour>
    </TTGlyph>
    <TTGlyph name="ampersand" xMin="5" yMin="-21" xMax="489" yMax="665">
      <contour>
        <pt x="5" y="197" on="1"/>
        <pt x="5" y="340" on="0"/>
        <pt x="161" y="401" on="1"/>
        <pt x="112" y="480" on="0"/>
        <pt x="112" y="591" on="0"/>
        <pt x="190" y="665" on="0"/>
        <pt x="315" y="665" on="0"/>
        <pt x="391" y="592" on="0"/>
        <pt x="391" y="477" on="0"/>
        <pt x="327" y="404" on="0"/>
        <pt x="243" y="366" on="1"/>
        <pt x="376" y="159" on="1"/>
        <pt x="412" y="234" on="0"/>
        <pt x="440" y="365" on="1"/>
        <pt x="489" y="357" on="1"/>
        <pt x="465" y="225" on="0"/>
        <pt x="409" y="117" on="1"/>
        <pt x="422" y="96" on="0"/>
        <pt x="442" y="70" on="1"/>
        <pt x="489" y="11" on="1"/>
        <pt x="450" y="-21" on="1"/>
        <pt x="402" y="35" on="0"/>
        <pt x="375" y="76" on="1"/>
        <pt x="299" y="-10" on="0"/>
        <pt x="114" y="-10" on="0"/>
        <pt x="5" y="99" on="0"/>
      </contour>
      <contour>
        <pt x="282" y="430" on="0"/>
        <pt x="335" y="489" on="0"/>
        <pt x="335" y="573" on="0"/>
        <pt x="291" y="616" on="0"/>
        <pt x="215" y="616" on="0"/>
        <pt x="168" y="571" on="0"/>
        <pt x="168" y="501" on="0"/>
        <pt x="191" y="446" on="0"/>
        <pt x="219" y="406" on="1"/>
      </contour>
      <contour>
        <pt x="62" y="197" on="1"/>
        <pt x="62" y="123" on="0"/>
        <pt x="138" y="39" on="0"/>
        <pt x="205" y="39" on="1"/>
        <pt x="242" y="39" on="0"/>
        <pt x="320" y="81" on="0"/>
        <pt x="346" y="115" on="1"/>
        <pt x="184" y="362" on="1"/>
        <pt x="62" y="311" on="0"/>
      </contour>
    </TTGlyph>
    <TTGlyph name="ampersand.alt" xMin="17" yMin="-9" xMax="488" yMax="665">
      <contour>
        <pt x="154" y="395" on="1"/>
        <pt x="488" y="395" on="1"/>
        <pt x="488" y="344" on="1"/>
        <pt x="431" y="344" on="1"/>
        <pt x="431" y="13" on="1"/>
        <pt x="328" y="-9" on="0"/>
        <pt x="223" y="-9" on="1"/>
        <pt x="17" y="-9" on="0"/>
        <pt x="17" y="199" on="1"/>
        <pt x="17" y="271" on="0"/>
        <pt x="61" y="353" on="0"/>
        <pt x="105" y="376" on="1"/>
        <pt x="94" y="438" on="0"/>
        <pt x="94" y="464" on="1"/>
        <pt x="94" y="561" on="0"/>
        <pt x="172" y="665" on="0"/>
        <pt x="262" y="665" on="1"/>
        <pt x="302" y="665" on="0"/>
        <pt x="378" y="652" on="1"/>
        <pt x="371" y="600" on="1"/>
        <pt x="310" y="613" on="0"/>
        <pt x="262" y="613" on="1"/>
        <pt x="196" y="613" on="0"/>
        <pt x="147" y="535" on="0"/>
        <pt x="147" y="460" on="1"/>
        <pt x="147" y="439" on="0"/>
      </contour>
      <contour>
        <pt x="378" y="57" on="1"/>
        <pt x="378" y="344" on="1"/>
        <pt x="177" y="344" on="1"/>
        <pt x="72" y="344" on="0"/>
        <pt x="72" y="199" on="1"/>
        <pt x="77" y="115" on="0"/>
        <pt x="112" y="79" on="1"/>
        <pt x="148" y="43" on="0"/>
        <pt x="296" y="43" on="0"/>
      </contour>
    </TTGlyph>
    <TTGlyph name="ampersand.calt" xMin="35" yMin="-10" xMax="484" yMax="665">
      <contour>
        <pt x="35" y="195" on="1"/>
        <pt x="35" y="264" on="0"/>
        <pt x="86" y="339" on="0"/>
        <pt x="134" y="364" on="1"/>
        <pt x="88" y="420" on="0"/>
        <pt x="88" y="491" on="1"/>
        <pt x="88" y="665" on="0"/>
        <pt x="268" y="665" on="1"/>
        <pt x="312" y="665" on="0"/>
        <pt x="362" y="654" on="1"/>
        <pt x="380" y="650" on="1"/>
        <pt x="371" y="598" on="1"/>
        <pt x="311" y="613" on="0"/>
        <pt x="268" y="613" on="1"/>
        <pt x="201" y="613" on="0"/>
        <pt x="142" y="555" on="0"/>
        <pt x="142" y="431" on="0"/>
        <pt x="181" y="383" on="1"/>
        <pt x="484" y="383" on="1"/>
        <pt x="484" y="332" on="1"/>
        <pt x="390" y="332" on="1"/>
        <pt x="390" y="12" on="1"/>
        <pt x="311" y="-10" on="0"/>
        <pt x="241" y="-10" on="1"/>
        <pt x="35" y="-10" on="0"/>
      </contour>
      <contour>
        <pt x="206" y="332" on="1"/>
        <pt x="90" y="332" on="0"/>
        <pt x="90" y="186" on="1"/>
        <pt x="90" y="112" on="0"/>
        <pt x="163" y="42" on="0"/>
        <pt x="244" y="42" on="1"/>
        <pt x="295" y="42" on="0"/>
        <pt x="337" y="54" on="1"/>
        <pt x="337" y="332" on="1"/>
      </contour>
    </TTGlyph>
    <TTGlyph name="aogonek" xMin="60" yMin="-249" xMax="423" yMax="481">
      <contour>
        <pt x="414" y="-239" on="1"/>
        <pt x="364" y="-249" on="0"/>
        <pt x="293" y="-248" on="0"/>
        <pt x="240" y="-190" on="0"/>
        <pt x="240" y="-101" on="0"/>
        <pt x="301" y="-31" on="0"/>
        <pt x="372" y="14" on="1"/>
        <pt x="366" y="52" on="1"/>
        <pt x="344" y="33" on="0"/>
        <pt x="255" y="-9" on="0"/>
        <pt x="217" y="-9" on="1"/>
        <pt x="144" y="-9" on="0"/>
        <pt x="60" y="66" on="0"/>
        <pt x="60" y="204" on="0"/>
        <pt x="151" y="281" on="0"/>
        <pt x="304" y="281" on="0"/>
        <pt x="362" y="275" on="1"/>
        <pt x="362" y="364" on="0"/>
        <pt x="318" y="429" on="0"/>
        <pt x="184" y="429" on="0"/>
        <pt x="93" y="397" on="1"/>
        <pt x="78" y="447" on="1"/>
        <pt x="171" y="481" on="0"/>
        <pt x="246" y="481" on="1"/>
        <pt x="345" y="481" on="0"/>
        <pt x="415" y="393" on="0"/>
        <pt x="415" y="283" on="1"/>
        <pt x="415" y="73" on="1"/>
        <pt x="423" y="-3" on="1"/>
        <pt x="348" y="-52" on="0"/>
        <pt x="292" y="-112" on="0"/>
        <pt x="292" y="-141" on="1"/>
        <pt x="292" y="-203" on="0"/>
        <pt x="350" y="-203" on="1"/>
        <pt x="381" y="-203" on="0"/>
        <pt x="408" y="-197" on="1"/>
      </contour>
      <contour>
        <pt x="218" y="43" on="1"/>
        <pt x="255" y="43" on="0"/>
        <pt x="342" y="90" on="0"/>
        <pt x="362" y="110" on="1"/>
        <pt x="362" y="229" on="1"/>
        <pt x="297" y="234" on="0"/>
        <pt x="176" y="234" on="0"/>
        <pt x="116" y="183" on="0"/>
        <pt x="116" y="140" on="1"/>
        <pt x="116" y="43" on="0"/>
      </contour>
    </TTGlyph>
</ttFont>
